<svg version="1.1" viewBox="0.0 0.0 616.5931758530184 194.3989501312336" fill="none" stroke="none" stroke-linecap="square" stroke-miterlimit="10" xmlns:xlink="http://www.w3.org/1999/xlink" xmlns="http://www.w3.org/2000/svg"><clipPath id="p.0"><path d="m0 0l616.5932 0l0 194.39896l-616.5932 0l0 -194.39896z" clip-rule="nonzero"/></clipPath><g clip-path="url(#p.0)"><path fill="#000000" fill-opacity="0.0" d="m0 0l616.5932 0l0 194.39896l-616.5932 0z" fill-rule="evenodd"/><g filter="url(#shadowFilter-p.1)"><use xlink:href="#p.1" transform="matrix(1.0 0.0 0.0 1.0 0.0 2.0)"/></g><defs><filter id="shadowFilter-p.1" filterUnits="userSpaceOnUse"><feGaussianBlur in="SourceAlpha" stdDeviation="2.0" result="blur"/><feComponentTransfer in="blur" color-interpolation-filters="sRGB"><feFuncR type="linear" slope="0" intercept="0.0"/><feFuncG type="linear" slope="0" intercept="0.0"/><feFuncB type="linear" slope="0" intercept="0.0"/><feFuncA type="linear" slope="0.5" intercept="0"/></feComponentTransfer></filter></defs><g id="p.1"><path fill="#000000" fill-opacity="0.0" d="m10.267716 10.9763775l201.6063 0l0 42.015747l-201.6063 0z" fill-rule="evenodd"/><path fill="#000000" d="m45.563408 36.927628q-0.984375 1.15625 -2.890625 1.15625q-1.578125 0 -2.40625 -0.921875q-0.8125 -0.921875 -0.828125 -2.703125l0 -6.421877l1.6875 0l0 6.375002q0 2.234375 1.828125 2.234375q1.921875 0 2.5625 -1.4375l0 -7.171877l1.6875 0l0 9.859377l-1.609375 0l-0.03125 -0.96875zm8.159622 -0.21875q0.890625 0 1.5625 -0.546875q0.6875 -0.546875 0.75 -1.375l1.59375 0q-0.046875 0.84375 -0.578125 1.609375q-0.53125 0.765625 -1.4375 1.234375q-0.890625 0.453125 -1.890625 0.453125q-2.015625 0 -3.203125 -1.34375q-1.1875 -1.34375 -1.1875 -3.6875l0 -0.28125q0 -1.4375019 0.515625 -2.546877q0.53125 -1.125 1.515625 -1.734375q1.0 -0.625 2.34375 -0.625q1.65625 0 2.75 1.0q1.109375 0.984375 1.171875 2.5625l-1.59375 0q-0.0625 -0.953125 -0.71875 -1.5625q-0.65625 -0.625 -1.609375 -0.625q-1.28125 0 -2.0 0.921875q-0.703125 0.921875 -0.703125 2.671877l0 0.328125q0 1.703125 0.703125 2.625q0.703125 0.921875 2.015625 0.921875zm7.390381 -0.1875l5.765625 0l0 1.375l-7.828125 0l0 -1.234375l5.4375 -7.234377l-5.34375 0l0 -1.390625l7.46875 0l0 1.203125l-5.5 7.281252zm11.600311 1.5625q-2.0 0 -3.265625 -1.3125q-1.25 -1.328125 -1.25 -3.53125l0 -0.3125q0 -1.4687519 0.5625 -2.609377q0.5625 -1.15625 1.5625 -1.796875q1.015625 -0.65625 2.1875 -0.65625q1.921875 0 2.984375 1.265625q1.0625 1.265625 1.0625 3.625002l0 0.6875l-6.671875 0q0.03125 1.46875 0.84375 2.375q0.828125 0.890625 2.078125 0.890625q0.890625 0 1.515625 -0.359375q0.625 -0.375 1.078125 -0.96875l1.03125 0.796875q-1.234375 1.90625 -3.71875 1.90625zm-0.203125 -8.843752q-1.015625 0 -1.71875 0.75q-0.6875 0.734375 -0.84375 2.078127l4.9375 0l0 -0.1250019q-0.078125 -1.28125 -0.703125 -1.984375q-0.609375 -0.71875 -1.671875 -0.71875zm7.6025543 -1.203125l0.046875 1.234375q1.125 -1.40625 2.953125 -1.40625q3.125 0 3.15625 3.515625l0 6.515627l-1.6875 0l0 -6.515627q-0.015625 -1.078125 -0.5 -1.578125q-0.46875 -0.515625 -1.484375 -0.515625q-0.8125 0 -1.4375 0.4375q-0.609375 0.4375 -0.96875 1.15625l0 7.015627l-1.671875 0l0 -9.859377l1.59375 0zm10.528107 9.859377l-1.6875 0l0 -9.859377l1.6875 0l0 9.859377zm-1.828125 -12.468752q0 -0.40625 0.25 -0.6875q0.25 -0.296875 0.734375 -0.296875q0.5 0 0.75 0.296875q0.265625 0.28125 0.265625 0.6875q0 0.40625 -0.265625 0.6875q-0.25 0.265625 -0.75 0.265625q-0.484375 0 -0.734375 -0.265625q-0.25 -0.28125 -0.25 -0.6875zm8.605545 12.656252q-2.0 0 -3.265625 -1.3125q-1.25 -1.328125 -1.25 -3.53125l0 -0.3125q0 -1.4687519 0.5625 -2.609377q0.5625 -1.15625 1.5625 -1.796875q1.015625 -0.65625 2.1875 -0.65625q1.921875 0 2.984375 1.265625q1.0625 1.265625 1.0625 3.625002l0 0.6875l-6.671875 0q0.03125 1.46875 0.84375 2.375q0.828125 0.890625 2.078125 0.890625q0.890625 0 1.515625 -0.359375q0.625 -0.375 1.078125 -0.96875l1.03125 0.796875q-1.234375 1.90625 -3.71875 1.90625zm-0.203125 -8.843752q-1.015625 0 -1.71875 0.75q-0.6875 0.734375 -0.84375 2.078127l4.9375 0l0 -0.1250019q-0.078125 -1.28125 -0.703125 -1.984375q-0.609375 -0.71875 -1.671875 -0.71875zm5.9463043 7.765627q0 -0.4375 0.25 -0.71875q0.265625 -0.296875 0.78125 -0.296875q0.53125 0 0.796875 0.296875q0.265625 0.28125 0.265625 0.71875q0 0.421875 -0.265625 0.703125q-0.265625 0.28125 -0.796875 0.28125q-0.515625 0 -0.78125 -0.28125q-0.25 -0.28125 -0.25 -0.703125zm0.015625 -8.046877q0 -0.4375 0.25 -0.71875q0.265625 -0.296875 0.78125 -0.296875q0.53125 0 0.796875 0.296875q0.265625 0.28125 0.265625 0.71875q0 0.421875 -0.265625 0.703125q-0.265625 0.28125 -0.796875 0.28125q-0.515625 0 -0.78125 -0.28125q-0.25 -0.28125 -0.25 -0.703125zm17.52745 4.125002q0 2.25 -1.046875 3.625q-1.03125 1.375 -2.78125 1.375q-1.875 0 -2.890625 -1.328125l-0.078125 1.140625l-1.546875 0l0 -14.000002l1.671875 0l0 5.234375q1.03125 -1.265625 2.8125 -1.265625q1.796875 0 2.828125 1.359375q1.03125 1.34375 1.03125 3.703127l0 0.15625zm-1.6875 -0.203125q0 -1.7187519 -0.671875 -2.656252q-0.65625 -0.9375 -1.90625 -0.9375q-1.671875 0 -2.40625 1.546875l0 4.265627q0.78125 1.546875 2.421875 1.546875q1.21875 0 1.890625 -0.9375q0.671875 -0.9375 0.671875 -2.828125zm9.888695 5.015625q-0.140625 -0.296875 -0.234375 -1.03125q-1.1718826 1.21875 -2.8125076 1.21875q-1.453125 0 -2.390625 -0.828125q-0.921875 -0.828125 -0.921875 -2.09375q0 -1.53125 1.15625 -2.375q1.171875 -0.8593769 3.296875 -0.8593769l1.6406326 0l0 -0.78125q0 -0.890625 -0.53125 -1.40625q-0.5156326 -0.53125 -1.5468826 -0.53125q-0.90625 0 -1.515625 0.46875q-0.609375 0.453125 -0.609375 1.09375l-1.703125 0q0 -0.734375 0.515625 -1.421875q0.53125 -0.6875 1.421875 -1.078125q0.90625 -0.40625 1.984375 -0.40625q1.7031326 0 2.6718826 0.859375q0.96875 0.84375 1.0 2.328125l0 4.531252q0 1.359375 0.34375 2.171875l0 0.140625l-1.765625 0zm-2.7968826 -1.28125q0.796875 0 1.5 -0.40625q0.7187576 -0.421875 1.0312576 -1.078125l0 -2.015625l-1.3125076 0q-3.109375 0 -3.109375 1.8125q0 0.796875 0.53125 1.25q0.53125 0.4375 1.359375 0.4375zm9.147987 -10.968752l0 2.390625l1.84375 0l0 1.3125l-1.84375 0l0 6.109377q0 0.59375 0.234375 0.890625q0.25 0.296875 0.84375 0.296875q0.296875 0 0.8125 -0.109375l0 1.359375q-0.671875 0.1875 -1.296875 0.1875q-1.125 0 -1.703125 -0.6875q-0.578125 -0.6875 -0.578125 -1.9375l0 -6.109377l-1.796875 0l0 -1.3125l1.796875 0l0 -2.390625l1.6875 0zm7.7661285 11.062502q0.890625 0 1.5625 -0.546875q0.6875 -0.546875 0.75 -1.375l1.59375 0q-0.046875 0.84375 -0.578125 1.609375q-0.53125 0.765625 -1.4375 1.234375q-0.890625 0.453125 -1.890625 0.453125q-2.015625 0 -3.203125 -1.34375q-1.1875 -1.34375 -1.1875 -3.6875l0 -0.28125q0 -1.4375019 0.515625 -2.546877q0.53125 -1.125 1.515625 -1.734375q1.0 -0.625 2.34375 -0.625q1.65625 0 2.75 1.0q1.109375 0.984375 1.171875 2.5625l-1.59375 0q-0.0625 -0.953125 -0.71875 -1.5625q-0.65625 -0.625 -1.609375 -0.625q-1.28125 0 -2.0 0.921875q-0.703125 0.921875 -0.703125 2.671877l0 0.328125q0 1.703125 0.703125 2.625q0.703125 0.921875 2.015625 0.921875zm7.484131 -7.468752q1.125 -1.375 2.921875 -1.375q3.125 0 3.15625 3.515625l0 6.515627l-1.6875 0l0 -6.515627q-0.015625 -1.078125 -0.5 -1.578125q-0.46875 -0.515625 -1.484375 -0.515625q-0.8125 0 -1.4375 0.4375q-0.609375 0.4375 -0.96875 1.15625l0 7.015627l-1.671875 0l0 -14.000002l1.671875 0l0 5.34375z" fill-rule="nonzero"/><path fill="#000000" d="m168.88588 34.162003l-2.28125 0l-1.359375 3.734375l-1.3125 0l1.359375 -3.734375l-2.09375 0l0.21875 -1.25l2.3125 0l1.171875 -3.218752l-2.25 0l0.203125 -1.265625l2.5 0l1.390625 -3.796875l1.3125 0l-1.390625 3.796875l2.296875 0l1.375 -3.796875l1.328125 0l-1.390625 3.796875l1.78125 0l-0.21875 1.265625l-2.015625 0l-1.171875 3.218752l1.96875 0l-0.21875 1.25l-2.1875 0l-1.359375 3.734375l-1.328125 0l1.359375 -3.734375zm-1.84375 -1.25l2.28125 0l1.171875 -3.218752l-2.265625 0l-1.1875 3.218752zm12.13826 4.984375l-1.65625 0l1.953125 -11.187502l-3.53125 1.234375l0.28125 -1.59375l4.921875 -1.78125l0.296875 0l-2.265625 13.328127z" fill-rule="nonzero"/></g><g filter="url(#shadowFilter-p.2)"><use xlink:href="#p.2" transform="matrix(1.0 0.0 0.0 1.0 0.0 2.0)"/></g><defs><filter id="shadowFilter-p.2" filterUnits="userSpaceOnUse"><feGaussianBlur in="SourceAlpha" stdDeviation="2.0" result="blur"/><feComponentTransfer in="blur" color-interpolation-filters="sRGB"><feFuncR type="linear" slope="0" intercept="0.0"/><feFuncG type="linear" slope="0" intercept="0.0"/><feFuncB type="linear" slope="0" intercept="0.0"/><feFuncA type="linear" slope="0.5" intercept="0"/></feComponentTransfer></filter></defs><g id="p.2"><path fill="#000000" fill-opacity="0.0" d="m215.02625 10.9763775l201.6063 0l0 42.015747l-201.6063 0z" fill-rule="evenodd"/><path fill="#000000" d="m250.32195 36.927628q-0.984375 1.15625 -2.890625 1.15625q-1.578125 0 -2.40625 -0.921875q-0.8125 -0.921875 -0.828125 -2.703125l0 -6.421877l1.6875 0l0 6.375002q0 2.234375 1.828125 2.234375q1.921875 0 2.5625 -1.4375l0 -7.171877l1.6875 0l0 9.859377l-1.609375 0l-0.03125 -0.96875zm8.159622 -0.21875q0.890625 0 1.5625 -0.546875q0.6875 -0.546875 0.75 -1.375l1.59375 0q-0.046875 0.84375 -0.578125 1.609375q-0.53125 0.765625 -1.4375 1.234375q-0.890625 0.453125 -1.890625 0.453125q-2.015625 0 -3.203125 -1.34375q-1.1875 -1.34375 -1.1875 -3.6875l0 -0.28125q0 -1.4375019 0.515625 -2.546877q0.53125 -1.125 1.515625 -1.734375q1.0 -0.625 2.34375 -0.625q1.65625 0 2.75 1.0q1.109375 0.984375 1.171875 2.5625l-1.59375 0q-0.0625 -0.953125 -0.71875 -1.5625q-0.65625 -0.625 -1.609375 -0.625q-1.28125 0 -2.0 0.921875q-0.703125 0.921875 -0.703125 2.671877l0 0.328125q0 1.703125 0.703125 2.625q0.703125 0.921875 2.015625 0.921875zm7.390381 -0.1875l5.765625 0l0 1.375l-7.828125 0l0 -1.234375l5.4375 -7.234377l-5.34375 0l0 -1.390625l7.46875 0l0 1.203125l-5.5 7.281252zm11.600311 1.5625q-2.0 0 -3.265625 -1.3125q-1.25 -1.328125 -1.25 -3.53125l0 -0.3125q0 -1.4687519 0.5625 -2.609377q0.5625 -1.15625 1.5625 -1.796875q1.015625 -0.65625 2.1875 -0.65625q1.921875 0 2.984375 1.265625q1.0625 1.265625 1.0625 3.625002l0 0.6875l-6.671875 0q0.03125 1.46875 0.84375 2.375q0.828125 0.890625 2.078125 0.890625q0.890625 0 1.515625 -0.359375q0.625 -0.375 1.078125 -0.96875l1.03125 0.796875q-1.234375 1.90625 -3.71875 1.90625zm-0.203125 -8.843752q-1.015625 0 -1.71875 0.75q-0.6875 0.734375 -0.84375 2.078127l4.9375 0l0 -0.1250019q-0.078125 -1.28125 -0.703125 -1.984375q-0.609375 -0.71875 -1.671875 -0.71875zm7.602539 -1.203125l0.046875 1.234375q1.125 -1.40625 2.953125 -1.40625q3.125 0 3.15625 3.515625l0 6.515627l-1.6875 0l0 -6.515627q-0.015625 -1.078125 -0.5 -1.578125q-0.46875 -0.515625 -1.484375 -0.515625q-0.8125 0 -1.4375 0.4375q-0.609375 0.4375 -0.96875 1.15625l0 7.015627l-1.671875 0l0 -9.859377l1.59375 0zm10.528107 9.859377l-1.6875 0l0 -9.859377l1.6875 0l0 9.859377zm-1.828125 -12.468752q0 -0.40625 0.25 -0.6875q0.25 -0.296875 0.734375 -0.296875q0.5 0 0.75 0.296875q0.265625 0.28125 0.265625 0.6875q0 0.40625 -0.265625 0.6875q-0.25 0.265625 -0.75 0.265625q-0.484375 0 -0.734375 -0.265625q-0.25 -0.28125 -0.25 -0.6875zm8.60556 12.656252q-2.0 0 -3.265625 -1.3125q-1.25 -1.328125 -1.25 -3.53125l0 -0.3125q0 -1.4687519 0.5625 -2.609377q0.5625 -1.15625 1.5625 -1.796875q1.015625 -0.65625 2.1875 -0.65625q1.921875 0 2.984375 1.265625q1.0625 1.265625 1.0625 3.625002l0 0.6875l-6.671875 0q0.03125 1.46875 0.84375 2.375q0.828125 0.890625 2.078125 0.890625q0.890625 0 1.515625 -0.359375q0.625 -0.375 1.078125 -0.96875l1.03125 0.796875q-1.234375 1.90625 -3.71875 1.90625zm-0.203125 -8.843752q-1.015625 0 -1.71875 0.75q-0.6875 0.734375 -0.84375 2.078127l4.9375 0l0 -0.1250019q-0.078125 -1.28125 -0.703125 -1.984375q-0.609375 -0.71875 -1.671875 -0.71875zm5.946289 7.765627q0 -0.4375 0.25 -0.71875q0.265625 -0.296875 0.78125 -0.296875q0.53125 0 0.796875 0.296875q0.265625 0.28125 0.265625 0.71875q0 0.421875 -0.265625 0.703125q-0.265625 0.28125 -0.796875 0.28125q-0.515625 0 -0.78125 -0.28125q-0.25 -0.28125 -0.25 -0.703125zm0.015625 -8.046877q0 -0.4375 0.25 -0.71875q0.265625 -0.296875 0.78125 -0.296875q0.53125 0 0.796875 0.296875q0.265625 0.28125 0.265625 0.71875q0 0.421875 -0.265625 0.703125q-0.265625 0.28125 -0.796875 0.28125q-0.515625 0 -0.78125 -0.28125q-0.25 -0.28125 -0.25 -0.703125zm17.527466 4.125002q0 2.25 -1.046875 3.625q-1.03125 1.375 -2.78125 1.375q-1.875 0 -2.890625 -1.328125l-0.078125 1.140625l-1.546875 0l0 -14.000002l1.671875 0l0 5.234375q1.03125 -1.265625 2.8125 -1.265625q1.796875 0 2.828125 1.359375q1.03125 1.34375 1.03125 3.703127l0 0.15625zm-1.6875 -0.203125q0 -1.7187519 -0.671875 -2.656252q-0.65625 -0.9375 -1.90625 -0.9375q-1.671875 0 -2.40625 1.546875l0 4.265627q0.78125 1.546875 2.421875 1.546875q1.21875 0 1.890625 -0.9375q0.671875 -0.9375 0.671875 -2.828125zm9.888672 5.015625q-0.140625 -0.296875 -0.234375 -1.03125q-1.171875 1.21875 -2.8125 1.21875q-1.453125 0 -2.390625 -0.828125q-0.921875 -0.828125 -0.921875 -2.09375q0 -1.53125 1.15625 -2.375q1.171875 -0.8593769 3.296875 -0.8593769l1.640625 0l0 -0.78125q0 -0.890625 -0.53125 -1.40625q-0.515625 -0.53125 -1.546875 -0.53125q-0.90625 0 -1.515625 0.46875q-0.609375 0.453125 -0.609375 1.09375l-1.703125 0q0 -0.734375 0.515625 -1.421875q0.53125 -0.6875 1.421875 -1.078125q0.90625 -0.40625 1.984375 -0.40625q1.703125 0 2.671875 0.859375q0.96875 0.84375 1.0 2.328125l0 4.531252q0 1.359375 0.34375 2.171875l0 0.140625l-1.765625 0zm-2.796875 -1.28125q0.796875 0 1.5 -0.40625q0.71875 -0.421875 1.03125 -1.078125l0 -2.015625l-1.3125 0q-3.109375 0 -3.109375 1.8125q0 0.796875 0.53125 1.25q0.53125 0.4375 1.359375 0.4375zm9.14798 -10.968752l0 2.390625l1.84375 0l0 1.3125l-1.84375 0l0 6.109377q0 0.59375 0.234375 0.890625q0.25 0.296875 0.84375 0.296875q0.296875 0 0.8125 -0.109375l0 1.359375q-0.671875 0.1875 -1.296875 0.1875q-1.125 0 -1.703125 -0.6875q-0.578125 -0.6875 -0.578125 -1.9375l0 -6.109377l-1.796875 0l0 -1.3125l1.796875 0l0 -2.390625l1.6875 0zm7.766144 11.062502q0.890625 0 1.5625 -0.546875q0.6875 -0.546875 0.75 -1.375l1.59375 0q-0.046875 0.84375 -0.578125 1.609375q-0.53125 0.765625 -1.4375 1.234375q-0.890625 0.453125 -1.890625 0.453125q-2.015625 0 -3.203125 -1.34375q-1.1875 -1.34375 -1.1875 -3.6875l0 -0.28125q0 -1.4375019 0.515625 -2.546877q0.53125 -1.125 1.515625 -1.734375q1.0 -0.625 2.34375 -0.625q1.65625 0 2.75 1.0q1.109375 0.984375 1.171875 2.5625l-1.59375 0q-0.0625 -0.953125 -0.71875 -1.5625q-0.65625 -0.625 -1.609375 -0.625q-1.28125 0 -2.0 0.921875q-0.703125 0.921875 -0.703125 2.671877l0 0.328125q0 1.703125 0.703125 2.625q0.703125 0.921875 2.015625 0.921875zm7.484131 -7.468752q1.125 -1.375 2.921875 -1.375q3.125 0 3.15625 3.515625l0 6.515627l-1.6875 0l0 -6.515627q-0.015625 -1.078125 -0.5 -1.578125q-0.46875 -0.515625 -1.484375 -0.515625q-0.8125 0 -1.4375 0.4375q-0.609375 0.4375 -0.96875 1.15625l0 7.015627l-1.671875 0l0 -14.000002l1.671875 0l0 5.34375z" fill-rule="nonzero"/><path fill="#000000" d="m373.6444 34.162003l-2.28125 0l-1.359375 3.734375l-1.3125 0l1.359375 -3.734375l-2.09375 0l0.21875 -1.25l2.3125 0l1.171875 -3.218752l-2.25 0l0.203125 -1.265625l2.5 0l1.390625 -3.796875l1.3125 0l-1.390625 3.796875l2.296875 0l1.375 -3.796875l1.328125 0l-1.390625 3.796875l1.78125 0l-0.21875 1.265625l-2.015625 0l-1.171875 3.218752l1.96875 0l-0.21875 1.25l-2.1875 0l-1.359375 3.734375l-1.328125 0l1.359375 -3.734375zm-1.84375 -1.25l2.28125 0l1.171875 -3.218752l-2.265625 0l-1.1875 3.218752zm15.294525 4.984375l-8.453125 0l0.203125 -1.28125l4.890625 -4.765627l0.890625 -0.875q1.546875 -1.546875 1.703125 -2.84375q0.125 -1.0 -0.390625 -1.625q-0.5 -0.640625 -1.4375 -0.671875q-1.1875 -0.046875 -2.0 0.6875q-0.796875 0.734375 -0.96875 2.015625l-1.625 0q0.109375 -1.21875 0.734375 -2.15625q0.640625 -0.953125 1.671875 -1.453125q1.046875 -0.5 2.25 -0.484375q1.65625 0.046875 2.625 1.015625q0.96875 0.953125 0.828125 2.484375q-0.15625 1.75 -2.015625 3.671875l-0.828125 0.8593769l-4.265625 4.046875l6.40625 0l-0.21875 1.375z" fill-rule="nonzero"/></g><g filter="url(#shadowFilter-p.3)"><use xlink:href="#p.3" transform="matrix(1.0 0.0 0.0 1.0 0.0 2.0)"/></g><defs><filter id="shadowFilter-p.3" filterUnits="userSpaceOnUse"><feGaussianBlur in="SourceAlpha" stdDeviation="2.0" result="blur"/><feComponentTransfer in="blur" color-interpolation-filters="sRGB"><feFuncR type="linear" slope="0" intercept="0.0"/><feFuncG type="linear" slope="0" intercept="0.0"/><feFuncB type="linear" slope="0" intercept="0.0"/><feFuncA type="linear" slope="0.5" intercept="0"/></feComponentTransfer></filter></defs><g id="p.3"><path fill="#000000" fill-opacity="0.0" d="m419.7848 10.9763775l201.60626 0l0 42.015747l-201.60626 0z" fill-rule="evenodd"/><path fill="#000000" d="m471.55383 35.568253l1.890625 -7.531252l1.6875 0l-2.859375 9.859377l-1.375 0l-2.390625 -7.468752l-2.328125 7.468752l-1.375 0l-2.859375 -9.859377l1.671875 0l1.953125 7.375002l2.28125 -7.375002l1.359375 0l2.34375 7.531252zm6.8945007 -7.531252l0.046875 1.234375q1.125 -1.40625 2.953125 -1.40625q3.125 0 3.15625 3.515625l0 6.515627l-1.6875 0l0 -6.515627q-0.015625 -1.078125 -0.5 -1.578125q-0.46875 -0.515625 -1.484375 -0.515625q-0.8125 0 -1.4375 0.4375q-0.609375 0.4375 -0.96875 1.15625l0 7.015627l-1.671875 0l0 -9.859377l1.59375 0zm10.528107 9.859377l-1.6875 0l0 -9.859377l1.6875 0l0 9.859377zm-1.828125 -12.468752q0 -0.40625 0.25 -0.6875q0.25 -0.296875 0.734375 -0.296875q0.5 0 0.75 0.296875q0.265625 0.28125 0.265625 0.6875q0 0.40625 -0.265625 0.6875q-0.25 0.265625 -0.75 0.265625q-0.484375 0 -0.734375 -0.265625q-0.25 -0.28125 -0.25 -0.6875zm4.0743103 7.453127q0 -1.4531269 0.5625 -2.609377q0.578125 -1.15625 1.59375 -1.78125q1.015625 -0.625 2.3125 -0.625q2.015625 0 3.25 1.390625q1.25 1.390625 1.25 3.703127l0 0.125q0 1.4375 -0.546875 2.578125q-0.546875 1.140625 -1.578125 1.78125q-1.015625 0.640625 -2.359375 0.640625q-2.0 0 -3.25 -1.390625q-1.234375 -1.40625 -1.234375 -3.703125l0 -0.109375zm1.6875 0.203125q0 1.640625 0.765625 2.640625q0.765625 0.984375 2.03125 0.984375q1.296875 0 2.046875 -1.0q0.75 -1.015625 0.75 -2.828125q0 -1.6250019 -0.765625 -2.625002q-0.765625 -1.015625 -2.046875 -1.015625q-1.25 0 -2.015625 1.0q-0.765625 0.984375 -0.765625 2.843752zm15.139893 2.203125q0 -0.6875 -0.515625 -1.0625q-0.515625 -0.375 -1.796875 -0.640625q-1.28125 -0.28125 -2.03125 -0.65625q-0.75 -0.390625 -1.109375 -0.921875q-0.359375 -0.5312519 -0.359375 -1.2656269q0 -1.203125 1.015625 -2.03125q1.03125 -0.84375 2.625 -0.84375q1.671875 0 2.71875 0.859375q1.046875 0.859375 1.046875 2.21875l-1.6875 0q0 -0.703125 -0.59375 -1.203125q-0.59375 -0.5 -1.484375 -0.5q-0.921875 0 -1.4375 0.40625q-0.515625 0.390625 -0.515625 1.046875q0 0.609375 0.484375 0.921875q0.484375 0.3125 1.734375 0.5937519q1.265625 0.28125 2.046875 0.671875q0.78125 0.390625 1.15625 0.9375q0.390625 0.546875 0.390625 1.34375q0 1.328125 -1.0625 2.125q-1.046875 0.796875 -2.734375 0.796875q-1.1875 0 -2.109375 -0.421875q-0.90625 -0.421875 -1.421875 -1.171875q-0.515625 -0.75 -0.515625 -1.625l1.6875 0q0.046875 0.84375 0.671875 1.34375q0.640625 0.5 1.6875 0.5q0.953125 0 1.53125 -0.390625q0.578125 -0.390625 0.578125 -1.03125zm6.6352234 -1.953125l-1.0625 1.09375l0 3.46875l-1.6874695 0l0 -14.000002l1.6874695 0l0 8.468752l0.90625 -1.0781269l3.0625 -3.25l2.046875 0l-3.828125 4.125002l4.28125 5.734375l-1.984375 0l-3.421875 -4.5625zm6.2525635 -0.453125q0 -1.4531269 0.5625 -2.609377q0.578125 -1.15625 1.59375 -1.78125q1.015625 -0.625 2.3125 -0.625q2.015625 0 3.25 1.390625q1.25 1.390625 1.25 3.703127l0 0.125q0 1.4375 -0.546875 2.578125q-0.546875 1.140625 -1.578125 1.78125q-1.015625 0.640625 -2.359375 0.640625q-2.0 0 -3.25 -1.390625q-1.234375 -1.40625 -1.234375 -3.703125l0 -0.109375zm1.6875 0.203125q0 1.640625 0.765625 2.640625q0.765625 0.984375 2.03125 0.984375q1.296875 0 2.046875 -1.0q0.75 -1.015625 0.75 -2.828125q0 -1.6250019 -0.765625 -2.625002q-0.765625 -1.015625 -2.046875 -1.015625q-1.25 0 -2.015625 1.0q-0.765625 0.984375 -0.765625 2.843752zm18.124268 2.484375l1.890625 -7.531252l1.6875 0l-2.859375 9.859377l-1.375 0l-2.390625 -7.468752l-2.328125 7.468752l-1.375 0l-2.859375 -9.859377l1.671875 0l1.953125 7.375002l2.28125 -7.375002l1.359375 0l2.34375 7.531252zm11.378906 2.328125q-0.140625 -0.296875 -0.234375 -1.03125q-1.171875 1.21875 -2.8125 1.21875q-1.453125 0 -2.390625 -0.828125q-0.921875 -0.828125 -0.921875 -2.09375q0 -1.53125 1.15625 -2.375q1.171875 -0.8593769 3.296875 -0.8593769l1.640625 0l0 -0.78125q0 -0.890625 -0.53125 -1.40625q-0.515625 -0.53125 -1.546875 -0.53125q-0.90625 0 -1.515625 0.46875q-0.609375 0.453125 -0.609375 1.09375l-1.703125 0q0 -0.734375 0.515625 -1.421875q0.53125 -0.6875 1.421875 -1.078125q0.90625 -0.40625 1.984375 -0.40625q1.703125 0 2.671875 0.859375q0.96875 0.84375 1.0 2.328125l0 4.531252q0 1.359375 0.34375 2.171875l0 0.140625l-1.765625 0zm-2.796875 -1.28125q0.796875 0 1.5 -0.40625q0.71875 -0.421875 1.03125 -1.078125l0 -2.015625l-1.3125 0q-3.109375 0 -3.109375 1.8125q0 0.796875 0.53125 1.25q0.53125 0.4375 1.359375 0.4375zm8.460449 -8.578127l0.046875 1.234375q1.125 -1.40625 2.953125 -1.40625q3.125 0 3.15625 3.515625l0 6.515627l-1.6875 0l0 -6.515627q-0.015625 -1.078125 -0.5 -1.578125q-0.46875 -0.515625 -1.484375 -0.515625q-0.8125 0 -1.4375 0.4375q-0.609375 0.4375 -0.96875 1.15625l0 7.015627l-1.671875 0l0 -9.859377l1.59375 0zm10.528137 9.859377l-1.6875 0l0 -9.859377l1.6875 0l0 9.859377zm-1.828125 -12.468752q0 -0.40625 0.25 -0.6875q0.25 -0.296875 0.734375 -0.296875q0.5 0 0.75 0.296875q0.265625 0.28125 0.265625 0.6875q0 0.40625 -0.265625 0.6875q-0.25 0.265625 -0.75 0.265625q-0.484375 0 -0.734375 -0.265625q-0.25 -0.28125 -0.25 -0.6875zm8.60553 12.656252q-2.0 0 -3.265625 -1.3125q-1.25 -1.328125 -1.25 -3.53125l0 -0.3125q0 -1.4687519 0.5625 -2.609377q0.5625 -1.15625 1.5625 -1.796875q1.015625 -0.65625 2.1875 -0.65625q1.921875 0 2.984375 1.265625q1.0625 1.265625 1.0625 3.625002l0 0.6875l-6.671875 0q0.03125 1.46875 0.84375 2.375q0.828125 0.890625 2.078125 0.890625q0.890625 0 1.515625 -0.359375q0.625 -0.375 1.078125 -0.96875l1.03125 0.796875q-1.234375 1.90625 -3.71875 1.90625zm-0.203125 -8.843752q-1.015625 0 -1.71875 0.75q-0.6875 0.734375 -0.84375 2.078127l4.9375 0l0 -0.1250019q-0.078125 -1.28125 -0.703125 -1.984375q-0.609375 -0.71875 -1.671875 -0.71875z" fill-rule="nonzero"/></g><g filter="url(#shadowFilter-p.4)"><use xlink:href="#p.4" transform="matrix(1.0 0.0 0.0 1.0 0.0 2.0)"/></g><defs><filter id="shadowFilter-p.4" filterUnits="userSpaceOnUse"><feGaussianBlur in="SourceAlpha" stdDeviation="2.0" result="blur"/><feComponentTransfer in="blur" color-interpolation-filters="sRGB"><feFuncR type="linear" slope="0" intercept="0.0"/><feFuncG type="linear" slope="0" intercept="0.0"/><feFuncB type="linear" slope="0" intercept="0.0"/><feFuncA type="linear" slope="0.5" intercept="0"/></feComponentTransfer></filter></defs><g id="p.4"><path fill="#000000" fill-opacity="0.0" d="m38.850395 65.10499l36.25197 97.5118" fill-rule="evenodd"/><path stroke="#999999" stroke-width="1.0" stroke-linejoin="round" stroke-linecap="butt" stroke-dasharray="1.0,3.0" d="m38.850395 65.10499l36.25197 97.5118" fill-rule="evenodd"/></g><g filter="url(#shadowFilter-p.5)"><use xlink:href="#p.5" transform="matrix(1.0 0.0 0.0 1.0 0.0 2.0)"/></g><defs><filter id="shadowFilter-p.5" filterUnits="userSpaceOnUse"><feGaussianBlur in="SourceAlpha" stdDeviation="2.0" result="blur"/><feComponentTransfer in="blur" color-interpolation-filters="sRGB"><feFuncR type="linear" slope="0" intercept="0.0"/><feFuncG type="linear" slope="0" intercept="0.0"/><feFuncB type="linear" slope="0" intercept="0.0"/><feFuncA type="linear" slope="0.5" intercept="0"/></feComponentTransfer></filter></defs><g id="p.5"><path fill="#000000" fill-opacity="0.0" d="m38.850395 64.6063l72.50394 97.5118" fill-rule="evenodd"/><path stroke="#000000" stroke-width="1.0" stroke-linejoin="round" stroke-linecap="butt" d="m38.850395 64.6063l72.50394 97.5118" fill-rule="evenodd"/></g><g filter="url(#shadowFilter-p.6)"><use xlink:href="#p.6" transform="matrix(1.0 0.0 0.0 1.0 0.0 2.0)"/></g><defs><filter id="shadowFilter-p.6" filterUnits="userSpaceOnUse"><feGaussianBlur in="SourceAlpha" stdDeviation="2.0" result="blur"/><feComponentTransfer in="blur" color-interpolation-filters="sRGB"><feFuncR type="linear" slope="0" intercept="0.0"/><feFuncG type="linear" slope="0" intercept="0.0"/><feFuncB type="linear" slope="0" intercept="0.0"/><feFuncA type="linear" slope="0.5" intercept="0"/></feComponentTransfer></filter></defs><g id="p.6"><path fill="#000000" fill-opacity="0.0" d="m39.102364 64.6063l108.7559 98.74015" fill-rule="evenodd"/><path stroke="#999999" stroke-width="1.0" stroke-linejoin="round" stroke-linecap="butt" stroke-dasharray="1.0,3.0" d="m39.102364 64.6063l108.7559 98.74015" fill-rule="evenodd"/></g><g filter="url(#shadowFilter-p.7)"><use xlink:href="#p.7" transform="matrix(1.0 0.0 0.0 1.0 0.0 2.0)"/></g><defs><filter id="shadowFilter-p.7" filterUnits="userSpaceOnUse"><feGaussianBlur in="SourceAlpha" stdDeviation="2.0" result="blur"/><feComponentTransfer in="blur" color-interpolation-filters="sRGB"><feFuncR type="linear" slope="0" intercept="0.0"/><feFuncG type="linear" slope="0" intercept="0.0"/><feFuncB type="linear" slope="0" intercept="0.0"/><feFuncA type="linear" slope="0.5" intercept="0"/></feComponentTransfer></filter></defs><g id="p.7"><path fill="#000000" fill-opacity="0.0" d="m75.10236 65.10499l0 97.5118" fill-rule="evenodd"/><path stroke="#999999" stroke-width="1.0" stroke-linejoin="round" stroke-linecap="butt" stroke-dasharray="1.0,3.0" d="m75.10236 65.10499l0 97.5118" fill-rule="evenodd"/></g><g filter="url(#shadowFilter-p.8)"><use xlink:href="#p.8" transform="matrix(1.0 0.0 0.0 1.0 0.0 2.0)"/></g><defs><filter id="shadowFilter-p.8" filterUnits="userSpaceOnUse"><feGaussianBlur in="SourceAlpha" stdDeviation="2.0" result="blur"/><feComponentTransfer in="blur" color-interpolation-filters="sRGB"><feFuncR type="linear" slope="0" intercept="0.0"/><feFuncG type="linear" slope="0" intercept="0.0"/><feFuncB type="linear" slope="0" intercept="0.0"/><feFuncA type="linear" slope="0.5" intercept="0"/></feComponentTransfer></filter></defs><g id="p.8"><path fill="#000000" fill-opacity="0.0" d="m75.35171 64.855644l36.0 97.76377" fill-rule="evenodd"/><path stroke="#000000" stroke-width="1.0" stroke-linejoin="round" stroke-linecap="butt" d="m75.35171 64.855644l36.0 97.76377" fill-rule="evenodd"/></g><g filter="url(#shadowFilter-p.9)"><use xlink:href="#p.9" transform="matrix(1.0 0.0 0.0 1.0 0.0 2.0)"/></g><defs><filter id="shadowFilter-p.9" filterUnits="userSpaceOnUse"><feGaussianBlur in="SourceAlpha" stdDeviation="2.0" result="blur"/><feComponentTransfer in="blur" color-interpolation-filters="sRGB"><feFuncR type="linear" slope="0" intercept="0.0"/><feFuncG type="linear" slope="0" intercept="0.0"/><feFuncB type="linear" slope="0" intercept="0.0"/><feFuncA type="linear" slope="0.5" intercept="0"/></feComponentTransfer></filter></defs><g id="p.9"><path fill="#000000" fill-opacity="0.0" d="m75.10236 64.855644l72.50393 98.01574" fill-rule="evenodd"/><path stroke="#000000" stroke-width="1.0" stroke-linejoin="round" stroke-linecap="butt" d="m75.10236 64.855644l72.50393 98.01574" fill-rule="evenodd"/></g><g filter="url(#shadowFilter-p.10)"><use xlink:href="#p.10" transform="matrix(1.0 0.0 0.0 1.0 0.0 2.0)"/></g><defs><filter id="shadowFilter-p.10" filterUnits="userSpaceOnUse"><feGaussianBlur in="SourceAlpha" stdDeviation="2.0" result="blur"/><feComponentTransfer in="blur" color-interpolation-filters="sRGB"><feFuncR type="linear" slope="0" intercept="0.0"/><feFuncG type="linear" slope="0" intercept="0.0"/><feFuncB type="linear" slope="0" intercept="0.0"/><feFuncA type="linear" slope="0.5" intercept="0"/></feComponentTransfer></filter></defs><g id="p.10"><path fill="#000000" fill-opacity="0.0" d="m111.35171 65.35696l-36.503937 97.259834" fill-rule="evenodd"/><path stroke="#000000" stroke-width="1.0" stroke-linejoin="round" stroke-linecap="butt" d="m111.35171 65.35696l-36.503937 97.259834" fill-rule="evenodd"/></g><g filter="url(#shadowFilter-p.11)"><use xlink:href="#p.11" transform="matrix(1.0 0.0 0.0 1.0 0.0 2.0)"/></g><defs><filter id="shadowFilter-p.11" filterUnits="userSpaceOnUse"><feGaussianBlur in="SourceAlpha" stdDeviation="2.0" result="blur"/><feComponentTransfer in="blur" color-interpolation-filters="sRGB"><feFuncR type="linear" slope="0" intercept="0.0"/><feFuncG type="linear" slope="0" intercept="0.0"/><feFuncB type="linear" slope="0" intercept="0.0"/><feFuncA type="linear" slope="0.5" intercept="0"/></feComponentTransfer></filter></defs><g id="p.11"><path fill="#000000" fill-opacity="0.0" d="m111.35171 65.10499l-0.25196838 97.007866" fill-rule="evenodd"/><path stroke="#999999" stroke-width="1.0" stroke-linejoin="round" stroke-linecap="butt" stroke-dasharray="1.0,3.0" d="m111.35171 65.10499l-0.25196838 97.007866" fill-rule="evenodd"/></g><g filter="url(#shadowFilter-p.12)"><use xlink:href="#p.12" transform="matrix(1.0 0.0 0.0 1.0 0.0 2.0)"/></g><defs><filter id="shadowFilter-p.12" filterUnits="userSpaceOnUse"><feGaussianBlur in="SourceAlpha" stdDeviation="2.0" result="blur"/><feComponentTransfer in="blur" color-interpolation-filters="sRGB"><feFuncR type="linear" slope="0" intercept="0.0"/><feFuncG type="linear" slope="0" intercept="0.0"/><feFuncB type="linear" slope="0" intercept="0.0"/><feFuncA type="linear" slope="0.5" intercept="0"/></feComponentTransfer></filter></defs><g id="p.12"><path fill="#000000" fill-opacity="0.0" d="m111.35171 65.10499l36.25196 97.76377" fill-rule="evenodd"/><path stroke="#999999" stroke-width="1.0" stroke-linejoin="round" stroke-linecap="butt" stroke-dasharray="1.0,3.0" d="m111.35171 65.10499l36.25196 97.76377" fill-rule="evenodd"/></g><g filter="url(#shadowFilter-p.13)"><use xlink:href="#p.13" transform="matrix(1.0 0.0 0.0 1.0 0.0 2.0)"/></g><defs><filter id="shadowFilter-p.13" filterUnits="userSpaceOnUse"><feGaussianBlur in="SourceAlpha" stdDeviation="2.0" result="blur"/><feComponentTransfer in="blur" color-interpolation-filters="sRGB"><feFuncR type="linear" slope="0" intercept="0.0"/><feFuncG type="linear" slope="0" intercept="0.0"/><feFuncB type="linear" slope="0" intercept="0.0"/><feFuncA type="linear" slope="0.5" intercept="0"/></feComponentTransfer></filter></defs><g id="p.13"><path fill="#000000" fill-opacity="0.0" d="m147.60104 65.10499l-72.7559 97.76377" fill-rule="evenodd"/><path stroke="#000000" stroke-width="1.0" stroke-linejoin="round" stroke-linecap="butt" d="m147.60104 65.10499l-72.7559 97.76377" fill-rule="evenodd"/></g><g filter="url(#shadowFilter-p.14)"><use xlink:href="#p.14" transform="matrix(1.0 0.0 0.0 1.0 0.0 2.0)"/></g><defs><filter id="shadowFilter-p.14" filterUnits="userSpaceOnUse"><feGaussianBlur in="SourceAlpha" stdDeviation="2.0" result="blur"/><feComponentTransfer in="blur" color-interpolation-filters="sRGB"><feFuncR type="linear" slope="0" intercept="0.0"/><feFuncG type="linear" slope="0" intercept="0.0"/><feFuncB type="linear" slope="0" intercept="0.0"/><feFuncA type="linear" slope="0.5" intercept="0"/></feComponentTransfer></filter></defs><g id="p.14"><path fill="#000000" fill-opacity="0.0" d="m147.85039 65.10499l-36.755898 97.007866" fill-rule="evenodd"/><path stroke="#999999" stroke-width="1.0" stroke-linejoin="round" stroke-linecap="butt" stroke-dasharray="1.0,3.0" d="m147.85039 65.10499l-36.755898 97.007866" fill-rule="evenodd"/></g><g filter="url(#shadowFilter-p.15)"><use xlink:href="#p.15" transform="matrix(1.0 0.0 0.0 1.0 0.0 2.0)"/></g><defs><filter id="shadowFilter-p.15" filterUnits="userSpaceOnUse"><feGaussianBlur in="SourceAlpha" stdDeviation="2.0" result="blur"/><feComponentTransfer in="blur" color-interpolation-filters="sRGB"><feFuncR type="linear" slope="0" intercept="0.0"/><feFuncG type="linear" slope="0" intercept="0.0"/><feFuncB type="linear" slope="0" intercept="0.0"/><feFuncA type="linear" slope="0.5" intercept="0"/></feComponentTransfer></filter></defs><g id="p.15"><path fill="#000000" fill-opacity="0.0" d="m147.85039 64.6063l-0.25196838 98.48818" fill-rule="evenodd"/><path stroke="#000000" stroke-width="1.0" stroke-linejoin="round" stroke-linecap="butt" d="m147.85039 64.6063l-0.25196838 98.48818" fill-rule="evenodd"/></g><g filter="url(#shadowFilter-p.16)"><use xlink:href="#p.16" transform="matrix(1.0 0.0 0.0 1.0 0.0 2.0)"/></g><defs><filter id="shadowFilter-p.16" filterUnits="userSpaceOnUse"><feGaussianBlur in="SourceAlpha" stdDeviation="2.0" result="blur"/><feComponentTransfer in="blur" color-interpolation-filters="sRGB"><feFuncR type="linear" slope="0" intercept="0.0"/><feFuncG type="linear" slope="0" intercept="0.0"/><feFuncB type="linear" slope="0" intercept="0.0"/><feFuncA type="linear" slope="0.5" intercept="0"/></feComponentTransfer></filter></defs><g id="p.16"><path fill="#000000" fill-opacity="0.0" d="m183.85039 65.10499l-108.50393 97.5118" fill-rule="evenodd"/><path stroke="#000000" stroke-width="1.0" stroke-linejoin="round" stroke-linecap="butt" d="m183.85039 65.10499l-108.50393 97.5118" fill-rule="evenodd"/></g><g filter="url(#shadowFilter-p.17)"><use xlink:href="#p.17" transform="matrix(1.0 0.0 0.0 1.0 0.0 2.0)"/></g><defs><filter id="shadowFilter-p.17" filterUnits="userSpaceOnUse"><feGaussianBlur in="SourceAlpha" stdDeviation="2.0" result="blur"/><feComponentTransfer in="blur" color-interpolation-filters="sRGB"><feFuncR type="linear" slope="0" intercept="0.0"/><feFuncG type="linear" slope="0" intercept="0.0"/><feFuncB type="linear" slope="0" intercept="0.0"/><feFuncA type="linear" slope="0.5" intercept="0"/></feComponentTransfer></filter></defs><g id="p.17"><path fill="#000000" fill-opacity="0.0" d="m184.10236 64.855644l-72.7559 97.007866" fill-rule="evenodd"/><path stroke="#999999" stroke-width="1.0" stroke-linejoin="round" stroke-linecap="butt" stroke-dasharray="1.0,3.0" d="m184.10236 64.855644l-72.7559 97.007866" fill-rule="evenodd"/></g><g filter="url(#shadowFilter-p.18)"><use xlink:href="#p.18" transform="matrix(1.0 0.0 0.0 1.0 0.0 2.0)"/></g><defs><filter id="shadowFilter-p.18" filterUnits="userSpaceOnUse"><feGaussianBlur in="SourceAlpha" stdDeviation="2.0" result="blur"/><feComponentTransfer in="blur" color-interpolation-filters="sRGB"><feFuncR type="linear" slope="0" intercept="0.0"/><feFuncG type="linear" slope="0" intercept="0.0"/><feFuncB type="linear" slope="0" intercept="0.0"/><feFuncA type="linear" slope="0.5" intercept="0"/></feComponentTransfer></filter></defs><g id="p.18"><path fill="#000000" fill-opacity="0.0" d="m184.60104 64.855644l-36.755905 98.48818" fill-rule="evenodd"/><path stroke="#999999" stroke-width="1.0" stroke-linejoin="round" stroke-linecap="butt" stroke-dasharray="1.0,3.0" d="m184.60104 64.855644l-36.755905 98.48818" fill-rule="evenodd"/></g><g filter="url(#shadowFilter-p.19)"><use xlink:href="#p.19" transform="matrix(1.0 0.0 0.0 1.0 0.0 2.0)"/></g><defs><filter id="shadowFilter-p.19" filterUnits="userSpaceOnUse"><feGaussianBlur in="SourceAlpha" stdDeviation="2.0" result="blur"/><feComponentTransfer in="blur" color-interpolation-filters="sRGB"><feFuncR type="linear" slope="0" intercept="0.0"/><feFuncG type="linear" slope="0" intercept="0.0"/><feFuncB type="linear" slope="0" intercept="0.0"/><feFuncA type="linear" slope="0.5" intercept="0"/></feComponentTransfer></filter></defs><g id="p.19"><path fill="#cfe2f3" d="m26.711287 65.10236l0 0c0 -6.688301 5.421938 -12.110237 12.110235 -12.110237l0 0c3.211834 0 6.292122 1.2758942 8.563232 3.5470047c2.2711067 2.2711105 3.5470047 5.3513985 3.5470047 8.563232l0 0c0 6.688301 -5.421936 12.110237 -12.110237 12.110237l0 0c-6.6882973 0 -12.110235 -5.421936 -12.110235 -12.110237z" fill-rule="evenodd"/><path stroke="#000000" stroke-width="1.0" stroke-linejoin="round" stroke-linecap="butt" d="m26.711287 65.10236l0 0c0 -6.688301 5.421938 -12.110237 12.110235 -12.110237l0 0c3.211834 0 6.292122 1.2758942 8.563232 3.5470047c2.2711067 2.2711105 3.5470047 5.3513985 3.5470047 8.563232l0 0c0 6.688301 -5.421936 12.110237 -12.110237 12.110237l0 0c-6.6882973 0 -12.110235 -5.421936 -12.110235 -12.110237z" fill-rule="evenodd"/></g><g filter="url(#shadowFilter-p.20)"><use xlink:href="#p.20" transform="matrix(1.0 0.0 0.0 1.0 0.0 2.0)"/></g><defs><filter id="shadowFilter-p.20" filterUnits="userSpaceOnUse"><feGaussianBlur in="SourceAlpha" stdDeviation="2.0" result="blur"/><feComponentTransfer in="blur" color-interpolation-filters="sRGB"><feFuncR type="linear" slope="0" intercept="0.0"/><feFuncG type="linear" slope="0" intercept="0.0"/><feFuncB type="linear" slope="0" intercept="0.0"/><feFuncA type="linear" slope="0.5" intercept="0"/></feComponentTransfer></filter></defs><g id="p.20"><path fill="#cfe2f3" d="m98.961945 65.10236l0 0c0 -6.688301 5.421936 -12.110237 12.110237 -12.110237l0 0c3.2118301 0 6.2921143 1.2758942 8.563225 3.5470047c2.2711105 2.2711105 3.5470047 5.3513985 3.5470047 8.563232l0 0c0 6.688301 -5.421936 12.110237 -12.1102295 12.110237l0 0c-6.688301 0 -12.110237 -5.421936 -12.110237 -12.110237z" fill-rule="evenodd"/><path stroke="#000000" stroke-width="1.0" stroke-linejoin="round" stroke-linecap="butt" d="m98.961945 65.10236l0 0c0 -6.688301 5.421936 -12.110237 12.110237 -12.110237l0 0c3.2118301 0 6.2921143 1.2758942 8.563225 3.5470047c2.2711105 2.2711105 3.5470047 5.3513985 3.5470047 8.563232l0 0c0 6.688301 -5.421936 12.110237 -12.1102295 12.110237l0 0c-6.688301 0 -12.110237 -5.421936 -12.110237 -12.110237z" fill-rule="evenodd"/></g><g filter="url(#shadowFilter-p.21)"><use xlink:href="#p.21" transform="matrix(1.0 0.0 0.0 1.0 0.0 2.0)"/></g><defs><filter id="shadowFilter-p.21" filterUnits="userSpaceOnUse"><feGaussianBlur in="SourceAlpha" stdDeviation="2.0" result="blur"/><feComponentTransfer in="blur" color-interpolation-filters="sRGB"><feFuncR type="linear" slope="0" intercept="0.0"/><feFuncG type="linear" slope="0" intercept="0.0"/><feFuncB type="linear" slope="0" intercept="0.0"/><feFuncA type="linear" slope="0.5" intercept="0"/></feComponentTransfer></filter></defs><g id="p.21"><path fill="#cfe2f3" d="m135.08727 65.10236l0 0c0 -6.688301 5.421936 -12.110237 12.110245 -12.110237l0 0c3.2118378 0 6.2921143 1.2758942 8.563232 3.5470047c2.271103 2.2711105 3.546997 5.3513985 3.546997 8.563232l0 0c0 6.688301 -5.421936 12.110237 -12.1102295 12.110237l0 0c-6.6883087 0 -12.110245 -5.421936 -12.110245 -12.110237z" fill-rule="evenodd"/><path stroke="#000000" stroke-width="1.0" stroke-linejoin="round" stroke-linecap="butt" d="m135.08727 65.10236l0 0c0 -6.688301 5.421936 -12.110237 12.110245 -12.110237l0 0c3.2118378 0 6.2921143 1.2758942 8.563232 3.5470047c2.271103 2.2711105 3.546997 5.3513985 3.546997 8.563232l0 0c0 6.688301 -5.421936 12.110237 -12.1102295 12.110237l0 0c-6.6883087 0 -12.110245 -5.421936 -12.110245 -12.110237z" fill-rule="evenodd"/></g><g filter="url(#shadowFilter-p.22)"><use xlink:href="#p.22" transform="matrix(1.0 0.0 0.0 1.0 0.0 2.0)"/></g><defs><filter id="shadowFilter-p.22" filterUnits="userSpaceOnUse"><feGaussianBlur in="SourceAlpha" stdDeviation="2.0" result="blur"/><feComponentTransfer in="blur" color-interpolation-filters="sRGB"><feFuncR type="linear" slope="0" intercept="0.0"/><feFuncG type="linear" slope="0" intercept="0.0"/><feFuncB type="linear" slope="0" intercept="0.0"/><feFuncA type="linear" slope="0.5" intercept="0"/></feComponentTransfer></filter></defs><g id="p.22"><path fill="#cfe2f3" d="m171.2126 65.10236l0 0c0 -6.688301 5.421936 -12.110237 12.1102295 -12.110237l0 0c3.2118378 0 6.2921295 1.2758942 8.563232 3.5470047c2.2711182 2.2711105 3.5470123 5.3513985 3.5470123 8.563232l0 0c0 6.688301 -5.421936 12.110237 -12.110245 12.110237l0 0c-6.6882935 0 -12.1102295 -5.421936 -12.1102295 -12.110237z" fill-rule="evenodd"/><path stroke="#000000" stroke-width="1.0" stroke-linejoin="round" stroke-linecap="butt" d="m171.2126 65.10236l0 0c0 -6.688301 5.421936 -12.110237 12.1102295 -12.110237l0 0c3.2118378 0 6.2921295 1.2758942 8.563232 3.5470047c2.2711182 2.2711105 3.5470123 5.3513985 3.5470123 8.563232l0 0c0 6.688301 -5.421936 12.110237 -12.110245 12.110237l0 0c-6.6882935 0 -12.1102295 -5.421936 -12.1102295 -12.110237z" fill-rule="evenodd"/></g><g filter="url(#shadowFilter-p.23)"><use xlink:href="#p.23" transform="matrix(1.0 0.0 0.0 1.0 0.0 2.0)"/></g><defs><filter id="shadowFilter-p.23" filterUnits="userSpaceOnUse"><feGaussianBlur in="SourceAlpha" stdDeviation="2.0" result="blur"/><feComponentTransfer in="blur" color-interpolation-filters="sRGB"><feFuncR type="linear" slope="0" intercept="0.0"/><feFuncG type="linear" slope="0" intercept="0.0"/><feFuncB type="linear" slope="0" intercept="0.0"/><feFuncA type="linear" slope="0.5" intercept="0"/></feComponentTransfer></filter></defs><g id="p.23"><path fill="#cfe2f3" d="m62.836613 65.10236l0 0c0 -6.688301 5.42194 -12.110237 12.110241 -12.110237l0 0c3.2118301 0 6.2921143 1.2758942 8.563225 3.5470047c2.2711105 2.2711105 3.5470047 5.3513985 3.5470047 8.563232l0 0c0 6.688301 -5.421936 12.110237 -12.1102295 12.110237l0 0c-6.688301 0 -12.110241 -5.421936 -12.110241 -12.110237z" fill-rule="evenodd"/><path stroke="#000000" stroke-width="1.0" stroke-linejoin="round" stroke-linecap="butt" d="m62.836613 65.10236l0 0c0 -6.688301 5.42194 -12.110237 12.110241 -12.110237l0 0c3.2118301 0 6.2921143 1.2758942 8.563225 3.5470047c2.2711105 2.2711105 3.5470047 5.3513985 3.5470047 8.563232l0 0c0 6.688301 -5.421936 12.110237 -12.1102295 12.110237l0 0c-6.688301 0 -12.110241 -5.421936 -12.110241 -12.110237z" fill-rule="evenodd"/></g><g filter="url(#shadowFilter-p.24)"><use xlink:href="#p.24" transform="matrix(1.0 0.0 0.0 1.0 0.0 2.0)"/></g><defs><filter id="shadowFilter-p.24" filterUnits="userSpaceOnUse"><feGaussianBlur in="SourceAlpha" stdDeviation="2.0" result="blur"/><feComponentTransfer in="blur" color-interpolation-filters="sRGB"><feFuncR type="linear" slope="0" intercept="0.0"/><feFuncG type="linear" slope="0" intercept="0.0"/><feFuncB type="linear" slope="0" intercept="0.0"/><feFuncA type="linear" slope="0.5" intercept="0"/></feComponentTransfer></filter></defs><g id="p.24"><path fill="#cfe2f3" d="m62.83727 162.09973l0 0c0 -6.6882935 5.42194 -12.1102295 12.110241 -12.1102295l0 0c3.2118301 0 6.2921143 1.2758942 8.563225 3.5470123c2.2711105 2.271103 3.5470047 5.3513947 3.5470047 8.563217l0 0c0 6.6883087 -5.421936 12.110245 -12.1102295 12.110245l0 0c-6.688301 0 -12.110241 -5.421936 -12.110241 -12.110245z" fill-rule="evenodd"/><path stroke="#000000" stroke-width="1.0" stroke-linejoin="round" stroke-linecap="butt" d="m62.83727 162.09973l0 0c0 -6.6882935 5.42194 -12.1102295 12.110241 -12.1102295l0 0c3.2118301 0 6.2921143 1.2758942 8.563225 3.5470123c2.2711105 2.271103 3.5470047 5.3513947 3.5470047 8.563217l0 0c0 6.6883087 -5.421936 12.110245 -12.1102295 12.110245l0 0c-6.688301 0 -12.110241 -5.421936 -12.110241 -12.110245z" fill-rule="evenodd"/></g><g filter="url(#shadowFilter-p.25)"><use xlink:href="#p.25" transform="matrix(1.0 0.0 0.0 1.0 0.0 2.0)"/></g><defs><filter id="shadowFilter-p.25" filterUnits="userSpaceOnUse"><feGaussianBlur in="SourceAlpha" stdDeviation="2.0" result="blur"/><feComponentTransfer in="blur" color-interpolation-filters="sRGB"><feFuncR type="linear" slope="0" intercept="0.0"/><feFuncG type="linear" slope="0" intercept="0.0"/><feFuncB type="linear" slope="0" intercept="0.0"/><feFuncA type="linear" slope="0.5" intercept="0"/></feComponentTransfer></filter></defs><g id="p.25"><path fill="#cfe2f3" d="m98.9626 162.09973l0 0c0 -6.6882935 5.421936 -12.1102295 12.110237 -12.1102295l0 0c3.2118301 0 6.2921143 1.2758942 8.563225 3.5470123c2.2711105 2.271103 3.5470047 5.3513947 3.5470047 8.563217l0 0c0 6.6883087 -5.421936 12.110245 -12.1102295 12.110245l0 0c-6.688301 0 -12.110237 -5.421936 -12.110237 -12.110245z" fill-rule="evenodd"/><path stroke="#000000" stroke-width="1.0" stroke-linejoin="round" stroke-linecap="butt" d="m98.9626 162.09973l0 0c0 -6.6882935 5.421936 -12.1102295 12.110237 -12.1102295l0 0c3.2118301 0 6.2921143 1.2758942 8.563225 3.5470123c2.2711105 2.271103 3.5470047 5.3513947 3.5470047 8.563217l0 0c0 6.6883087 -5.421936 12.110245 -12.1102295 12.110245l0 0c-6.688301 0 -12.110237 -5.421936 -12.110237 -12.110245z" fill-rule="evenodd"/></g><g filter="url(#shadowFilter-p.26)"><use xlink:href="#p.26" transform="matrix(1.0 0.0 0.0 1.0 0.0 2.0)"/></g><defs><filter id="shadowFilter-p.26" filterUnits="userSpaceOnUse"><feGaussianBlur in="SourceAlpha" stdDeviation="2.0" result="blur"/><feComponentTransfer in="blur" color-interpolation-filters="sRGB"><feFuncR type="linear" slope="0" intercept="0.0"/><feFuncG type="linear" slope="0" intercept="0.0"/><feFuncB type="linear" slope="0" intercept="0.0"/><feFuncA type="linear" slope="0.5" intercept="0"/></feComponentTransfer></filter></defs><g id="p.26"><path fill="#cfe2f3" d="m135.08792 162.09973l0 0c0 -6.6882935 5.421936 -12.1102295 12.110245 -12.1102295l0 0c3.2118378 0 6.2921143 1.2758942 8.563232 3.5470123c2.271103 2.271103 3.546997 5.3513947 3.546997 8.563217l0 0c0 6.6883087 -5.421936 12.110245 -12.1102295 12.110245l0 0c-6.6883087 0 -12.110245 -5.421936 -12.110245 -12.110245z" fill-rule="evenodd"/><path stroke="#000000" stroke-width="1.0" stroke-linejoin="round" stroke-linecap="butt" d="m135.08792 162.09973l0 0c0 -6.6882935 5.421936 -12.1102295 12.110245 -12.1102295l0 0c3.2118378 0 6.2921143 1.2758942 8.563232 3.5470123c2.271103 2.271103 3.546997 5.3513947 3.546997 8.563217l0 0c0 6.6883087 -5.421936 12.110245 -12.1102295 12.110245l0 0c-6.6883087 0 -12.110245 -5.421936 -12.110245 -12.110245z" fill-rule="evenodd"/></g><g filter="url(#shadowFilter-p.27)"><use xlink:href="#p.27" transform="matrix(1.0 0.0 0.0 1.0 0.0 2.0)"/></g><defs><filter id="shadowFilter-p.27" filterUnits="userSpaceOnUse"><feGaussianBlur in="SourceAlpha" stdDeviation="2.0" result="blur"/><feComponentTransfer in="blur" color-interpolation-filters="sRGB"><feFuncR type="linear" slope="0" intercept="0.0"/><feFuncG type="linear" slope="0" intercept="0.0"/><feFuncB type="linear" slope="0" intercept="0.0"/><feFuncA type="linear" slope="0.5" intercept="0"/></feComponentTransfer></filter></defs><g id="p.27"><path fill="#000000" fill-opacity="0.0" d="m243.6076 65.10499l36.251984 97.5118" fill-rule="evenodd"/><path stroke="#999999" stroke-width="1.0" stroke-linejoin="round" stroke-linecap="butt" stroke-dasharray="1.0,3.0" d="m243.6076 65.10499l36.251984 97.5118" fill-rule="evenodd"/></g><g filter="url(#shadowFilter-p.28)"><use xlink:href="#p.28" transform="matrix(1.0 0.0 0.0 1.0 0.0 2.0)"/></g><defs><filter id="shadowFilter-p.28" filterUnits="userSpaceOnUse"><feGaussianBlur in="SourceAlpha" stdDeviation="2.0" result="blur"/><feComponentTransfer in="blur" color-interpolation-filters="sRGB"><feFuncR type="linear" slope="0" intercept="0.0"/><feFuncG type="linear" slope="0" intercept="0.0"/><feFuncB type="linear" slope="0" intercept="0.0"/><feFuncA type="linear" slope="0.5" intercept="0"/></feComponentTransfer></filter></defs><g id="p.28"><path fill="#000000" fill-opacity="0.0" d="m243.6076 64.6063l72.50394 97.5118" fill-rule="evenodd"/><path stroke="#000000" stroke-width="1.0" stroke-linejoin="round" stroke-linecap="butt" d="m243.6076 64.6063l72.50394 97.5118" fill-rule="evenodd"/></g><g filter="url(#shadowFilter-p.29)"><use xlink:href="#p.29" transform="matrix(1.0 0.0 0.0 1.0 0.0 2.0)"/></g><defs><filter id="shadowFilter-p.29" filterUnits="userSpaceOnUse"><feGaussianBlur in="SourceAlpha" stdDeviation="2.0" result="blur"/><feComponentTransfer in="blur" color-interpolation-filters="sRGB"><feFuncR type="linear" slope="0" intercept="0.0"/><feFuncG type="linear" slope="0" intercept="0.0"/><feFuncB type="linear" slope="0" intercept="0.0"/><feFuncA type="linear" slope="0.5" intercept="0"/></feComponentTransfer></filter></defs><g id="p.29"><path fill="#000000" fill-opacity="0.0" d="m243.85957 64.6063l108.755905 98.74015" fill-rule="evenodd"/><path stroke="#000000" stroke-width="1.0" stroke-linejoin="round" stroke-linecap="butt" d="m243.85957 64.6063l108.755905 98.74015" fill-rule="evenodd"/></g><g filter="url(#shadowFilter-p.30)"><use xlink:href="#p.30" transform="matrix(1.0 0.0 0.0 1.0 0.0 2.0)"/></g><defs><filter id="shadowFilter-p.30" filterUnits="userSpaceOnUse"><feGaussianBlur in="SourceAlpha" stdDeviation="2.0" result="blur"/><feComponentTransfer in="blur" color-interpolation-filters="sRGB"><feFuncR type="linear" slope="0" intercept="0.0"/><feFuncG type="linear" slope="0" intercept="0.0"/><feFuncB type="linear" slope="0" intercept="0.0"/><feFuncA type="linear" slope="0.5" intercept="0"/></feComponentTransfer></filter></defs><g id="p.30"><path fill="#000000" fill-opacity="0.0" d="m279.8596 65.10499l0 97.5118" fill-rule="evenodd"/><path stroke="#000000" stroke-width="1.0" stroke-linejoin="round" stroke-linecap="butt" d="m279.8596 65.10499l0 97.5118" fill-rule="evenodd"/></g><g filter="url(#shadowFilter-p.31)"><use xlink:href="#p.31" transform="matrix(1.0 0.0 0.0 1.0 0.0 2.0)"/></g><defs><filter id="shadowFilter-p.31" filterUnits="userSpaceOnUse"><feGaussianBlur in="SourceAlpha" stdDeviation="2.0" result="blur"/><feComponentTransfer in="blur" color-interpolation-filters="sRGB"><feFuncR type="linear" slope="0" intercept="0.0"/><feFuncG type="linear" slope="0" intercept="0.0"/><feFuncB type="linear" slope="0" intercept="0.0"/><feFuncA type="linear" slope="0.5" intercept="0"/></feComponentTransfer></filter></defs><g id="p.31"><path fill="#000000" fill-opacity="0.0" d="m280.10892 64.855644l36.0 97.76377" fill-rule="evenodd"/><path stroke="#999999" stroke-width="1.0" stroke-linejoin="round" stroke-linecap="butt" stroke-dasharray="1.0,3.0" d="m280.10892 64.855644l36.0 97.76377" fill-rule="evenodd"/></g><g filter="url(#shadowFilter-p.32)"><use xlink:href="#p.32" transform="matrix(1.0 0.0 0.0 1.0 0.0 2.0)"/></g><defs><filter id="shadowFilter-p.32" filterUnits="userSpaceOnUse"><feGaussianBlur in="SourceAlpha" stdDeviation="2.0" result="blur"/><feComponentTransfer in="blur" color-interpolation-filters="sRGB"><feFuncR type="linear" slope="0" intercept="0.0"/><feFuncG type="linear" slope="0" intercept="0.0"/><feFuncB type="linear" slope="0" intercept="0.0"/><feFuncA type="linear" slope="0.5" intercept="0"/></feComponentTransfer></filter></defs><g id="p.32"><path fill="#000000" fill-opacity="0.0" d="m279.8596 64.855644l72.50394 98.01574" fill-rule="evenodd"/><path stroke="#000000" stroke-width="1.0" stroke-linejoin="round" stroke-linecap="butt" d="m279.8596 64.855644l72.50394 98.01574" fill-rule="evenodd"/></g><g filter="url(#shadowFilter-p.33)"><use xlink:href="#p.33" transform="matrix(1.0 0.0 0.0 1.0 0.0 2.0)"/></g><defs><filter id="shadowFilter-p.33" filterUnits="userSpaceOnUse"><feGaussianBlur in="SourceAlpha" stdDeviation="2.0" result="blur"/><feComponentTransfer in="blur" color-interpolation-filters="sRGB"><feFuncR type="linear" slope="0" intercept="0.0"/><feFuncG type="linear" slope="0" intercept="0.0"/><feFuncB type="linear" slope="0" intercept="0.0"/><feFuncA type="linear" slope="0.5" intercept="0"/></feComponentTransfer></filter></defs><g id="p.33"><path fill="#000000" fill-opacity="0.0" d="m316.10892 65.35696l-36.503937 97.259834" fill-rule="evenodd"/><path stroke="#999999" stroke-width="1.0" stroke-linejoin="round" stroke-linecap="butt" stroke-dasharray="1.0,3.0" d="m316.10892 65.35696l-36.503937 97.259834" fill-rule="evenodd"/></g><g filter="url(#shadowFilter-p.34)"><use xlink:href="#p.34" transform="matrix(1.0 0.0 0.0 1.0 0.0 2.0)"/></g><defs><filter id="shadowFilter-p.34" filterUnits="userSpaceOnUse"><feGaussianBlur in="SourceAlpha" stdDeviation="2.0" result="blur"/><feComponentTransfer in="blur" color-interpolation-filters="sRGB"><feFuncR type="linear" slope="0" intercept="0.0"/><feFuncG type="linear" slope="0" intercept="0.0"/><feFuncB type="linear" slope="0" intercept="0.0"/><feFuncA type="linear" slope="0.5" intercept="0"/></feComponentTransfer></filter></defs><g id="p.34"><path fill="#000000" fill-opacity="0.0" d="m316.10892 65.10499l-0.25195312 97.007866" fill-rule="evenodd"/><path stroke="#999999" stroke-width="1.0" stroke-linejoin="round" stroke-linecap="butt" stroke-dasharray="1.0,3.0" d="m316.10892 65.10499l-0.25195312 97.007866" fill-rule="evenodd"/></g><g filter="url(#shadowFilter-p.35)"><use xlink:href="#p.35" transform="matrix(1.0 0.0 0.0 1.0 0.0 2.0)"/></g><defs><filter id="shadowFilter-p.35" filterUnits="userSpaceOnUse"><feGaussianBlur in="SourceAlpha" stdDeviation="2.0" result="blur"/><feComponentTransfer in="blur" color-interpolation-filters="sRGB"><feFuncR type="linear" slope="0" intercept="0.0"/><feFuncG type="linear" slope="0" intercept="0.0"/><feFuncB type="linear" slope="0" intercept="0.0"/><feFuncA type="linear" slope="0.5" intercept="0"/></feComponentTransfer></filter></defs><g id="p.35"><path fill="#000000" fill-opacity="0.0" d="m316.10892 65.10499l36.251984 97.76377" fill-rule="evenodd"/><path stroke="#000000" stroke-width="1.0" stroke-linejoin="round" stroke-linecap="butt" d="m316.10892 65.10499l36.251984 97.76377" fill-rule="evenodd"/></g><g filter="url(#shadowFilter-p.36)"><use xlink:href="#p.36" transform="matrix(1.0 0.0 0.0 1.0 0.0 2.0)"/></g><defs><filter id="shadowFilter-p.36" filterUnits="userSpaceOnUse"><feGaussianBlur in="SourceAlpha" stdDeviation="2.0" result="blur"/><feComponentTransfer in="blur" color-interpolation-filters="sRGB"><feFuncR type="linear" slope="0" intercept="0.0"/><feFuncG type="linear" slope="0" intercept="0.0"/><feFuncB type="linear" slope="0" intercept="0.0"/><feFuncA type="linear" slope="0.5" intercept="0"/></feComponentTransfer></filter></defs><g id="p.36"><path fill="#000000" fill-opacity="0.0" d="m352.35828 65.10499l-72.75592 97.76377" fill-rule="evenodd"/><path stroke="#000000" stroke-width="1.0" stroke-linejoin="round" stroke-linecap="butt" d="m352.35828 65.10499l-72.75592 97.76377" fill-rule="evenodd"/></g><g filter="url(#shadowFilter-p.37)"><use xlink:href="#p.37" transform="matrix(1.0 0.0 0.0 1.0 0.0 2.0)"/></g><defs><filter id="shadowFilter-p.37" filterUnits="userSpaceOnUse"><feGaussianBlur in="SourceAlpha" stdDeviation="2.0" result="blur"/><feComponentTransfer in="blur" color-interpolation-filters="sRGB"><feFuncR type="linear" slope="0" intercept="0.0"/><feFuncG type="linear" slope="0" intercept="0.0"/><feFuncB type="linear" slope="0" intercept="0.0"/><feFuncA type="linear" slope="0.5" intercept="0"/></feComponentTransfer></filter></defs><g id="p.37"><path fill="#000000" fill-opacity="0.0" d="m352.6076 65.10499l-36.75589 97.007866" fill-rule="evenodd"/><path stroke="#999999" stroke-width="1.0" stroke-linejoin="round" stroke-linecap="butt" stroke-dasharray="1.0,3.0" d="m352.6076 65.10499l-36.75589 97.007866" fill-rule="evenodd"/></g><g filter="url(#shadowFilter-p.38)"><use xlink:href="#p.38" transform="matrix(1.0 0.0 0.0 1.0 0.0 2.0)"/></g><defs><filter id="shadowFilter-p.38" filterUnits="userSpaceOnUse"><feGaussianBlur in="SourceAlpha" stdDeviation="2.0" result="blur"/><feComponentTransfer in="blur" color-interpolation-filters="sRGB"><feFuncR type="linear" slope="0" intercept="0.0"/><feFuncG type="linear" slope="0" intercept="0.0"/><feFuncB type="linear" slope="0" intercept="0.0"/><feFuncA type="linear" slope="0.5" intercept="0"/></feComponentTransfer></filter></defs><g id="p.38"><path fill="#000000" fill-opacity="0.0" d="m352.6076 64.6063l-0.25195312 98.48818" fill-rule="evenodd"/><path stroke="#999999" stroke-width="1.0" stroke-linejoin="round" stroke-linecap="butt" stroke-dasharray="1.0,3.0" d="m352.6076 64.6063l-0.25195312 98.48818" fill-rule="evenodd"/></g><g filter="url(#shadowFilter-p.39)"><use xlink:href="#p.39" transform="matrix(1.0 0.0 0.0 1.0 0.0 2.0)"/></g><defs><filter id="shadowFilter-p.39" filterUnits="userSpaceOnUse"><feGaussianBlur in="SourceAlpha" stdDeviation="2.0" result="blur"/><feComponentTransfer in="blur" color-interpolation-filters="sRGB"><feFuncR type="linear" slope="0" intercept="0.0"/><feFuncG type="linear" slope="0" intercept="0.0"/><feFuncB type="linear" slope="0" intercept="0.0"/><feFuncA type="linear" slope="0.5" intercept="0"/></feComponentTransfer></filter></defs><g id="p.39"><path fill="#000000" fill-opacity="0.0" d="m388.6076 65.10499l-108.50394 97.5118" fill-rule="evenodd"/><path stroke="#000000" stroke-width="1.0" stroke-linejoin="round" stroke-linecap="butt" d="m388.6076 65.10499l-108.50394 97.5118" fill-rule="evenodd"/></g><g filter="url(#shadowFilter-p.40)"><use xlink:href="#p.40" transform="matrix(1.0 0.0 0.0 1.0 0.0 2.0)"/></g><defs><filter id="shadowFilter-p.40" filterUnits="userSpaceOnUse"><feGaussianBlur in="SourceAlpha" stdDeviation="2.0" result="blur"/><feComponentTransfer in="blur" color-interpolation-filters="sRGB"><feFuncR type="linear" slope="0" intercept="0.0"/><feFuncG type="linear" slope="0" intercept="0.0"/><feFuncB type="linear" slope="0" intercept="0.0"/><feFuncA type="linear" slope="0.5" intercept="0"/></feComponentTransfer></filter></defs><g id="p.40"><path fill="#000000" fill-opacity="0.0" d="m388.8596 64.855644l-72.75592 97.007866" fill-rule="evenodd"/><path stroke="#999999" stroke-width="1.0" stroke-linejoin="round" stroke-linecap="butt" stroke-dasharray="1.0,3.0" d="m388.8596 64.855644l-72.75592 97.007866" fill-rule="evenodd"/></g><g filter="url(#shadowFilter-p.41)"><use xlink:href="#p.41" transform="matrix(1.0 0.0 0.0 1.0 0.0 2.0)"/></g><defs><filter id="shadowFilter-p.41" filterUnits="userSpaceOnUse"><feGaussianBlur in="SourceAlpha" stdDeviation="2.0" result="blur"/><feComponentTransfer in="blur" color-interpolation-filters="sRGB"><feFuncR type="linear" slope="0" intercept="0.0"/><feFuncG type="linear" slope="0" intercept="0.0"/><feFuncB type="linear" slope="0" intercept="0.0"/><feFuncA type="linear" slope="0.5" intercept="0"/></feComponentTransfer></filter></defs><g id="p.41"><path fill="#000000" fill-opacity="0.0" d="m389.35828 64.855644l-36.75592 98.48818" fill-rule="evenodd"/><path stroke="#000000" stroke-width="1.0" stroke-linejoin="round" stroke-linecap="butt" d="m389.35828 64.855644l-36.75592 98.48818" fill-rule="evenodd"/></g><g filter="url(#shadowFilter-p.42)"><use xlink:href="#p.42" transform="matrix(1.0 0.0 0.0 1.0 0.0 2.0)"/></g><defs><filter id="shadowFilter-p.42" filterUnits="userSpaceOnUse"><feGaussianBlur in="SourceAlpha" stdDeviation="2.0" result="blur"/><feComponentTransfer in="blur" color-interpolation-filters="sRGB"><feFuncR type="linear" slope="0" intercept="0.0"/><feFuncG type="linear" slope="0" intercept="0.0"/><feFuncB type="linear" slope="0" intercept="0.0"/><feFuncA type="linear" slope="0.5" intercept="0"/></feComponentTransfer></filter></defs><g id="p.42"><path fill="#cfe2f3" d="m231.4685 65.10236l0 0c0 -6.688301 5.421936 -12.110237 12.1102295 -12.110237l0 0c3.2118378 0 6.2921295 1.2758942 8.563232 3.5470047c2.2711182 2.2711105 3.5470123 5.3513985 3.5470123 8.563232l0 0c0 6.688301 -5.421936 12.110237 -12.110245 12.110237l0 0c-6.6882935 0 -12.1102295 -5.421936 -12.1102295 -12.110237z" fill-rule="evenodd"/><path stroke="#000000" stroke-width="1.0" stroke-linejoin="round" stroke-linecap="butt" d="m231.4685 65.10236l0 0c0 -6.688301 5.421936 -12.110237 12.1102295 -12.110237l0 0c3.2118378 0 6.2921295 1.2758942 8.563232 3.5470047c2.2711182 2.2711105 3.5470123 5.3513985 3.5470123 8.563232l0 0c0 6.688301 -5.421936 12.110237 -12.110245 12.110237l0 0c-6.6882935 0 -12.1102295 -5.421936 -12.1102295 -12.110237z" fill-rule="evenodd"/></g><g filter="url(#shadowFilter-p.43)"><use xlink:href="#p.43" transform="matrix(1.0 0.0 0.0 1.0 0.0 2.0)"/></g><defs><filter id="shadowFilter-p.43" filterUnits="userSpaceOnUse"><feGaussianBlur in="SourceAlpha" stdDeviation="2.0" result="blur"/><feComponentTransfer in="blur" color-interpolation-filters="sRGB"><feFuncR type="linear" slope="0" intercept="0.0"/><feFuncG type="linear" slope="0" intercept="0.0"/><feFuncB type="linear" slope="0" intercept="0.0"/><feFuncA type="linear" slope="0.5" intercept="0"/></feComponentTransfer></filter></defs><g id="p.43"><path fill="#cfe2f3" d="m303.71915 65.10236l0 0c0 -6.688301 5.421936 -12.110237 12.11026 -12.110237l0 0c3.2118225 0 6.2921143 1.2758942 8.563232 3.5470047c2.2710876 2.2711105 3.546997 5.3513985 3.546997 8.563232l0 0c0 6.688301 -5.421936 12.110237 -12.1102295 12.110237l0 0c-6.688324 0 -12.11026 -5.421936 -12.11026 -12.110237z" fill-rule="evenodd"/><path stroke="#000000" stroke-width="1.0" stroke-linejoin="round" stroke-linecap="butt" d="m303.71915 65.10236l0 0c0 -6.688301 5.421936 -12.110237 12.11026 -12.110237l0 0c3.2118225 0 6.2921143 1.2758942 8.563232 3.5470047c2.2710876 2.2711105 3.546997 5.3513985 3.546997 8.563232l0 0c0 6.688301 -5.421936 12.110237 -12.1102295 12.110237l0 0c-6.688324 0 -12.11026 -5.421936 -12.11026 -12.110237z" fill-rule="evenodd"/></g><g filter="url(#shadowFilter-p.44)"><use xlink:href="#p.44" transform="matrix(1.0 0.0 0.0 1.0 0.0 2.0)"/></g><defs><filter id="shadowFilter-p.44" filterUnits="userSpaceOnUse"><feGaussianBlur in="SourceAlpha" stdDeviation="2.0" result="blur"/><feComponentTransfer in="blur" color-interpolation-filters="sRGB"><feFuncR type="linear" slope="0" intercept="0.0"/><feFuncG type="linear" slope="0" intercept="0.0"/><feFuncB type="linear" slope="0" intercept="0.0"/><feFuncA type="linear" slope="0.5" intercept="0"/></feComponentTransfer></filter></defs><g id="p.44"><path fill="#cfe2f3" d="m339.84448 65.10236l0 0c0 -6.688301 5.421936 -12.110237 12.1102295 -12.110237l0 0c3.211853 0 6.292145 1.2758942 8.563232 3.5470047c2.2711182 2.2711105 3.5470276 5.3513985 3.5470276 8.563232l0 0c0 6.688301 -5.421936 12.110237 -12.11026 12.110237l0 0c-6.6882935 0 -12.1102295 -5.421936 -12.1102295 -12.110237z" fill-rule="evenodd"/><path stroke="#000000" stroke-width="1.0" stroke-linejoin="round" stroke-linecap="butt" d="m339.84448 65.10236l0 0c0 -6.688301 5.421936 -12.110237 12.1102295 -12.110237l0 0c3.211853 0 6.292145 1.2758942 8.563232 3.5470047c2.2711182 2.2711105 3.5470276 5.3513985 3.5470276 8.563232l0 0c0 6.688301 -5.421936 12.110237 -12.11026 12.110237l0 0c-6.6882935 0 -12.1102295 -5.421936 -12.1102295 -12.110237z" fill-rule="evenodd"/></g><g filter="url(#shadowFilter-p.45)"><use xlink:href="#p.45" transform="matrix(1.0 0.0 0.0 1.0 0.0 2.0)"/></g><defs><filter id="shadowFilter-p.45" filterUnits="userSpaceOnUse"><feGaussianBlur in="SourceAlpha" stdDeviation="2.0" result="blur"/><feComponentTransfer in="blur" color-interpolation-filters="sRGB"><feFuncR type="linear" slope="0" intercept="0.0"/><feFuncG type="linear" slope="0" intercept="0.0"/><feFuncB type="linear" slope="0" intercept="0.0"/><feFuncA type="linear" slope="0.5" intercept="0"/></feComponentTransfer></filter></defs><g id="p.45"><path fill="#cfe2f3" d="m375.96982 65.10236l0 0c0 -6.688301 5.421936 -12.110237 12.1102295 -12.110237l0 0c3.211853 0 6.2921143 1.2758942 8.563232 3.5470047c2.2711182 2.2711105 3.546997 5.3513985 3.546997 8.563232l0 0c0 6.688301 -5.421936 12.110237 -12.1102295 12.110237l0 0c-6.6882935 0 -12.1102295 -5.421936 -12.1102295 -12.110237z" fill-rule="evenodd"/><path stroke="#000000" stroke-width="1.0" stroke-linejoin="round" stroke-linecap="butt" d="m375.96982 65.10236l0 0c0 -6.688301 5.421936 -12.110237 12.1102295 -12.110237l0 0c3.211853 0 6.2921143 1.2758942 8.563232 3.5470047c2.2711182 2.2711105 3.546997 5.3513985 3.546997 8.563232l0 0c0 6.688301 -5.421936 12.110237 -12.1102295 12.110237l0 0c-6.6882935 0 -12.1102295 -5.421936 -12.1102295 -12.110237z" fill-rule="evenodd"/></g><g filter="url(#shadowFilter-p.46)"><use xlink:href="#p.46" transform="matrix(1.0 0.0 0.0 1.0 0.0 2.0)"/></g><defs><filter id="shadowFilter-p.46" filterUnits="userSpaceOnUse"><feGaussianBlur in="SourceAlpha" stdDeviation="2.0" result="blur"/><feComponentTransfer in="blur" color-interpolation-filters="sRGB"><feFuncR type="linear" slope="0" intercept="0.0"/><feFuncG type="linear" slope="0" intercept="0.0"/><feFuncB type="linear" slope="0" intercept="0.0"/><feFuncA type="linear" slope="0.5" intercept="0"/></feComponentTransfer></filter></defs><g id="p.46"><path fill="#cfe2f3" d="m267.59384 65.10236l0 0c0 -6.688301 5.421936 -12.110237 12.1102295 -12.110237l0 0c3.2118225 0 6.2921143 1.2758942 8.563232 3.5470047c2.2711182 2.2711105 3.546997 5.3513985 3.546997 8.563232l0 0c0 6.688301 -5.421936 12.110237 -12.1102295 12.110237l0 0c-6.6882935 0 -12.1102295 -5.421936 -12.1102295 -12.110237z" fill-rule="evenodd"/><path stroke="#000000" stroke-width="1.0" stroke-linejoin="round" stroke-linecap="butt" d="m267.59384 65.10236l0 0c0 -6.688301 5.421936 -12.110237 12.1102295 -12.110237l0 0c3.2118225 0 6.2921143 1.2758942 8.563232 3.5470047c2.2711182 2.2711105 3.546997 5.3513985 3.546997 8.563232l0 0c0 6.688301 -5.421936 12.110237 -12.1102295 12.110237l0 0c-6.6882935 0 -12.1102295 -5.421936 -12.1102295 -12.110237z" fill-rule="evenodd"/></g><g filter="url(#shadowFilter-p.47)"><use xlink:href="#p.47" transform="matrix(1.0 0.0 0.0 1.0 0.0 2.0)"/></g><defs><filter id="shadowFilter-p.47" filterUnits="userSpaceOnUse"><feGaussianBlur in="SourceAlpha" stdDeviation="2.0" result="blur"/><feComponentTransfer in="blur" color-interpolation-filters="sRGB"><feFuncR type="linear" slope="0" intercept="0.0"/><feFuncG type="linear" slope="0" intercept="0.0"/><feFuncB type="linear" slope="0" intercept="0.0"/><feFuncA type="linear" slope="0.5" intercept="0"/></feComponentTransfer></filter></defs><g id="p.47"><path fill="#cfe2f3" d="m267.59448 162.09973l0 0c0 -6.6882935 5.421936 -12.1102295 12.1102295 -12.1102295l0 0c3.211853 0 6.292145 1.2758942 8.563232 3.5470123c2.2711182 2.271103 3.5470276 5.3513947 3.5470276 8.563217l0 0c0 6.6883087 -5.421936 12.110245 -12.11026 12.110245l0 0c-6.6882935 0 -12.1102295 -5.421936 -12.1102295 -12.110245z" fill-rule="evenodd"/><path stroke="#000000" stroke-width="1.0" stroke-linejoin="round" stroke-linecap="butt" d="m267.59448 162.09973l0 0c0 -6.6882935 5.421936 -12.1102295 12.1102295 -12.1102295l0 0c3.211853 0 6.292145 1.2758942 8.563232 3.5470123c2.2711182 2.271103 3.5470276 5.3513947 3.5470276 8.563217l0 0c0 6.6883087 -5.421936 12.110245 -12.11026 12.110245l0 0c-6.6882935 0 -12.1102295 -5.421936 -12.1102295 -12.110245z" fill-rule="evenodd"/></g><g filter="url(#shadowFilter-p.48)"><use xlink:href="#p.48" transform="matrix(1.0 0.0 0.0 1.0 0.0 2.0)"/></g><defs><filter id="shadowFilter-p.48" filterUnits="userSpaceOnUse"><feGaussianBlur in="SourceAlpha" stdDeviation="2.0" result="blur"/><feComponentTransfer in="blur" color-interpolation-filters="sRGB"><feFuncR type="linear" slope="0" intercept="0.0"/><feFuncG type="linear" slope="0" intercept="0.0"/><feFuncB type="linear" slope="0" intercept="0.0"/><feFuncA type="linear" slope="0.5" intercept="0"/></feComponentTransfer></filter></defs><g id="p.48"><path fill="#cfe2f3" d="m303.71982 162.09973l0 0c0 -6.6882935 5.421936 -12.1102295 12.1102295 -12.1102295l0 0c3.211853 0 6.2921143 1.2758942 8.563232 3.5470123c2.2711182 2.271103 3.546997 5.3513947 3.546997 8.563217l0 0c0 6.6883087 -5.421936 12.110245 -12.1102295 12.110245l0 0c-6.6882935 0 -12.1102295 -5.421936 -12.1102295 -12.110245z" fill-rule="evenodd"/><path stroke="#000000" stroke-width="1.0" stroke-linejoin="round" stroke-linecap="butt" d="m303.71982 162.09973l0 0c0 -6.6882935 5.421936 -12.1102295 12.1102295 -12.1102295l0 0c3.211853 0 6.2921143 1.2758942 8.563232 3.5470123c2.2711182 2.271103 3.546997 5.3513947 3.546997 8.563217l0 0c0 6.6883087 -5.421936 12.110245 -12.1102295 12.110245l0 0c-6.6882935 0 -12.1102295 -5.421936 -12.1102295 -12.110245z" fill-rule="evenodd"/></g><g filter="url(#shadowFilter-p.49)"><use xlink:href="#p.49" transform="matrix(1.0 0.0 0.0 1.0 0.0 2.0)"/></g><defs><filter id="shadowFilter-p.49" filterUnits="userSpaceOnUse"><feGaussianBlur in="SourceAlpha" stdDeviation="2.0" result="blur"/><feComponentTransfer in="blur" color-interpolation-filters="sRGB"><feFuncR type="linear" slope="0" intercept="0.0"/><feFuncG type="linear" slope="0" intercept="0.0"/><feFuncB type="linear" slope="0" intercept="0.0"/><feFuncA type="linear" slope="0.5" intercept="0"/></feComponentTransfer></filter></defs><g id="p.49"><path fill="#cfe2f3" d="m339.84515 162.09973l0 0c0 -6.6882935 5.421936 -12.1102295 12.1102295 -12.1102295l0 0c3.2118225 0 6.2921143 1.2758942 8.563232 3.5470123c2.2711182 2.271103 3.546997 5.3513947 3.546997 8.563217l0 0c0 6.6883087 -5.421936 12.110245 -12.1102295 12.110245l0 0c-6.6882935 0 -12.1102295 -5.421936 -12.1102295 -12.110245z" fill-rule="evenodd"/><path stroke="#000000" stroke-width="1.0" stroke-linejoin="round" stroke-linecap="butt" d="m339.84515 162.09973l0 0c0 -6.6882935 5.421936 -12.1102295 12.1102295 -12.1102295l0 0c3.2118225 0 6.2921143 1.2758942 8.563232 3.5470123c2.2711182 2.271103 3.546997 5.3513947 3.546997 8.563217l0 0c0 6.6883087 -5.421936 12.110245 -12.1102295 12.110245l0 0c-6.6882935 0 -12.1102295 -5.421936 -12.1102295 -12.110245z" fill-rule="evenodd"/></g><g filter="url(#shadowFilter-p.50)"><use xlink:href="#p.50" transform="matrix(1.0 0.0 0.0 1.0 0.0 2.0)"/></g><defs><filter id="shadowFilter-p.50" filterUnits="userSpaceOnUse"><feGaussianBlur in="SourceAlpha" stdDeviation="2.0" result="blur"/><feComponentTransfer in="blur" color-interpolation-filters="sRGB"><feFuncR type="linear" slope="0" intercept="0.0"/><feFuncG type="linear" slope="0" intercept="0.0"/><feFuncB type="linear" slope="0" intercept="0.0"/><feFuncA type="linear" slope="0.5" intercept="0"/></feComponentTransfer></filter></defs><g id="p.50"><path fill="#000000" fill-opacity="0.0" d="m448.36484 65.10499l36.251953 97.5118" fill-rule="evenodd"/><path stroke="#000000" stroke-width="1.0" stroke-linejoin="round" stroke-linecap="butt" d="m448.36484 65.10499l36.251953 97.5118" fill-rule="evenodd"/></g><g filter="url(#shadowFilter-p.51)"><use xlink:href="#p.51" transform="matrix(1.0 0.0 0.0 1.0 0.0 2.0)"/></g><defs><filter id="shadowFilter-p.51" filterUnits="userSpaceOnUse"><feGaussianBlur in="SourceAlpha" stdDeviation="2.0" result="blur"/><feComponentTransfer in="blur" color-interpolation-filters="sRGB"><feFuncR type="linear" slope="0" intercept="0.0"/><feFuncG type="linear" slope="0" intercept="0.0"/><feFuncB type="linear" slope="0" intercept="0.0"/><feFuncA type="linear" slope="0.5" intercept="0"/></feComponentTransfer></filter></defs><g id="p.51"><path fill="#000000" fill-opacity="0.0" d="m448.36484 64.6063l72.50394 97.5118" fill-rule="evenodd"/><path stroke="#000000" stroke-width="1.0" stroke-linejoin="round" stroke-linecap="butt" d="m448.36484 64.6063l72.50394 97.5118" fill-rule="evenodd"/></g><g filter="url(#shadowFilter-p.52)"><use xlink:href="#p.52" transform="matrix(1.0 0.0 0.0 1.0 0.0 2.0)"/></g><defs><filter id="shadowFilter-p.52" filterUnits="userSpaceOnUse"><feGaussianBlur in="SourceAlpha" stdDeviation="2.0" result="blur"/><feComponentTransfer in="blur" color-interpolation-filters="sRGB"><feFuncR type="linear" slope="0" intercept="0.0"/><feFuncG type="linear" slope="0" intercept="0.0"/><feFuncB type="linear" slope="0" intercept="0.0"/><feFuncA type="linear" slope="0.5" intercept="0"/></feComponentTransfer></filter></defs><g id="p.52"><path fill="#000000" fill-opacity="0.0" d="m448.6168 64.6063l108.75589 98.74015" fill-rule="evenodd"/><path stroke="#000000" stroke-width="1.0" stroke-linejoin="round" stroke-linecap="butt" d="m448.6168 64.6063l108.75589 98.74015" fill-rule="evenodd"/></g><g filter="url(#shadowFilter-p.53)"><use xlink:href="#p.53" transform="matrix(1.0 0.0 0.0 1.0 0.0 2.0)"/></g><defs><filter id="shadowFilter-p.53" filterUnits="userSpaceOnUse"><feGaussianBlur in="SourceAlpha" stdDeviation="2.0" result="blur"/><feComponentTransfer in="blur" color-interpolation-filters="sRGB"><feFuncR type="linear" slope="0" intercept="0.0"/><feFuncG type="linear" slope="0" intercept="0.0"/><feFuncB type="linear" slope="0" intercept="0.0"/><feFuncA type="linear" slope="0.5" intercept="0"/></feComponentTransfer></filter></defs><g id="p.53"><path fill="#000000" fill-opacity="0.0" d="m484.6168 65.10499l0 97.5118" fill-rule="evenodd"/><path stroke="#000000" stroke-width="1.0" stroke-linejoin="round" stroke-linecap="butt" d="m484.6168 65.10499l0 97.5118" fill-rule="evenodd"/></g><g filter="url(#shadowFilter-p.54)"><use xlink:href="#p.54" transform="matrix(1.0 0.0 0.0 1.0 0.0 2.0)"/></g><defs><filter id="shadowFilter-p.54" filterUnits="userSpaceOnUse"><feGaussianBlur in="SourceAlpha" stdDeviation="2.0" result="blur"/><feComponentTransfer in="blur" color-interpolation-filters="sRGB"><feFuncR type="linear" slope="0" intercept="0.0"/><feFuncG type="linear" slope="0" intercept="0.0"/><feFuncB type="linear" slope="0" intercept="0.0"/><feFuncA type="linear" slope="0.5" intercept="0"/></feComponentTransfer></filter></defs><g id="p.54"><path fill="#000000" fill-opacity="0.0" d="m484.86615 64.855644l36.0 97.76377" fill-rule="evenodd"/><path stroke="#000000" stroke-width="1.0" stroke-linejoin="round" stroke-linecap="butt" d="m484.86615 64.855644l36.0 97.76377" fill-rule="evenodd"/></g><g filter="url(#shadowFilter-p.55)"><use xlink:href="#p.55" transform="matrix(1.0 0.0 0.0 1.0 0.0 2.0)"/></g><defs><filter id="shadowFilter-p.55" filterUnits="userSpaceOnUse"><feGaussianBlur in="SourceAlpha" stdDeviation="2.0" result="blur"/><feComponentTransfer in="blur" color-interpolation-filters="sRGB"><feFuncR type="linear" slope="0" intercept="0.0"/><feFuncG type="linear" slope="0" intercept="0.0"/><feFuncB type="linear" slope="0" intercept="0.0"/><feFuncA type="linear" slope="0.5" intercept="0"/></feComponentTransfer></filter></defs><g id="p.55"><path fill="#000000" fill-opacity="0.0" d="m484.6168 64.855644l72.50394 98.01574" fill-rule="evenodd"/><path stroke="#000000" stroke-width="1.0" stroke-linejoin="round" stroke-linecap="butt" d="m484.6168 64.855644l72.50394 98.01574" fill-rule="evenodd"/></g><g filter="url(#shadowFilter-p.56)"><use xlink:href="#p.56" transform="matrix(1.0 0.0 0.0 1.0 0.0 2.0)"/></g><defs><filter id="shadowFilter-p.56" filterUnits="userSpaceOnUse"><feGaussianBlur in="SourceAlpha" stdDeviation="2.0" result="blur"/><feComponentTransfer in="blur" color-interpolation-filters="sRGB"><feFuncR type="linear" slope="0" intercept="0.0"/><feFuncG type="linear" slope="0" intercept="0.0"/><feFuncB type="linear" slope="0" intercept="0.0"/><feFuncA type="linear" slope="0.5" intercept="0"/></feComponentTransfer></filter></defs><g id="p.56"><path fill="#000000" fill-opacity="0.0" d="m520.86615 65.35696l-36.503937 97.259834" fill-rule="evenodd"/><path stroke="#000000" stroke-width="1.0" stroke-linejoin="round" stroke-linecap="butt" d="m520.86615 65.35696l-36.503937 97.259834" fill-rule="evenodd"/></g><g filter="url(#shadowFilter-p.57)"><use xlink:href="#p.57" transform="matrix(1.0 0.0 0.0 1.0 0.0 2.0)"/></g><defs><filter id="shadowFilter-p.57" filterUnits="userSpaceOnUse"><feGaussianBlur in="SourceAlpha" stdDeviation="2.0" result="blur"/><feComponentTransfer in="blur" color-interpolation-filters="sRGB"><feFuncR type="linear" slope="0" intercept="0.0"/><feFuncG type="linear" slope="0" intercept="0.0"/><feFuncB type="linear" slope="0" intercept="0.0"/><feFuncA type="linear" slope="0.5" intercept="0"/></feComponentTransfer></filter></defs><g id="p.57"><path fill="#000000" fill-opacity="0.0" d="m520.86615 65.10499l-0.25195312 97.007866" fill-rule="evenodd"/><path stroke="#000000" stroke-width="1.0" stroke-linejoin="round" stroke-linecap="butt" d="m520.86615 65.10499l-0.25195312 97.007866" fill-rule="evenodd"/></g><g filter="url(#shadowFilter-p.58)"><use xlink:href="#p.58" transform="matrix(1.0 0.0 0.0 1.0 0.0 2.0)"/></g><defs><filter id="shadowFilter-p.58" filterUnits="userSpaceOnUse"><feGaussianBlur in="SourceAlpha" stdDeviation="2.0" result="blur"/><feComponentTransfer in="blur" color-interpolation-filters="sRGB"><feFuncR type="linear" slope="0" intercept="0.0"/><feFuncG type="linear" slope="0" intercept="0.0"/><feFuncB type="linear" slope="0" intercept="0.0"/><feFuncA type="linear" slope="0.5" intercept="0"/></feComponentTransfer></filter></defs><g id="p.58"><path fill="#000000" fill-opacity="0.0" d="m520.86615 65.10499l36.251953 97.76377" fill-rule="evenodd"/><path stroke="#000000" stroke-width="1.0" stroke-linejoin="round" stroke-linecap="butt" d="m520.86615 65.10499l36.251953 97.76377" fill-rule="evenodd"/></g><g filter="url(#shadowFilter-p.59)"><use xlink:href="#p.59" transform="matrix(1.0 0.0 0.0 1.0 0.0 2.0)"/></g><defs><filter id="shadowFilter-p.59" filterUnits="userSpaceOnUse"><feGaussianBlur in="SourceAlpha" stdDeviation="2.0" result="blur"/><feComponentTransfer in="blur" color-interpolation-filters="sRGB"><feFuncR type="linear" slope="0" intercept="0.0"/><feFuncG type="linear" slope="0" intercept="0.0"/><feFuncB type="linear" slope="0" intercept="0.0"/><feFuncA type="linear" slope="0.5" intercept="0"/></feComponentTransfer></filter></defs><g id="p.59"><path fill="#000000" fill-opacity="0.0" d="m557.1155 65.10499l-72.75589 97.76377" fill-rule="evenodd"/><path stroke="#000000" stroke-width="1.0" stroke-linejoin="round" stroke-linecap="butt" d="m557.1155 65.10499l-72.75589 97.76377" fill-rule="evenodd"/></g><g filter="url(#shadowFilter-p.60)"><use xlink:href="#p.60" transform="matrix(1.0 0.0 0.0 1.0 0.0 2.0)"/></g><defs><filter id="shadowFilter-p.60" filterUnits="userSpaceOnUse"><feGaussianBlur in="SourceAlpha" stdDeviation="2.0" result="blur"/><feComponentTransfer in="blur" color-interpolation-filters="sRGB"><feFuncR type="linear" slope="0" intercept="0.0"/><feFuncG type="linear" slope="0" intercept="0.0"/><feFuncB type="linear" slope="0" intercept="0.0"/><feFuncA type="linear" slope="0.5" intercept="0"/></feComponentTransfer></filter></defs><g id="p.60"><path fill="#000000" fill-opacity="0.0" d="m557.3648 65.10499l-36.75586 97.007866" fill-rule="evenodd"/><path stroke="#000000" stroke-width="1.0" stroke-linejoin="round" stroke-linecap="butt" d="m557.3648 65.10499l-36.75586 97.007866" fill-rule="evenodd"/></g><g filter="url(#shadowFilter-p.61)"><use xlink:href="#p.61" transform="matrix(1.0 0.0 0.0 1.0 0.0 2.0)"/></g><defs><filter id="shadowFilter-p.61" filterUnits="userSpaceOnUse"><feGaussianBlur in="SourceAlpha" stdDeviation="2.0" result="blur"/><feComponentTransfer in="blur" color-interpolation-filters="sRGB"><feFuncR type="linear" slope="0" intercept="0.0"/><feFuncG type="linear" slope="0" intercept="0.0"/><feFuncB type="linear" slope="0" intercept="0.0"/><feFuncA type="linear" slope="0.5" intercept="0"/></feComponentTransfer></filter></defs><g id="p.61"><path fill="#000000" fill-opacity="0.0" d="m557.3648 64.6063l-0.25195312 98.48818" fill-rule="evenodd"/><path stroke="#000000" stroke-width="1.0" stroke-linejoin="round" stroke-linecap="butt" d="m557.3648 64.6063l-0.25195312 98.48818" fill-rule="evenodd"/></g><g filter="url(#shadowFilter-p.62)"><use xlink:href="#p.62" transform="matrix(1.0 0.0 0.0 1.0 0.0 2.0)"/></g><defs><filter id="shadowFilter-p.62" filterUnits="userSpaceOnUse"><feGaussianBlur in="SourceAlpha" stdDeviation="2.0" result="blur"/><feComponentTransfer in="blur" color-interpolation-filters="sRGB"><feFuncR type="linear" slope="0" intercept="0.0"/><feFuncG type="linear" slope="0" intercept="0.0"/><feFuncB type="linear" slope="0" intercept="0.0"/><feFuncA type="linear" slope="0.5" intercept="0"/></feComponentTransfer></filter></defs><g id="p.62"><path fill="#000000" fill-opacity="0.0" d="m593.3648 65.10499l-108.50391 97.5118" fill-rule="evenodd"/><path stroke="#000000" stroke-width="1.0" stroke-linejoin="round" stroke-linecap="butt" d="m593.3648 65.10499l-108.50391 97.5118" fill-rule="evenodd"/></g><g filter="url(#shadowFilter-p.63)"><use xlink:href="#p.63" transform="matrix(1.0 0.0 0.0 1.0 0.0 2.0)"/></g><defs><filter id="shadowFilter-p.63" filterUnits="userSpaceOnUse"><feGaussianBlur in="SourceAlpha" stdDeviation="2.0" result="blur"/><feComponentTransfer in="blur" color-interpolation-filters="sRGB"><feFuncR type="linear" slope="0" intercept="0.0"/><feFuncG type="linear" slope="0" intercept="0.0"/><feFuncB type="linear" slope="0" intercept="0.0"/><feFuncA type="linear" slope="0.5" intercept="0"/></feComponentTransfer></filter></defs><g id="p.63"><path fill="#000000" fill-opacity="0.0" d="m593.6168 64.855644l-72.75592 97.007866" fill-rule="evenodd"/><path stroke="#000000" stroke-width="1.0" stroke-linejoin="round" stroke-linecap="butt" d="m593.6168 64.855644l-72.75592 97.007866" fill-rule="evenodd"/></g><g filter="url(#shadowFilter-p.64)"><use xlink:href="#p.64" transform="matrix(1.0 0.0 0.0 1.0 0.0 2.0)"/></g><defs><filter id="shadowFilter-p.64" filterUnits="userSpaceOnUse"><feGaussianBlur in="SourceAlpha" stdDeviation="2.0" result="blur"/><feComponentTransfer in="blur" color-interpolation-filters="sRGB"><feFuncR type="linear" slope="0" intercept="0.0"/><feFuncG type="linear" slope="0" intercept="0.0"/><feFuncB type="linear" slope="0" intercept="0.0"/><feFuncA type="linear" slope="0.5" intercept="0"/></feComponentTransfer></filter></defs><g id="p.64"><path fill="#000000" fill-opacity="0.0" d="m594.1155 64.855644l-36.75592 98.48818" fill-rule="evenodd"/><path stroke="#000000" stroke-width="1.0" stroke-linejoin="round" stroke-linecap="butt" d="m594.1155 64.855644l-36.75592 98.48818" fill-rule="evenodd"/></g><g filter="url(#shadowFilter-p.65)"><use xlink:href="#p.65" transform="matrix(1.0 0.0 0.0 1.0 0.0 2.0)"/></g><defs><filter id="shadowFilter-p.65" filterUnits="userSpaceOnUse"><feGaussianBlur in="SourceAlpha" stdDeviation="2.0" result="blur"/><feComponentTransfer in="blur" color-interpolation-filters="sRGB"><feFuncR type="linear" slope="0" intercept="0.0"/><feFuncG type="linear" slope="0" intercept="0.0"/><feFuncB type="linear" slope="0" intercept="0.0"/><feFuncA type="linear" slope="0.5" intercept="0"/></feComponentTransfer></filter></defs><g id="p.65"><path fill="#cfe2f3" d="m436.2257 65.10236l0 0c0 -6.688301 5.421936 -12.110237 12.11026 -12.110237l0 0c3.2118225 0 6.2921143 1.2758942 8.563232 3.5470047c2.2710876 2.2711105 3.546997 5.3513985 3.546997 8.563232l0 0c0 6.688301 -5.421936 12.110237 -12.1102295 12.110237l0 0c-6.688324 0 -12.11026 -5.421936 -12.11026 -12.110237z" fill-rule="evenodd"/><path stroke="#000000" stroke-width="1.0" stroke-linejoin="round" stroke-linecap="butt" d="m436.2257 65.10236l0 0c0 -6.688301 5.421936 -12.110237 12.11026 -12.110237l0 0c3.2118225 0 6.2921143 1.2758942 8.563232 3.5470047c2.2710876 2.2711105 3.546997 5.3513985 3.546997 8.563232l0 0c0 6.688301 -5.421936 12.110237 -12.1102295 12.110237l0 0c-6.688324 0 -12.11026 -5.421936 -12.11026 -12.110237z" fill-rule="evenodd"/></g><g filter="url(#shadowFilter-p.66)"><use xlink:href="#p.66" transform="matrix(1.0 0.0 0.0 1.0 0.0 2.0)"/></g><defs><filter id="shadowFilter-p.66" filterUnits="userSpaceOnUse"><feGaussianBlur in="SourceAlpha" stdDeviation="2.0" result="blur"/><feComponentTransfer in="blur" color-interpolation-filters="sRGB"><feFuncR type="linear" slope="0" intercept="0.0"/><feFuncG type="linear" slope="0" intercept="0.0"/><feFuncB type="linear" slope="0" intercept="0.0"/><feFuncA type="linear" slope="0.5" intercept="0"/></feComponentTransfer></filter></defs><g id="p.66"><path fill="#cfe2f3" d="m508.47638 65.10236l0 0c0 -6.688301 5.421936 -12.110237 12.1102295 -12.110237l0 0c3.211853 0 6.2921143 1.2758942 8.563232 3.5470047c2.2711182 2.2711105 3.546997 5.3513985 3.546997 8.563232l0 0c0 6.688301 -5.421936 12.110237 -12.1102295 12.110237l0 0c-6.6882935 0 -12.1102295 -5.421936 -12.1102295 -12.110237z" fill-rule="evenodd"/><path stroke="#000000" stroke-width="1.0" stroke-linejoin="round" stroke-linecap="butt" d="m508.47638 65.10236l0 0c0 -6.688301 5.421936 -12.110237 12.1102295 -12.110237l0 0c3.211853 0 6.2921143 1.2758942 8.563232 3.5470047c2.2711182 2.2711105 3.546997 5.3513985 3.546997 8.563232l0 0c0 6.688301 -5.421936 12.110237 -12.1102295 12.110237l0 0c-6.6882935 0 -12.1102295 -5.421936 -12.1102295 -12.110237z" fill-rule="evenodd"/></g><g filter="url(#shadowFilter-p.67)"><use xlink:href="#p.67" transform="matrix(1.0 0.0 0.0 1.0 0.0 2.0)"/></g><defs><filter id="shadowFilter-p.67" filterUnits="userSpaceOnUse"><feGaussianBlur in="SourceAlpha" stdDeviation="2.0" result="blur"/><feComponentTransfer in="blur" color-interpolation-filters="sRGB"><feFuncR type="linear" slope="0" intercept="0.0"/><feFuncG type="linear" slope="0" intercept="0.0"/><feFuncB type="linear" slope="0" intercept="0.0"/><feFuncA type="linear" slope="0.5" intercept="0"/></feComponentTransfer></filter></defs><g id="p.67"><path fill="#cfe2f3" d="m544.6017 65.10236l0 0c0 -6.688301 5.421936 -12.110237 12.1102295 -12.110237l0 0c3.211853 0 6.2921753 1.2758942 8.563232 3.5470047c2.2711182 2.2711105 3.547058 5.3513985 3.547058 8.563232l0 0c0 6.688301 -5.421936 12.110237 -12.110291 12.110237l0 0c-6.6882935 0 -12.1102295 -5.421936 -12.1102295 -12.110237z" fill-rule="evenodd"/><path stroke="#000000" stroke-width="1.0" stroke-linejoin="round" stroke-linecap="butt" d="m544.6017 65.10236l0 0c0 -6.688301 5.421936 -12.110237 12.1102295 -12.110237l0 0c3.211853 0 6.2921753 1.2758942 8.563232 3.5470047c2.2711182 2.2711105 3.547058 5.3513985 3.547058 8.563232l0 0c0 6.688301 -5.421936 12.110237 -12.110291 12.110237l0 0c-6.6882935 0 -12.1102295 -5.421936 -12.1102295 -12.110237z" fill-rule="evenodd"/></g><g filter="url(#shadowFilter-p.68)"><use xlink:href="#p.68" transform="matrix(1.0 0.0 0.0 1.0 0.0 2.0)"/></g><defs><filter id="shadowFilter-p.68" filterUnits="userSpaceOnUse"><feGaussianBlur in="SourceAlpha" stdDeviation="2.0" result="blur"/><feComponentTransfer in="blur" color-interpolation-filters="sRGB"><feFuncR type="linear" slope="0" intercept="0.0"/><feFuncG type="linear" slope="0" intercept="0.0"/><feFuncB type="linear" slope="0" intercept="0.0"/><feFuncA type="linear" slope="0.5" intercept="0"/></feComponentTransfer></filter></defs><g id="p.68"><path fill="#cfe2f3" d="m580.72705 65.10236l0 0c0 -6.688301 5.421936 -12.110237 12.1102295 -12.110237l0 0c3.211853 0 6.2921143 1.2758942 8.563232 3.5470047c2.2711182 2.2711105 3.546997 5.3513985 3.546997 8.563232l0 0c0 6.688301 -5.421936 12.110237 -12.1102295 12.110237l0 0c-6.6882935 0 -12.1102295 -5.421936 -12.1102295 -12.110237z" fill-rule="evenodd"/><path stroke="#000000" stroke-width="1.0" stroke-linejoin="round" stroke-linecap="butt" d="m580.72705 65.10236l0 0c0 -6.688301 5.421936 -12.110237 12.1102295 -12.110237l0 0c3.211853 0 6.2921143 1.2758942 8.563232 3.5470047c2.2711182 2.2711105 3.546997 5.3513985 3.546997 8.563232l0 0c0 6.688301 -5.421936 12.110237 -12.1102295 12.110237l0 0c-6.6882935 0 -12.1102295 -5.421936 -12.1102295 -12.110237z" fill-rule="evenodd"/></g><g filter="url(#shadowFilter-p.69)"><use xlink:href="#p.69" transform="matrix(1.0 0.0 0.0 1.0 0.0 2.0)"/></g><defs><filter id="shadowFilter-p.69" filterUnits="userSpaceOnUse"><feGaussianBlur in="SourceAlpha" stdDeviation="2.0" result="blur"/><feComponentTransfer in="blur" color-interpolation-filters="sRGB"><feFuncR type="linear" slope="0" intercept="0.0"/><feFuncG type="linear" slope="0" intercept="0.0"/><feFuncB type="linear" slope="0" intercept="0.0"/><feFuncA type="linear" slope="0.5" intercept="0"/></feComponentTransfer></filter></defs><g id="p.69"><path fill="#cfe2f3" d="m472.35104 65.10236l0 0c0 -6.688301 5.421936 -12.110237 12.1102295 -12.110237l0 0c3.211853 0 6.292145 1.2758942 8.563232 3.5470047c2.2711182 2.2711105 3.5470276 5.3513985 3.5470276 8.563232l0 0c0 6.688301 -5.421936 12.110237 -12.11026 12.110237l0 0c-6.6882935 0 -12.1102295 -5.421936 -12.1102295 -12.110237z" fill-rule="evenodd"/><path stroke="#000000" stroke-width="1.0" stroke-linejoin="round" stroke-linecap="butt" d="m472.35104 65.10236l0 0c0 -6.688301 5.421936 -12.110237 12.1102295 -12.110237l0 0c3.211853 0 6.292145 1.2758942 8.563232 3.5470047c2.2711182 2.2711105 3.5470276 5.3513985 3.5470276 8.563232l0 0c0 6.688301 -5.421936 12.110237 -12.11026 12.110237l0 0c-6.6882935 0 -12.1102295 -5.421936 -12.1102295 -12.110237z" fill-rule="evenodd"/></g><g filter="url(#shadowFilter-p.70)"><use xlink:href="#p.70" transform="matrix(1.0 0.0 0.0 1.0 0.0 2.0)"/></g><defs><filter id="shadowFilter-p.70" filterUnits="userSpaceOnUse"><feGaussianBlur in="SourceAlpha" stdDeviation="2.0" result="blur"/><feComponentTransfer in="blur" color-interpolation-filters="sRGB"><feFuncR type="linear" slope="0" intercept="0.0"/><feFuncG type="linear" slope="0" intercept="0.0"/><feFuncB type="linear" slope="0" intercept="0.0"/><feFuncA type="linear" slope="0.5" intercept="0"/></feComponentTransfer></filter></defs><g id="p.70"><path fill="#cfe2f3" d="m472.3517 162.09973l0 0c0 -6.6882935 5.421936 -12.1102295 12.1102295 -12.1102295l0 0c3.2118225 0 6.2921143 1.2758942 8.563232 3.5470123c2.2711182 2.271103 3.546997 5.3513947 3.546997 8.563217l0 0c0 6.6883087 -5.421936 12.110245 -12.1102295 12.110245l0 0c-6.6882935 0 -12.1102295 -5.421936 -12.1102295 -12.110245z" fill-rule="evenodd"/><path stroke="#000000" stroke-width="1.0" stroke-linejoin="round" stroke-linecap="butt" d="m472.3517 162.09973l0 0c0 -6.6882935 5.421936 -12.1102295 12.1102295 -12.1102295l0 0c3.2118225 0 6.2921143 1.2758942 8.563232 3.5470123c2.2711182 2.271103 3.546997 5.3513947 3.546997 8.563217l0 0c0 6.6883087 -5.421936 12.110245 -12.1102295 12.110245l0 0c-6.6882935 0 -12.1102295 -5.421936 -12.1102295 -12.110245z" fill-rule="evenodd"/></g><g filter="url(#shadowFilter-p.71)"><use xlink:href="#p.71" transform="matrix(1.0 0.0 0.0 1.0 0.0 2.0)"/></g><defs><filter id="shadowFilter-p.71" filterUnits="userSpaceOnUse"><feGaussianBlur in="SourceAlpha" stdDeviation="2.0" result="blur"/><feComponentTransfer in="blur" color-interpolation-filters="sRGB"><feFuncR type="linear" slope="0" intercept="0.0"/><feFuncG type="linear" slope="0" intercept="0.0"/><feFuncB type="linear" slope="0" intercept="0.0"/><feFuncA type="linear" slope="0.5" intercept="0"/></feComponentTransfer></filter></defs><g id="p.71"><path fill="#cfe2f3" d="m508.47702 162.09973l0 0c0 -6.6882935 5.4219666 -12.1102295 12.11026 -12.1102295l0 0c3.211853 0 6.2921143 1.2758942 8.563232 3.5470123c2.2711182 2.271103 3.546997 5.3513947 3.546997 8.563217l0 0c0 6.6883087 -5.421936 12.110245 -12.1102295 12.110245l0 0c-6.6882935 0 -12.11026 -5.421936 -12.11026 -12.110245z" fill-rule="evenodd"/><path stroke="#000000" stroke-width="1.0" stroke-linejoin="round" stroke-linecap="butt" d="m508.47702 162.09973l0 0c0 -6.6882935 5.4219666 -12.1102295 12.11026 -12.1102295l0 0c3.211853 0 6.2921143 1.2758942 8.563232 3.5470123c2.2711182 2.271103 3.546997 5.3513947 3.546997 8.563217l0 0c0 6.6883087 -5.421936 12.110245 -12.1102295 12.110245l0 0c-6.6882935 0 -12.11026 -5.421936 -12.11026 -12.110245z" fill-rule="evenodd"/></g><g filter="url(#shadowFilter-p.72)"><use xlink:href="#p.72" transform="matrix(1.0 0.0 0.0 1.0 0.0 2.0)"/></g><defs><filter id="shadowFilter-p.72" filterUnits="userSpaceOnUse"><feGaussianBlur in="SourceAlpha" stdDeviation="2.0" result="blur"/><feComponentTransfer in="blur" color-interpolation-filters="sRGB"><feFuncR type="linear" slope="0" intercept="0.0"/><feFuncG type="linear" slope="0" intercept="0.0"/><feFuncB type="linear" slope="0" intercept="0.0"/><feFuncA type="linear" slope="0.5" intercept="0"/></feComponentTransfer></filter></defs><g id="p.72"><path fill="#cfe2f3" d="m544.60236 162.09973l0 0c0 -6.6882935 5.421936 -12.1102295 12.1102295 -12.1102295l0 0c3.211853 0 6.2921143 1.2758942 8.563232 3.5470123c2.2711182 2.271103 3.546997 5.3513947 3.546997 8.563217l0 0c0 6.6883087 -5.421936 12.110245 -12.1102295 12.110245l0 0c-6.6882935 0 -12.1102295 -5.421936 -12.1102295 -12.110245z" fill-rule="evenodd"/><path stroke="#000000" stroke-width="1.0" stroke-linejoin="round" stroke-linecap="butt" d="m544.60236 162.09973l0 0c0 -6.6882935 5.421936 -12.1102295 12.1102295 -12.1102295l0 0c3.211853 0 6.2921143 1.2758942 8.563232 3.5470123c2.2711182 2.271103 3.546997 5.3513947 3.546997 8.563217l0 0c0 6.6883087 -5.421936 12.110245 -12.1102295 12.110245l0 0c-6.6882935 0 -12.1102295 -5.421936 -12.1102295 -12.110245z" fill-rule="evenodd"/></g></g></svg>