<?xml version="1.0" encoding="utf-8" standalone="no"?>
<!DOCTYPE svg PUBLIC "-//W3C//DTD SVG 1.1//EN"
  "http://www.w3.org/Graphics/SVG/1.1/DTD/svg11.dtd">
<svg xmlns:xlink="http://www.w3.org/1999/xlink" width="432pt" height="288pt" viewBox="0 0 432 288" xmlns="http://www.w3.org/2000/svg" version="1.1">
 <metadata>
  <rdf:RDF xmlns:dc="http://purl.org/dc/elements/1.1/" xmlns:cc="http://creativecommons.org/ns#" xmlns:rdf="http://www.w3.org/1999/02/22-rdf-syntax-ns#">
   <cc:Work>
    <dc:type rdf:resource="http://purl.org/dc/dcmitype/StillImage"/>
    <dc:date>2022-06-06T22:33:31.840407</dc:date>
    <dc:format>image/svg+xml</dc:format>
    <dc:creator>
     <cc:Agent>
      <dc:title>Matplotlib v3.5.2, https://matplotlib.org/</dc:title>
     </cc:Agent>
    </dc:creator>
   </cc:Work>
  </rdf:RDF>
 </metadata>
 <defs>
  <style type="text/css">*{stroke-linejoin: round; stroke-linecap: butt}</style>
 </defs>
 <g id="figure_1">
  <g id="patch_1">
   <path d="M 0 288 
L 432 288 
L 432 0 
L 0 0 
L 0 288 
z
" style="fill: none"/>
  </g>
  <g id="axes_1">
   <g id="patch_2">
    <path d="M 54 252 
L 388.8 252 
L 388.8 34.56 
L 54 34.56 
z
" style="fill: #ffffff"/>
   </g>
   <g id="matplotlib.axis_1">
    <g id="xtick_1">
     <g id="line2d_1">
      <defs>
       <path id="m349745731f" d="M 0 0 
L 0 3.5 
" style="stroke: #000000; stroke-width: 0.8"/>
      </defs>
      <g>
       <use xlink:href="#m349745731f" x="54" y="252" style="stroke: #000000; stroke-width: 0.8"/>
      </g>
     </g>
    </g>
    <g id="xtick_2">
     <g id="line2d_2">
      <g>
       <use xlink:href="#m349745731f" x="107.568" y="252" style="stroke: #000000; stroke-width: 0.8"/>
      </g>
     </g>
    </g>
    <g id="xtick_3">
     <g id="line2d_3">
      <g>
       <use xlink:href="#m349745731f" x="161.136" y="252" style="stroke: #000000; stroke-width: 0.8"/>
      </g>
     </g>
    </g>
    <g id="xtick_4">
     <g id="line2d_4">
      <g>
       <use xlink:href="#m349745731f" x="214.704" y="252" style="stroke: #000000; stroke-width: 0.8"/>
      </g>
     </g>
    </g>
    <g id="xtick_5">
     <g id="line2d_5">
      <g>
       <use xlink:href="#m349745731f" x="268.272" y="252" style="stroke: #000000; stroke-width: 0.8"/>
      </g>
     </g>
    </g>
    <g id="xtick_6">
     <g id="line2d_6">
      <g>
       <use xlink:href="#m349745731f" x="321.84" y="252" style="stroke: #000000; stroke-width: 0.8"/>
      </g>
     </g>
    </g>
    <g id="xtick_7">
     <g id="line2d_7">
      <g>
       <use xlink:href="#m349745731f" x="375.408" y="252" style="stroke: #000000; stroke-width: 0.8"/>
      </g>
     </g>
    </g>
    <g id="text_1">
     <!-- $\langle s \rangle$ -->
     <g transform="translate(214.85 270.598437)scale(0.1 -0.1)">
      <defs>
       <path id="DejaVuSans-27e8" d="M 572 2006 
L 1453 4856 
L 1984 4856 
L 1103 2006 
L 1984 -844 
L 1453 -844 
L 572 2006 
z
" transform="scale(0.015625)"/>
       <path id="DejaVuSans-Oblique-73" d="M 3200 3397 
L 3091 2853 
Q 2863 2978 2609 3040 
Q 2356 3103 2088 3103 
Q 1634 3103 1373 2948 
Q 1113 2794 1113 2528 
Q 1113 2219 1719 2053 
Q 1766 2041 1788 2034 
L 1972 1978 
Q 2547 1819 2739 1644 
Q 2931 1469 2931 1166 
Q 2931 609 2489 259 
Q 2047 -91 1331 -91 
Q 1053 -91 747 -37 
Q 441 16 72 128 
L 184 722 
Q 500 559 806 475 
Q 1113 391 1394 391 
Q 1816 391 2080 572 
Q 2344 753 2344 1031 
Q 2344 1331 1650 1516 
L 1591 1531 
L 1394 1581 
Q 956 1697 753 1886 
Q 550 2075 550 2369 
Q 550 2928 970 3256 
Q 1391 3584 2113 3584 
Q 2397 3584 2667 3537 
Q 2938 3491 3200 3397 
z
" transform="scale(0.015625)"/>
       <path id="DejaVuSans-27e9" d="M 1925 2006 
L 1044 -844 
L 513 -844 
L 1394 2006 
L 513 4856 
L 1044 4856 
L 1925 2006 
z
" transform="scale(0.015625)"/>
      </defs>
      <use xlink:href="#DejaVuSans-27e8" transform="translate(0 0.125)"/>
      <use xlink:href="#DejaVuSans-Oblique-73" transform="translate(39.013672 0.125)"/>
      <use xlink:href="#DejaVuSans-27e9" transform="translate(91.113281 0.125)"/>
     </g>
    </g>
   </g>
   <g id="matplotlib.axis_2">
    <g id="ytick_1">
     <g id="line2d_8">
      <defs>
       <path id="m2546564579" d="M 0 0 
L -3.5 0 
" style="stroke: #000000; stroke-width: 0.8"/>
      </defs>
      <g>
       <use xlink:href="#m2546564579" x="54" y="252" style="stroke: #000000; stroke-width: 0.8"/>
      </g>
     </g>
    </g>
    <g id="ytick_2">
     <g id="line2d_9">
      <g>
       <use xlink:href="#m2546564579" x="54" y="217.2096" style="stroke: #000000; stroke-width: 0.8"/>
      </g>
     </g>
    </g>
    <g id="ytick_3">
     <g id="line2d_10">
      <g>
       <use xlink:href="#m2546564579" x="54" y="182.4192" style="stroke: #000000; stroke-width: 0.8"/>
      </g>
     </g>
    </g>
    <g id="ytick_4">
     <g id="line2d_11">
      <g>
       <use xlink:href="#m2546564579" x="54" y="147.6288" style="stroke: #000000; stroke-width: 0.8"/>
      </g>
     </g>
    </g>
    <g id="ytick_5">
     <g id="line2d_12">
      <g>
       <use xlink:href="#m2546564579" x="54" y="112.8384" style="stroke: #000000; stroke-width: 0.8"/>
      </g>
     </g>
    </g>
    <g id="ytick_6">
     <g id="line2d_13">
      <g>
       <use xlink:href="#m2546564579" x="54" y="78.048" style="stroke: #000000; stroke-width: 0.8"/>
      </g>
     </g>
    </g>
    <g id="ytick_7">
     <g id="line2d_14">
      <g>
       <use xlink:href="#m2546564579" x="54" y="43.2576" style="stroke: #000000; stroke-width: 0.8"/>
      </g>
     </g>
    </g>
    <g id="text_2">
     <!-- $y$ -->
     <g transform="translate(40.9 146.28)rotate(-90)scale(0.1 -0.1)">
      <defs>
       <path id="DejaVuSans-Oblique-79" d="M 1588 -325 
Q 1188 -997 936 -1164 
Q 684 -1331 294 -1331 
L -159 -1331 
L -63 -850 
L 269 -850 
Q 509 -850 678 -719 
Q 847 -588 1056 -206 
L 1234 128 
L 459 3500 
L 1069 3500 
L 1650 819 
L 3256 3500 
L 3859 3500 
L 1588 -325 
z
" transform="scale(0.015625)"/>
      </defs>
      <use xlink:href="#DejaVuSans-Oblique-79" transform="translate(0 0.3125)"/>
     </g>
    </g>
   </g>
   <g id="line2d_15">
    <path d="M 54 252 
L 60.832653 243.132591 
L 67.665306 234.311147 
L 74.497959 225.580687 
L 81.330612 216.984373 
L 88.163265 208.562684 
L 94.995918 200.352704 
L 101.828571 192.387536 
L 108.661224 184.695881 
L 115.493878 177.301767 
L 122.326531 170.224435 
L 129.159184 163.478369 
L 135.991837 157.073453 
L 142.82449 151.015236 
L 149.657143 145.305278 
L 156.489796 139.941557 
L 163.322449 134.918908 
L 170.155102 130.229483 
L 176.987755 125.863206 
L 183.820408 121.808214 
L 190.653061 118.051266 
L 197.485714 114.578124 
L 204.318367 111.373886 
L 211.15102 108.42329 
L 217.983673 105.710961 
L 224.816327 103.221625 
L 231.64898 100.940286 
L 238.481633 98.852364 
L 245.314286 96.943803 
L 252.146939 95.201148 
L 258.979592 93.611606 
L 265.812245 92.163077 
L 272.644898 90.844174 
L 279.477551 89.644227 
L 286.310204 88.553276 
L 293.142857 87.562057 
L 299.97551 86.661975 
L 306.808163 85.845084 
L 313.640816 85.10405 
L 320.473469 84.432122 
L 327.306122 83.823096 
L 334.138776 83.271281 
L 340.971429 82.771464 
L 347.804082 82.318878 
L 354.636735 81.90917 
L 361.469388 81.538366 
L 368.302041 81.202845 
L 375.134694 80.899311 
L 381.967347 80.624761 
L 388.8 80.37647 
" clip-path="url(#pab619dadda)" style="fill: none; stroke: #000000; stroke-width: 1.5; stroke-linecap: square"/>
   </g>
   <g id="line2d_16">
    <path d="M 54 252 
L 60.832653 247.563411 
L 67.665306 243.132591 
L 74.497959 238.713277 
L 81.330612 234.311147 
L 88.163265 229.931793 
L 94.995918 225.580687 
L 101.828571 221.26316 
L 108.661224 216.984373 
L 115.493878 212.749296 
L 122.326531 208.562684 
L 129.159184 204.429063 
L 135.991837 200.352704 
L 142.82449 196.337617 
L 149.657143 192.387536 
L 156.489796 188.505906 
L 163.322449 184.695881 
L 170.155102 180.960316 
L 176.987755 177.301767 
L 183.820408 173.722488 
L 190.653061 170.224435 
L 197.485714 166.809271 
L 204.318367 163.478369 
L 211.15102 160.232822 
L 217.983673 157.073453 
L 224.816327 154.00082 
L 231.64898 151.015236 
L 238.481633 148.116772 
L 245.314286 145.305278 
L 252.146939 142.580392 
L 258.979592 139.941557 
L 265.812245 137.388031 
L 272.644898 134.918908 
L 279.477551 132.533125 
L 286.310204 130.229483 
L 293.142857 128.006656 
L 299.97551 125.863206 
L 306.808163 123.7976 
L 313.640816 121.808214 
L 320.473469 119.893356 
L 327.306122 118.051266 
L 334.138776 116.280139 
L 340.971429 114.578124 
L 347.804082 112.94334 
L 354.636735 111.373886 
L 361.469388 109.867844 
L 368.302041 108.42329 
L 375.134694 107.038302 
L 381.967347 105.710961 
L 388.8 104.439364 
" clip-path="url(#pab619dadda)" style="fill: none; stroke: #000000; stroke-width: 1.5; stroke-linecap: square"/>
   </g>
   <g id="line2d_17">
    <path d="M 54 252 
L 60.832653 249.041918 
L 67.665306 246.085546 
L 74.497959 243.132591 
L 81.330612 240.184751 
L 88.163265 237.243713 
L 94.995918 234.311147 
L 101.828571 231.388707 
L 108.661224 228.478019 
L 115.493878 225.580687 
L 122.326531 222.698282 
L 129.159184 219.832344 
L 135.991837 216.984373 
L 142.82449 214.155833 
L 149.657143 211.348145 
L 156.489796 208.562684 
L 163.322449 205.80078 
L 170.155102 203.06371 
L 176.987755 200.352704 
L 183.820408 197.668935 
L 190.653061 195.013524 
L 197.485714 192.387536 
L 204.318367 189.791976 
L 211.15102 187.227794 
L 217.983673 184.695881 
L 224.816327 182.197067 
L 231.64898 179.732125 
L 238.481633 177.301767 
L 245.314286 174.906646 
L 252.146939 172.547357 
L 258.979592 170.224435 
L 265.812245 167.938359 
L 272.644898 165.689548 
L 279.477551 163.478369 
L 286.310204 161.305131 
L 293.142857 159.170091 
L 299.97551 157.073453 
L 306.808163 155.015369 
L 313.640816 152.995945 
L 320.473469 151.015236 
L 327.306122 149.073251 
L 334.138776 147.169957 
L 340.971429 145.305278 
L 347.804082 143.479095 
L 354.636735 141.691252 
L 361.469388 139.941557 
L 368.302041 138.22978 
L 375.134694 136.555661 
L 381.967347 134.918908 
L 388.8 133.319197 
" clip-path="url(#pab619dadda)" style="fill: none; stroke: #000000; stroke-width: 1.5; stroke-linecap: square"/>
   </g>
   <g id="line2d_18">
    <path d="M 54 252 
L 60.832653 247.562449 
L 67.665306 243.124898 
L 74.497959 238.687347 
L 81.330612 234.249796 
L 88.163265 229.812245 
L 94.995918 225.374694 
L 101.828571 220.937143 
L 108.661224 216.499592 
L 115.493878 212.062041 
L 122.326531 207.62449 
L 129.159184 203.186939 
L 135.991837 198.749388 
L 142.82449 194.311837 
L 149.657143 189.874286 
L 156.489796 185.436735 
L 163.322449 180.999184 
L 170.155102 176.561633 
L 176.987755 172.124082 
L 183.820408 167.686531 
L 190.653061 163.24898 
L 197.485714 158.811429 
L 204.318367 154.373878 
L 211.15102 149.936327 
L 217.983673 145.498776 
L 224.816327 141.061224 
L 231.64898 136.623673 
L 238.481633 132.186122 
L 245.314286 127.748571 
L 252.146939 123.31102 
L 258.979592 118.873469 
L 265.812245 114.435918 
L 272.644898 109.998367 
L 279.477551 105.560816 
L 286.310204 101.123265 
L 293.142857 96.685714 
L 299.97551 92.248163 
L 306.808163 87.810612 
L 313.640816 83.373061 
L 320.473469 78.93551 
L 327.306122 74.497959 
L 334.138776 70.060408 
L 340.971429 65.622857 
L 347.804082 61.185306 
L 354.636735 56.747755 
L 361.469388 52.310204 
L 368.302041 47.872653 
L 375.134694 43.435102 
L 381.967347 38.997551 
L 388.8 34.56 
" clip-path="url(#pab619dadda)" style="fill: none; stroke: #ff0000; stroke-width: 1.5; stroke-linecap: square"/>
   </g>
   <g id="line2d_19">
    <path d="M 54 78.048 
L 60.832653 78.048 
L 67.665306 78.048 
L 74.497959 78.048 
L 81.330612 78.048 
L 88.163265 78.048 
L 94.995918 78.048 
L 101.828571 78.048 
L 108.661224 78.048 
L 115.493878 78.048 
L 122.326531 78.048 
L 129.159184 78.048 
L 135.991837 78.048 
L 142.82449 78.048 
L 149.657143 78.048 
L 156.489796 78.048 
L 163.322449 78.048 
L 170.155102 78.048 
L 176.987755 78.048 
L 183.820408 78.048 
L 190.653061 78.048 
L 197.485714 78.048 
L 204.318367 78.048 
L 211.15102 78.048 
L 217.983673 78.048 
L 224.816327 78.048 
L 231.64898 78.048 
L 238.481633 78.048 
L 245.314286 78.048 
L 252.146939 78.048 
L 258.979592 78.048 
L 265.812245 78.048 
L 272.644898 78.048 
L 279.477551 78.048 
L 286.310204 78.048 
L 293.142857 78.048 
L 299.97551 78.048 
L 306.808163 78.048 
L 313.640816 78.048 
L 320.473469 78.048 
L 327.306122 78.048 
L 334.138776 78.048 
L 340.971429 78.048 
L 347.804082 78.048 
L 354.636735 78.048 
L 361.469388 78.048 
L 368.302041 78.048 
L 375.134694 78.048 
L 381.967347 78.048 
L 388.8 78.048 
" clip-path="url(#pab619dadda)" style="fill: none; stroke-dasharray: 5.55,2.4; stroke-dashoffset: 0; stroke: #0000ff; stroke-width: 1.5"/>
   </g>
   <g id="patch_3">
    <path d="M 54 252 
L 54 34.56 
" style="fill: none; stroke: #000000; stroke-width: 0.8; stroke-linejoin: miter; stroke-linecap: square"/>
   </g>
   <g id="patch_4">
    <path d="M 388.8 252 
L 388.8 34.56 
" style="fill: none; stroke: #000000; stroke-width: 0.8; stroke-linejoin: miter; stroke-linecap: square"/>
   </g>
   <g id="patch_5">
    <path d="M 54 252 
L 388.8 252 
" style="fill: none; stroke: #000000; stroke-width: 0.8; stroke-linejoin: miter; stroke-linecap: square"/>
   </g>
   <g id="patch_6">
    <path d="M 54 34.56 
L 388.8 34.56 
" style="fill: none; stroke: #000000; stroke-width: 0.8; stroke-linejoin: miter; stroke-linecap: square"/>
   </g>
   <g id="text_3">
    <!-- $y=\langle s \rangle$ -->
    <g transform="translate(308.448 60.6528)scale(0.1 -0.1)">
     <defs>
      <path id="DejaVuSans-3d" d="M 678 2906 
L 4684 2906 
L 4684 2381 
L 678 2381 
L 678 2906 
z
M 678 1631 
L 4684 1631 
L 4684 1100 
L 678 1100 
L 678 1631 
z
" transform="scale(0.015625)"/>
     </defs>
     <use xlink:href="#DejaVuSans-Oblique-79" transform="translate(0 0.125)"/>
     <use xlink:href="#DejaVuSans-3d" transform="translate(78.662109 0.125)"/>
     <use xlink:href="#DejaVuSans-27e8" transform="translate(181.933594 0.125)"/>
     <use xlink:href="#DejaVuSans-Oblique-73" transform="translate(220.947266 0.125)"/>
     <use xlink:href="#DejaVuSans-27e9" transform="translate(273.046875 0.125)"/>
    </g>
   </g>
   <g id="text_4">
    <!-- $T&lt;T_0$ -->
    <g transform="translate(94.176 165.024)scale(0.1 -0.1)">
     <defs>
      <path id="DejaVuSans-Oblique-54" d="M 378 4666 
L 4325 4666 
L 4225 4134 
L 2559 4134 
L 1759 0 
L 1125 0 
L 1925 4134 
L 275 4134 
L 378 4666 
z
" transform="scale(0.015625)"/>
      <path id="DejaVuSans-3c" d="M 4684 3150 
L 1459 2003 
L 4684 863 
L 4684 294 
L 678 1747 
L 678 2266 
L 4684 3719 
L 4684 3150 
z
" transform="scale(0.015625)"/>
      <path id="DejaVuSans-30" d="M 2034 4250 
Q 1547 4250 1301 3770 
Q 1056 3291 1056 2328 
Q 1056 1369 1301 889 
Q 1547 409 2034 409 
Q 2525 409 2770 889 
Q 3016 1369 3016 2328 
Q 3016 3291 2770 3770 
Q 2525 4250 2034 4250 
z
M 2034 4750 
Q 2819 4750 3233 4129 
Q 3647 3509 3647 2328 
Q 3647 1150 3233 529 
Q 2819 -91 2034 -91 
Q 1250 -91 836 529 
Q 422 1150 422 2328 
Q 422 3509 836 4129 
Q 1250 4750 2034 4750 
z
" transform="scale(0.015625)"/>
     </defs>
     <use xlink:href="#DejaVuSans-Oblique-54" transform="translate(0 0.09375)"/>
     <use xlink:href="#DejaVuSans-3c" transform="translate(80.566406 0.09375)"/>
     <use xlink:href="#DejaVuSans-Oblique-54" transform="translate(183.837891 0.09375)"/>
     <use xlink:href="#DejaVuSans-30" transform="translate(244.921875 -16.3125)scale(0.7)"/>
    </g>
   </g>
   <g id="text_5">
    <!-- $T=T_0$ -->
    <g transform="translate(295.056 112.8384)scale(0.1 -0.1)">
     <use xlink:href="#DejaVuSans-Oblique-54" transform="translate(0 0.09375)"/>
     <use xlink:href="#DejaVuSans-3d" transform="translate(80.566406 0.09375)"/>
     <use xlink:href="#DejaVuSans-Oblique-54" transform="translate(183.837891 0.09375)"/>
     <use xlink:href="#DejaVuSans-30" transform="translate(244.921875 -16.3125)scale(0.7)"/>
    </g>
   </g>
   <g id="text_6">
    <!-- $T&gt;T_0$ -->
    <g transform="translate(281.664 147.6288)scale(0.1 -0.1)">
     <defs>
      <path id="DejaVuSans-3e" d="M 678 3150 
L 678 3719 
L 4684 2266 
L 4684 1747 
L 678 294 
L 678 863 
L 3897 2003 
L 678 3150 
z
" transform="scale(0.015625)"/>
     </defs>
     <use xlink:href="#DejaVuSans-Oblique-54" transform="translate(0 0.09375)"/>
     <use xlink:href="#DejaVuSans-3e" transform="translate(80.566406 0.09375)"/>
     <use xlink:href="#DejaVuSans-Oblique-54" transform="translate(183.837891 0.09375)"/>
     <use xlink:href="#DejaVuSans-30" transform="translate(244.921875 -16.3125)scale(0.7)"/>
    </g>
   </g>
  </g>
 </g>
 <defs>
  <clipPath id="pab619dadda">
   <rect x="54" y="34.56" width="334.8" height="217.44"/>
  </clipPath>
 </defs>
</svg>
