<svg version="1.1" viewBox="0.0 0.0 175.48556430446195 174.51706036745406" fill="none" stroke="none" stroke-linecap="square" stroke-miterlimit="10" xmlns:xlink="http://www.w3.org/1999/xlink" xmlns="http://www.w3.org/2000/svg"><clipPath id="p.0"><path d="m0 0l175.48557 0l0 174.51706l-175.48557 0l0 -174.51706z" clip-rule="nonzero"/></clipPath><g clip-path="url(#p.0)"><path fill="#000000" fill-opacity="0.0" d="m0 0l175.48557 0l0 174.51706l-175.48557 0z" fill-rule="evenodd"/><g filter="url(#shadowFilter-p.1)"><use xlink:href="#p.1" transform="matrix(1.0 0.0 0.0 1.0 0.0 2.0)"/></g><defs><filter id="shadowFilter-p.1" filterUnits="userSpaceOnUse"><feGaussianBlur in="SourceAlpha" stdDeviation="2.0" result="blur"/><feComponentTransfer in="blur" color-interpolation-filters="sRGB"><feFuncR type="linear" slope="0" intercept="0.0"/><feFuncG type="linear" slope="0" intercept="0.0"/><feFuncB type="linear" slope="0" intercept="0.0"/><feFuncA type="linear" slope="0.5" intercept="0"/></feComponentTransfer></filter></defs><g id="p.1"><path fill="#000000" fill-opacity="0.0" d="m17.884514 34.569553l38.14173 0l0 42.01575l-38.14173 0z" fill-rule="evenodd"/><path fill="#000000" d="m33.52514 61.48955l-1.6875 0l0 -11.234375l-3.40625 1.25l0 -1.53125l4.828125 -1.8125l0.265625 0l0 13.328125z" fill-rule="nonzero"/></g><path fill="#000000" fill-opacity="0.0" d="m40.28609 24.078741l0 119.21259" fill-rule="evenodd"/><path stroke="#000000" stroke-width="1.0" stroke-linejoin="round" stroke-linecap="butt" d="m40.28609 27.505827l0 115.78551" fill-rule="evenodd"/><path fill="#000000" stroke="#000000" stroke-width="1.0" stroke-linecap="butt" d="m40.28609 27.505827l1.1245804 1.1245842l-1.1245804 -3.0897694l-1.1245842 3.0897694z" fill-rule="evenodd"/><path fill="#000000" fill-opacity="0.0" d="m159.49869 143.29134l-119.2126 0" fill-rule="evenodd"/><path stroke="#000000" stroke-width="1.0" stroke-linejoin="round" stroke-linecap="butt" d="m156.07161 143.29134l-115.78552 0" fill-rule="evenodd"/><path fill="#000000" stroke="#000000" stroke-width="1.0" stroke-linecap="butt" d="m156.0716 143.29134l-1.1245728 1.124588l3.0897675 -1.124588l-3.0897675 -1.124588z" fill-rule="evenodd"/><path fill="#000000" fill-opacity="0.0" d="m40.288715 54.11811c11.920383 2.503498 57.21828 0.16010284 71.52231 15.020996c14.304031 14.860893 11.918205 61.786964 14.301842 74.144356" fill-rule="evenodd"/><path stroke="#000000" stroke-width="1.0" stroke-linejoin="round" stroke-linecap="butt" d="m40.288715 54.11811c11.920383 2.503498 57.21828 0.16010284 71.52231 15.020996c14.304031 14.860893 11.918205 61.786964 14.301842 74.144356" fill-rule="evenodd"/><g filter="url(#shadowFilter-p.2)"><use xlink:href="#p.2" transform="matrix(1.0 0.0 0.0 1.0 0.0 2.0)"/></g><defs><filter id="shadowFilter-p.2" filterUnits="userSpaceOnUse"><feGaussianBlur in="SourceAlpha" stdDeviation="2.0" result="blur"/><feComponentTransfer in="blur" color-interpolation-filters="sRGB"><feFuncR type="linear" slope="0" intercept="0.0"/><feFuncG type="linear" slope="0" intercept="0.0"/><feFuncB type="linear" slope="0" intercept="0.0"/><feFuncA type="linear" slope="0.5" intercept="0"/></feComponentTransfer></filter></defs><g id="p.2"><path fill="#000000" fill-opacity="0.0" d="m108.71654 134.46457l47.685043 0l0 42.015747l-47.685043 0z" fill-rule="evenodd"/><path fill="#000000" d="m128.41966 149.55644l-4.265625 0l0 11.828125l-1.734375 0l0 -11.828125l-4.25 0l0 -1.4375l10.25 0l0 1.4375z" fill-rule="nonzero"/><path fill="#000000" d="m135.1296 164.61894q0 1.96875 -0.671875 2.9375q-0.671875 0.953125 -2.109375 0.953125q-1.421875 0 -2.109375 -0.9375q-0.671875 -0.9375 -0.6875 -2.8125l0 -1.5q0 -1.9375 0.671875 -2.890625q0.671875 -0.953125 2.109375 -0.953125q1.421875 0 2.09375 0.921875q0.6875 0.90625 0.703125 2.8125l0 1.46875zm-1.125 -1.546875q0 -1.421875 -0.40625 -2.078125q-0.390625 -0.65625 -1.265625 -0.65625q-0.859375 0 -1.265625 0.65625q-0.390625 0.65625 -0.390625 2.0l0 1.796875q0 1.4375 0.40625 2.125q0.421875 0.671875 1.265625 0.671875q0.828125 0 1.234375 -0.640625q0.40625 -0.640625 0.421875 -2.03125l0 -1.84375z" fill-rule="nonzero"/></g><g filter="url(#shadowFilter-p.3)"><use xlink:href="#p.3" transform="matrix(1.0 0.0 0.0 1.0 0.0 2.0)"/></g><defs><filter id="shadowFilter-p.3" filterUnits="userSpaceOnUse"><feGaussianBlur in="SourceAlpha" stdDeviation="2.0" result="blur"/><feComponentTransfer in="blur" color-interpolation-filters="sRGB"><feFuncR type="linear" slope="0" intercept="0.0"/><feFuncG type="linear" slope="0" intercept="0.0"/><feFuncB type="linear" slope="0" intercept="0.0"/><feFuncA type="linear" slope="0.5" intercept="0"/></feComponentTransfer></filter></defs><g id="p.3"><path fill="#000000" fill-opacity="0.0" d="m151.41733 122.28346l25.952744 0l0 42.015747l-25.952744 0z" fill-rule="evenodd"/><path fill="#000000" d="m171.12045 137.37534l-4.265625 0l0 11.828125l-1.734375 0l0 -11.828125l-4.25 0l0 -1.4375l10.25 0l0 1.4375z" fill-rule="nonzero"/></g><g filter="url(#shadowFilter-p.4)"><use xlink:href="#p.4" transform="matrix(1.0 0.0 0.0 1.0 0.0 2.0)"/></g><defs><filter id="shadowFilter-p.4" filterUnits="userSpaceOnUse"><feGaussianBlur in="SourceAlpha" stdDeviation="2.0" result="blur"/><feComponentTransfer in="blur" color-interpolation-filters="sRGB"><feFuncR type="linear" slope="0" intercept="0.0"/><feFuncG type="linear" slope="0" intercept="0.0"/><feFuncB type="linear" slope="0" intercept="0.0"/><feFuncA type="linear" slope="0.5" intercept="0"/></feComponentTransfer></filter></defs><g id="p.4"><path fill="#000000" fill-opacity="0.0" d="m0 0l53.165356 0l0 42.015747l-53.165356 0z" fill-rule="evenodd"/><path fill="#000000" d="m12.0 21.794998q1.375 1.328125 2.6875 3.84375q1.328125 2.5 1.65625 4.265625l-1.390625 0q-0.515625 -1.953125 -1.984375 -4.34375q-1.46875 -2.40625 -3.015625 -3.375l0 -0.859375q1.5 -0.921875 2.984375 -3.328125q1.5 -2.421875 2.015625 -4.390625l1.390625 0q-0.328125 1.734375 -1.65625 4.25q-1.3125 2.515625 -2.6875 3.859375l0 0.078125z" fill-rule="nonzero"/><path fill="#000000" d="m24.314377 24.310623q0 -0.6875 -0.515625 -1.0625q-0.515625 -0.375 -1.796875 -0.640625q-1.28125 -0.28125 -2.03125 -0.65625q-0.75 -0.390625 -1.109375 -0.921875q-0.359375 -0.53125 -0.359375 -1.265625q0 -1.203125 1.015625 -2.03125q1.03125 -0.84375 2.625 -0.84375q1.671875 0 2.71875 0.859375q1.046875 0.859375 1.046875 2.21875l-1.6875 0q0 -0.703125 -0.59375 -1.203125q-0.59375 -0.5 -1.484375 -0.5q-0.921875 0 -1.4375 0.40625q-0.515625 0.390625 -0.515625 1.046875q0 0.609375 0.484375 0.921875q0.484375 0.3125 1.734375 0.59375q1.265625 0.28125 2.046875 0.671875q0.78125 0.390625 1.15625 0.9375q0.390625 0.546875 0.390625 1.34375q0 1.328125 -1.0625 2.125q-1.046875 0.796875 -2.734375 0.796875q-1.1875 0 -2.109375 -0.421875q-0.90625 -0.421875 -1.421875 -1.171875q-0.515625 -0.75 -0.515625 -1.625l1.6875 0q0.046875 0.84375 0.671875 1.34375q0.640625 0.5 1.6875 0.5q0.953125 0 1.53125 -0.390625q0.578125 -0.390625 0.578125 -1.03125z" fill-rule="nonzero"/><path fill="#000000" d="m32.215256 21.716873q-1.359375 -1.328125 -2.6875 -3.84375q-1.328125 -2.515625 -1.65625 -4.265625l1.390625 0q0.53125 1.984375 2.015625 4.40625q1.484375 2.40625 2.984375 3.3125l0 0.859375q-1.5 0.921875 -3.0 3.34375q-1.484375 2.40625 -2.0 4.375l-1.390625 0q0.328125 -1.765625 1.65625 -4.265625q1.34375 -2.515625 2.6875 -3.84375l0 -0.078125z" fill-rule="nonzero"/></g></g></svg>