<svg version="1.1" viewBox="0.0 0.0 301.38057742782155 206.03674540682414" fill="none" stroke="none" stroke-linecap="square" stroke-miterlimit="10" xmlns:xlink="http://www.w3.org/1999/xlink" xmlns="http://www.w3.org/2000/svg"><clipPath id="p.0"><path d="m0 0l301.38058 0l0 206.03674l-301.38058 0l0 -206.03674z" clip-rule="nonzero"/></clipPath><g clip-path="url(#p.0)"><path fill="#000000" fill-opacity="0.0" d="m0 0l301.38058 0l0 206.03674l-301.38058 0z" fill-rule="evenodd"/><g filter="url(#shadowFilter-p.1)"><use xlink:href="#p.1" transform="matrix(1.0 0.0 0.0 1.0 0.0 2.0)"/></g><defs><filter id="shadowFilter-p.1" filterUnits="userSpaceOnUse"><feGaussianBlur in="SourceAlpha" stdDeviation="2.0" result="blur"/><feComponentTransfer in="blur" color-interpolation-filters="sRGB"><feFuncR type="linear" slope="0" intercept="0.0"/><feFuncG type="linear" slope="0" intercept="0.0"/><feFuncB type="linear" slope="0" intercept="0.0"/><feFuncA type="linear" slope="0.5" intercept="0"/></feComponentTransfer></filter></defs><g id="p.1"><path fill="#cfe2f3" d="m2.687664 2.0209973l294.6142 0l0 199.27559l-294.6142 0z" fill-rule="evenodd"/><path stroke="#000000" stroke-width="1.0" stroke-linejoin="round" stroke-linecap="butt" d="m2.687664 2.0209973l294.6142 0l0 199.27559l-294.6142 0z" fill-rule="evenodd"/></g><g filter="url(#shadowFilter-p.2)"><use xlink:href="#p.2" transform="matrix(1.0 0.0 0.0 1.0 0.0 2.0)"/></g><defs><filter id="shadowFilter-p.2" filterUnits="userSpaceOnUse"><feGaussianBlur in="SourceAlpha" stdDeviation="2.0" result="blur"/><feComponentTransfer in="blur" color-interpolation-filters="sRGB"><feFuncR type="linear" slope="0" intercept="0.0"/><feFuncG type="linear" slope="0" intercept="0.0"/><feFuncB type="linear" slope="0" intercept="0.0"/><feFuncA type="linear" slope="0.5" intercept="0"/></feComponentTransfer></filter></defs><g id="p.2"><path fill="#000000" fill-opacity="0.0" d="m19.267717 11.3307085l113.44882 0l0 87.27559l-113.44882 0z" fill-rule="evenodd"/><path fill="#000000" d="m43.90323 27.203833l-4.0625 0l0 11.046873l-2.734375 0l0 -11.046873l-4.015625 0l0 -2.21875l10.8125 0l0 2.21875zm5.10553 11.234373q-2.171875 0 -3.53125 -1.328125q-1.359375 -1.34375 -1.359375 -3.546875l0 -0.265625q0 -1.4843731 0.5625 -2.640623q0.578125 -1.171875 1.625 -1.796875q1.0625 -0.640625 2.40625 -0.640625q2.03125 0 3.1875 1.28125q1.15625 1.265625 1.15625 3.609373l0 1.0625l-6.265625 0q0.125 0.96875 0.765625 1.5625q0.640625 0.578125 1.625 0.578125q1.515625 0 2.375 -1.109375l1.296875 1.453125q-0.59375 0.84375 -1.609375 1.3125q-1.0 0.46875 -2.234375 0.46875zm-0.296875 -8.093748q-0.78125 0 -1.28125 0.53125q-0.484375 0.53125 -0.609375 1.5156231l3.65625 0l0 -0.21875q-0.015625 -0.8749981 -0.484375 -1.3437481q-0.453125 -0.484375 -1.28125 -0.484375zm11.381088 0.515625q-0.53125 -0.0625 -0.9375 -0.0625q-1.5 0 -1.96875 1.0l0 6.453123l-2.625 0l0 -9.859373l2.484375 0l0.078125 1.171875q0.78125 -1.34375 2.1875 -1.34375q0.4375 0 0.828125 0.109375l-0.046875 2.53125zm3.7422943 -2.46875l0.078125 1.109375q1.046875 -1.28125 2.828125 -1.28125q1.90625 0 2.625 1.5q1.03125 -1.5 2.953125 -1.5q1.609375 0 2.390625 0.9375q0.78125 0.921875 0.78125 2.796875l0 6.296873l-2.640625 0l0 -6.281248q0 -0.84375 -0.328125 -1.21875q-0.328125 -0.390625 -1.15625 -0.390625q-1.1875 0 -1.640625 1.125l0 6.765623l-2.625 0l0 -6.281248q0 -0.84375 -0.34375 -1.21875q-0.328125 -0.390625 -1.140625 -0.390625q-1.125 0 -1.625 0.921875l0 6.968748l-2.625 0l0 -9.859373l2.46875 0zm13.260513 4.843748q0 -1.4687481 0.5625 -2.609373q0.578125 -1.15625 1.640625 -1.78125q1.0625 -0.625 2.453125 -0.625q2.0 0 3.265625 1.21875q1.265625 1.21875 1.40625 3.312498l0.015625 0.671875q0 2.265625 -1.265625 3.640625q-1.265625 1.375 -3.40625 1.375q-2.125 0 -3.40625 -1.359375q-1.265625 -1.375 -1.265625 -3.734375l0 -0.109375zm2.640625 0.1875q0 1.40625 0.53125 2.15625q0.53125 0.734375 1.515625 0.734375q0.953125 0 1.484375 -0.734375q0.546875 -0.734375 0.546875 -2.34375q0 -1.3749981 -0.546875 -2.124998q-0.53125 -0.765625 -1.515625 -0.765625q-0.953125 0 -1.484375 0.75q-0.53125 0.75 -0.53125 2.328123zm13.658173 2.109375q0 -0.484375 -0.484375 -0.765625q-0.46875 -0.28125 -1.515625 -0.5q-3.53125 -0.734375 -3.53125 -2.984373q0 -1.3125 1.09375 -2.1875q1.09375 -0.875 2.84375 -0.875q1.875 0 3.0 0.890625q1.125 0.875 1.125 2.28125l-2.625 0q0 -0.5625 -0.375 -0.921875q-0.359375 -0.375 -1.125 -0.375q-0.671875 0 -1.03125 0.296875q-0.359375 0.296875 -0.359375 0.765625q0 0.4375 0.40625 0.703125q0.421875 0.2656231 1.40625 0.4687481q0.984375 0.1875 1.65625 0.4375q2.078125 0.765625 2.078125 2.65625q0 1.34375 -1.15625 2.1875q-1.15625 0.828125 -2.984375 0.828125q-1.234375 0 -2.203125 -0.4375q-0.953125 -0.453125 -1.5 -1.21875q-0.546875 -0.765625 -0.546875 -1.671875l2.484375 0q0.046875 0.703125 0.53125 1.078125q0.484375 0.375 1.28125 0.375q0.765625 0 1.140625 -0.28125q0.390625 -0.296875 0.390625 -0.75zm7.4048004 -9.562498l0 2.421875l1.6875 0l0 1.9375l-1.6875 0l0 4.921873q0 0.546875 0.203125 0.78125q0.21875 0.234375 0.8125 0.234375q0.4375 0 0.78125 -0.0625l0 2.0q-0.78125 0.234375 -1.59375 0.234375q-2.78125 0 -2.828125 -2.796875l0 -5.312498l-1.4375 0l0 -1.9375l1.4375 0l0 -2.421875l2.625 0zm8.866272 12.281248q-0.171875 -0.359375 -0.265625 -0.890625q-0.953125 1.078125 -2.484375 1.078125q-1.453125 0 -2.40625 -0.84375q-0.9375 -0.84375 -0.9375 -2.109375q0 -1.578125 1.15625 -2.40625q1.15625 -0.84375 3.359375 -0.84375l1.203125 0l0 -0.5781231q0 -0.671875 -0.359375 -1.078125q-0.34375 -0.421875 -1.09375 -0.421875q-0.65625 0 -1.046875 0.328125q-0.375 0.3125 -0.375 0.875l-2.625 0q0 -0.859375 0.515625 -1.578125q0.53125 -0.734375 1.5 -1.140625q0.96875 -0.421875 2.171875 -0.421875q1.8125 0 2.875 0.921875q1.078125 0.90625 1.078125 2.5625l0 4.265623q0.015625 1.40625 0.390625 2.125l0 0.15625l-2.65625 0zm-2.171875 -1.828125q0.578125 0 1.0625 -0.25q0.5 -0.265625 0.734375 -0.703125l0 -1.703125l-0.984375 0q-1.96875 0 -2.09375 1.375l-0.015625 0.15625q0 0.484375 0.34375 0.8125q0.34375 0.3125 0.953125 0.3125zm9.611603 -10.453123l0 2.421875l1.6875 0l0 1.9375l-1.6875 0l0 4.921873q0 0.546875 0.203125 0.78125q0.21875 0.234375 0.8125 0.234375q0.4375 0 0.78125 -0.0625l0 2.0q-0.78125 0.234375 -1.59375 0.234375q-2.78125 0 -2.828125 -2.796875l0 -5.312498l-1.4375 0l0 -1.9375l1.4375 0l0 -2.421875l2.625 0z" fill-rule="nonzero"/><path fill="#000000" d="m77.69027 54.525703l-5.75 0l0 4.6875l6.6875 0l0 1.4375l-8.421875 0l0 -13.265625l8.328125 0l0 1.4375l-6.59375 0l0 4.265625l5.75 0l0 1.4375z" fill-rule="nonzero"/><path fill="#000000" d="m81.637474 59.494453l0 1.578125l1.21875 0l0 0.875l-1.21875 0l0 4.078125q0 0.390625 0.15625 0.59375q0.171875 0.1875 0.5625 0.1875q0.203125 0 0.53125 -0.0625l0 0.90625q-0.4375 0.125 -0.859375 0.125q-0.75 0 -1.140625 -0.453125q-0.375 -0.46875 -0.375 -1.296875l0 -4.078125l-1.203125 0l0 -0.875l1.203125 0l0 -1.578125l1.125 0z" fill-rule="nonzero"/><path fill="#000000" d="m46.56983 83.050705l-1.765625 0l-6.671875 -10.21875l0 10.21875l-1.75 0l0 -13.265625l1.75 0l6.703125 10.265625l0 -10.265625l1.734375 0l0 13.265625z" fill-rule="nonzero"/><path fill="#000000" d="m50.510323 81.894455l0 1.578125l1.21875 0l0 0.875l-1.21875 0l0 4.078125q0 0.390625 0.15625 0.59375q0.171875 0.1875 0.5625 0.1875q0.203125 0 0.53125 -0.0625l0 0.90625q-0.4375 0.125 -0.859375 0.125q-0.75 0 -1.140625 -0.453125q-0.375 -0.46875 -0.375 -1.296875l0 -4.078125l-1.203125 0l0 -0.875l1.203125 0l0 -1.578125l1.125 0z" fill-rule="nonzero"/><path fill="#000000" d="m65.80097 75.62883l-7.59375 0l0 -1.453125l7.59375 0l0 1.453125zm0 3.78125l-7.59375 0l0 -1.453125l7.59375 0l0 1.453125z" fill-rule="nonzero"/><path fill="#000000" d="m76.12731 81.863205q0.875 0.015625 1.578125 -0.515625q0.71875 -0.53125 0.9375 -1.390625l1.5625 -0.015625q-0.140625 0.9375 -0.75 1.703125q-0.609375 0.765625 -1.53125 1.1875q-0.90625 0.421875 -1.875 0.40625q-1.234375 -0.03125 -2.09375 -0.640625q-0.84375 -0.625 -1.25 -1.734375q-0.390625 -1.125 -0.265625 -2.515625l0.046875 -0.46875q0.171875 -1.421875 0.828125 -2.53125q0.65625 -1.125 1.703125 -1.75q1.0625 -0.625 2.34375 -0.578125q1.546875 0.03125 2.46875 1.03125q0.9375 1.0 0.9375 2.546875l-1.546875 -0.015625q-0.015625 -0.96875 -0.53125 -1.5625q-0.515625 -0.59375 -1.40625 -0.625q-1.28125 -0.03125 -2.140625 0.953125q-0.84375 0.984375 -1.0625 2.75l-0.015625 0.234375q-0.0625 0.578125 -0.015625 1.203125q0.0625 1.0625 0.59375 1.6875q0.53125 0.609375 1.484375 0.640625zm10.861847 -8.84375q1.25 0.015625 2.125 0.671875q0.890625 0.65625 1.3125 1.8125q0.421875 1.140625 0.28125 2.515625l-0.015625 0.1875q-0.171875 1.453125 -0.859375 2.609375q-0.671875 1.15625 -1.765625 1.8125q-1.078125 0.640625 -2.375 0.609375q-1.234375 -0.03125 -2.125 -0.671875q-0.875 -0.65625 -1.296875 -1.78125q-0.40625 -1.140625 -0.28125 -2.5q0.140625 -1.53125 0.828125 -2.75q0.6875 -1.21875 1.78125 -1.890625q1.09375 -0.671875 2.390625 -0.625zm-3.34375 5.28125q-0.0625 0.5625 0 1.1875q0.09375 1.078125 0.640625 1.71875q0.546875 0.625 1.46875 0.65625q0.828125 0.03125 1.515625 -0.390625q0.6875 -0.4375 1.15625 -1.3125q0.484375 -0.875 0.625 -1.953125q0.0625 -0.828125 0.015625 -1.40625q-0.109375 -1.09375 -0.671875 -1.734375q-0.546875 -0.640625 -1.46875 -0.671875q-1.265625 -0.03125 -2.171875 1.0q-0.890625 1.03125 -1.09375 2.6875l-0.015625 0.21875zm11.55278 -5.109375l-0.234375 1.234375q1.328125 -1.453125 3.03125 -1.40625q1.390625 0.03125 2.046875 0.96875q0.671875 0.921875 0.5 2.609375l-1.078125 6.453125l-1.640625 0l1.078125 -6.484375q0.0625 -0.453125 0.015625 -0.828125q-0.15625 -1.28125 -1.515625 -1.3125q-1.484375 -0.015625 -2.59375 1.59375l-1.21875 7.03125l-1.65625 0l1.71875 -9.859375l1.546875 0zm12.918854 7.1875q0.125 -1.015625 -1.125 -1.4375l-1.71875 -0.5q-2.15625 -0.75 -2.09375 -2.484375q0.0625 -1.296875 1.1875 -2.125q1.125 -0.84375 2.65625 -0.8125q1.484375 0.015625 2.421875 0.875q0.9375 0.84375 0.90625 2.203125l-1.640625 0q0.015625 -0.75 -0.46875 -1.203125q-0.484375 -0.46875 -1.28125 -0.484375q-0.859375 -0.015625 -1.484375 0.421875q-0.578125 0.40625 -0.65625 1.0625q-0.125 0.859375 1.046875 1.25l0.828125 0.234375q1.6875 0.4375 2.390625 1.140625q0.71875 0.703125 0.671875 1.734375q-0.0625 0.921875 -0.609375 1.609375q-0.546875 0.671875 -1.453125 1.03125q-0.90625 0.359375 -1.9375 0.34375q-1.578125 -0.03125 -2.59375 -0.921875q-1.015625 -0.890625 -0.984375 -2.3125l1.65625 0.015625q0 0.828125 0.515625 1.328125q0.53125 0.5 1.453125 0.5q0.90625 0.015625 1.5625 -0.375q0.65625 -0.40625 0.75 -1.09375zm7.66922 -9.578125l-0.421875 2.390625l1.796875 0l-0.234375 1.3125l-1.78125 0l-1.03125 6.125q-0.03125 0.234375 -0.015625 0.4375q0.078125 0.703125 0.78125 0.703125q0.296875 0 0.796875 -0.078125l-0.125 1.375q-0.59375 0.15625 -1.203125 0.15625q-0.984375 -0.015625 -1.484375 -0.71875q-0.484375 -0.703125 -0.375 -1.90625l1.0 -6.09375l-1.734375 0l0.234375 -1.3125l1.734375 0l0.421875 -2.390625l1.640625 0z" fill-rule="nonzero"/></g><g filter="url(#shadowFilter-p.3)"><use xlink:href="#p.3" transform="matrix(1.0 0.0 0.0 1.0 0.0 2.0)"/></g><defs><filter id="shadowFilter-p.3" filterUnits="userSpaceOnUse"><feGaussianBlur in="SourceAlpha" stdDeviation="2.0" result="blur"/><feComponentTransfer in="blur" color-interpolation-filters="sRGB"><feFuncR type="linear" slope="0" intercept="0.0"/><feFuncG type="linear" slope="0" intercept="0.0"/><feFuncB type="linear" slope="0" intercept="0.0"/><feFuncA type="linear" slope="0.5" intercept="0"/></feComponentTransfer></filter></defs><g id="p.3"><path fill="#fff2cc" d="m156.2021 113.41765l0 0c0 -9.091858 7.370407 -16.462265 16.462265 -16.462265l103.70538 0c4.3660583 0 8.553314 1.7344131 11.6405945 4.821686c3.0872498 3.0872726 4.821686 7.274521 4.821686 11.640579l0 65.84711c0 9.091873 -7.3704224 16.46228 -16.46228 16.46228l-103.70538 0c-9.091858 0 -16.462265 -7.370407 -16.462265 -16.46228z" fill-rule="evenodd"/><path stroke="#000000" stroke-width="1.0" stroke-linejoin="round" stroke-linecap="butt" stroke-dasharray="4.0,3.0" d="m156.2021 113.41765l0 0c0 -9.091858 7.370407 -16.462265 16.462265 -16.462265l103.70538 0c4.3660583 0 8.553314 1.7344131 11.6405945 4.821686c3.0872498 3.0872726 4.821686 7.274521 4.821686 11.640579l0 65.84711c0 9.091873 -7.3704224 16.46228 -16.46228 16.46228l-103.70538 0c-9.091858 0 -16.462265 -7.370407 -16.462265 -16.46228z" fill-rule="evenodd"/></g><g filter="url(#shadowFilter-p.4)"><use xlink:href="#p.4" transform="matrix(1.0 0.0 0.0 1.0 0.0 2.0)"/></g><defs><filter id="shadowFilter-p.4" filterUnits="userSpaceOnUse"><feGaussianBlur in="SourceAlpha" stdDeviation="2.0" result="blur"/><feComponentTransfer in="blur" color-interpolation-filters="sRGB"><feFuncR type="linear" slope="0" intercept="0.0"/><feFuncG type="linear" slope="0" intercept="0.0"/><feFuncB type="linear" slope="0" intercept="0.0"/><feFuncA type="linear" slope="0.5" intercept="0"/></feComponentTransfer></filter></defs><g id="p.4"><path fill="#000000" fill-opacity="0.0" d="m156.2021 91.396324l136.62993 0l0 109.88976l-136.62993 0z" fill-rule="evenodd"/><path fill="#000000" d="m168.9524 118.31632l0 -13.265625l4.640625 0q2.421875 0 3.65625 0.921875q1.25 0.921875 1.25 2.71875q0 0.96875 -0.5 1.71875q-0.5 0.734375 -1.390625 1.078125q1.015625 0.265625 1.609375 1.046875q0.59375 0.765625 0.59375 1.875q0 1.921875 -1.234375 2.90625q-1.21875 0.984375 -3.46875 1.0l-5.15625 0zm2.734375 -5.78125l0 3.578125l2.34375 0q0.953125 0 1.5 -0.453125q0.546875 -0.453125 0.546875 -1.265625q0 -1.828125 -1.890625 -1.859375l-2.5 0zm0 -1.921875l2.015625 0q2.0625 -0.046875 2.0625 -1.65625q0 -0.890625 -0.53125 -1.28125q-0.515625 -0.40625 -1.640625 -0.40625l-1.90625 0l0 3.34375zm14.702988 7.703125q-0.171875 -0.359375 -0.265625 -0.890625q-0.953125 1.078125 -2.484375 1.078125q-1.453125 0 -2.40625 -0.84375q-0.9375 -0.84375 -0.9375 -2.109375q0 -1.578125 1.15625 -2.40625q1.15625 -0.84375 3.359375 -0.84375l1.203125 0l0 -0.578125q0 -0.671875 -0.359375 -1.078125q-0.34375 -0.421875 -1.09375 -0.421875q-0.65625 0 -1.046875 0.328125q-0.375 0.3125 -0.375 0.875l-2.625 0q0 -0.859375 0.515625 -1.578125q0.53125 -0.734375 1.5 -1.140625q0.96875 -0.421875 2.171875 -0.421875q1.8125 0 2.875 0.921875q1.078125 0.90625 1.078125 2.5625l0 4.265625q0.015625 1.40625 0.390625 2.125l0 0.15625l-2.65625 0zm-2.171875 -1.828125q0.578125 0 1.0625 -0.25q0.5 -0.265625 0.734375 -0.703125l0 -1.703125l-0.984375 0q-1.96875 0 -2.09375 1.375l-0.015625 0.15625q0 0.484375 0.34375 0.8125q0.34375 0.3125 0.953125 0.3125zm6.049103 -3.171875q0 -2.3125 1.03125 -3.671875q1.046875 -1.359375 2.84375 -1.359375q1.4375 0 2.375 1.0625l0 -5.03125l2.640625 0l0 14.0l-2.375 0l-0.125 -1.046875q-0.984375 1.234375 -2.53125 1.234375q-1.75 0 -2.8125 -1.375q-1.046875 -1.375 -1.046875 -3.8125zm2.640625 0.1875q0 1.390625 0.484375 2.125q0.484375 0.734375 1.40625 0.734375q1.21875 0 1.71875 -1.03125l0 -3.890625q-0.5 -1.015625 -1.703125 -1.015625q-1.90625 0 -1.90625 3.078125zm13.996735 4.8125q-0.171875 -0.359375 -0.265625 -0.890625q-0.953125 1.078125 -2.484375 1.078125q-1.453125 0 -2.40625 -0.84375q-0.9375 -0.84375 -0.9375 -2.109375q0 -1.578125 1.15625 -2.40625q1.15625 -0.84375 3.359375 -0.84375l1.203125 0l0 -0.578125q0 -0.671875 -0.359375 -1.078125q-0.34375 -0.421875 -1.09375 -0.421875q-0.65625 0 -1.046875 0.328125q-0.375 0.3125 -0.375 0.875l-2.625 0q0 -0.859375 0.515625 -1.578125q0.53125 -0.734375 1.5 -1.140625q0.96875 -0.421875 2.171875 -0.421875q1.8125 0 2.875 0.921875q1.078125 0.90625 1.078125 2.5625l0 4.265625q0.015625 1.40625 0.390625 2.125l0 0.15625l-2.65625 0zm-2.171875 -1.828125q0.578125 0 1.0625 -0.25q0.5 -0.265625 0.734375 -0.703125l0 -1.703125l-0.984375 0q-1.96875 0 -2.09375 1.375l-0.015625 0.15625q0 0.484375 0.34375 0.8125q0.34375 0.3125 0.953125 0.3125zm8.892853 -8.03125l0.078125 1.140625q1.0625 -1.3125 2.828125 -1.3125q1.578125 0 2.34375 0.921875q0.765625 0.90625 0.78125 2.734375l0 6.375l-2.640625 0l0 -6.296875q0 -0.84375 -0.359375 -1.21875q-0.359375 -0.375 -1.21875 -0.375q-1.109375 0 -1.65625 0.9375l0 6.953125l-2.640625 0l0 -9.859375l2.484375 0zm11.698593 6.140625l1.828125 -6.140625l2.828125 0l-3.96875 11.390625l-0.21875 0.515625q-0.890625 1.9375 -2.921875 1.9375q-0.5625 0 -1.15625 -0.171875l0 -2.0l0.390625 0.015625q0.75 0 1.109375 -0.234375q0.375 -0.234375 0.59375 -0.75l0.3125 -0.8125l-3.453125 -9.890625l2.828125 0l1.828125 6.140625zm16.244781 2.71875q-0.984375 1.1875 -2.703125 1.1875q-1.59375 0 -2.421875 -0.90625q-0.828125 -0.921875 -0.84375 -2.671875l0 -6.46875l2.625 0l0 6.375q0 1.53125 1.40625 1.53125q1.34375 0 1.84375 -0.921875l0 -6.984375l2.640625 0l0 9.859375l-2.484375 0l-0.0625 -1.0zm8.111359 -2.953125l-0.953125 0.953125l0 3.0l-2.625 0l0 -14.0l2.625 0l0 7.765625l0.515625 -0.65625l2.515625 -2.96875l3.171875 0l-3.5625 4.109375l3.859375 5.75l-3.015625 0l-2.53125 -3.953125zm9.481415 -4.34375l1.296875 -0.421875l0 1.515625l-1.296875 0.421875l0 6.78125l-2.640625 0l0 -5.90625l-1.203125 0.40625l0 -1.515625l1.203125 -0.40625l0 -6.578125l2.640625 0l0 5.703125zm8.31192 8.296875q-0.171875 -0.359375 -0.265625 -0.890625q-0.953125 1.078125 -2.484375 1.078125q-1.453125 0 -2.40625 -0.84375q-0.9375 -0.84375 -0.9375 -2.109375q0 -1.578125 1.15625 -2.40625q1.15625 -0.84375 3.359375 -0.84375l1.203125 0l0 -0.578125q0 -0.671875 -0.359375 -1.078125q-0.34375 -0.421875 -1.09375 -0.421875q-0.65625 0 -1.046875 0.328125q-0.375 0.3125 -0.375 0.875l-2.625 0q0 -0.859375 0.515625 -1.578125q0.53125 -0.734375 1.5 -1.140625q0.96875 -0.421875 2.171875 -0.421875q1.8125 0 2.875 0.921875q1.078125 0.90625 1.078125 2.5625l0 4.265625q0.015625 1.40625 0.390625 2.125l0 0.15625l-2.65625 0zm-2.171875 -1.828125q0.578125 0 1.0625 -0.25q0.5 -0.265625 0.734375 -0.703125l0 -1.703125l-0.984375 0q-1.96875 0 -2.09375 1.375l-0.015625 0.15625q0 0.484375 0.34375 0.8125q0.34375 0.3125 0.953125 0.3125zm6.049103 -3.171875q0 -2.3125 1.03125 -3.671875q1.046875 -1.359375 2.84375 -1.359375q1.4375 0 2.375 1.0625l0 -5.03125l2.640625 0l0 14.0l-2.375 0l-0.125 -1.046875q-0.984375 1.234375 -2.53125 1.234375q-1.75 0 -2.8125 -1.375q-1.046875 -1.375 -1.046875 -3.8125zm2.640625 0.1875q0 1.390625 0.484375 2.125q0.484375 0.734375 1.40625 0.734375q1.21875 0 1.71875 -1.03125l0 -3.890625q-0.5 -1.015625 -1.703125 -1.015625q-1.90625 0 -1.90625 3.078125z" fill-rule="nonzero"/><path fill="#000000" d="m206.81198 134.59132l-5.75 0l0 4.6875l6.6875 0l0 1.4375l-8.421875 0l0 -13.265625l8.328125 0l0 1.4375l-6.59375 0l0 4.265625l5.75 0l0 1.4375zm8.59697 0.265625l5.703125 2.296875l0 1.78125l-7.453125 -3.453125l0 -1.328125l7.453125 -3.4375l0 1.78125l-5.703125 2.359375zm9.482986 0l5.703125 2.296875l0 1.78125l-7.453125 -3.453125l0 -1.328125l7.453125 -3.4375l0 1.78125l-5.703125 2.359375zm20.726501 -0.265625l-5.75 0l0 4.6875l6.6875 0l0 1.4375l-8.421875 0l0 -13.265625l8.328125 0l0 1.4375l-6.59375 0l0 4.265625l5.75 0l0 1.4375z" fill-rule="nonzero"/><path fill="#000000" d="m249.56564 139.56007l0 1.578125l1.21875 0l0 0.875l-1.21875 0l0 4.078125q0 0.390625 0.15625 0.59375q0.171875 0.1875 0.5625 0.1875q0.203125 0 0.53125 -0.0625l0 0.90625q-0.4375 0.125 -0.859375 0.125q-0.75 0 -1.140625 -0.453125q-0.375 -0.46875 -0.375 -1.296875l0 -4.078125l-1.203125 0l0 -0.875l1.203125 0l0 -1.578125l1.125 0z" fill-rule="nonzero"/><path fill="#000000" d="m206.8187 163.11632l-1.765625 0l-6.671875 -10.21875l0 10.21875l-1.75 0l0 -13.265625l1.75 0l6.703125 10.265625l0 -10.265625l1.734375 0l0 13.265625zm8.590256 -5.859375l5.703125 2.296875l0 1.78125l-7.453125 -3.453125l0 -1.328125l7.453125 -3.4375l0 1.78125l-5.703125 2.359375zm9.482986 0l5.703125 2.296875l0 1.78125l-7.453125 -3.453125l0 -1.328125l7.453125 -3.4375l0 1.78125l-5.703125 2.359375zm23.429626 5.859375l-1.765625 0l-6.671875 -10.21875l0 10.21875l-1.75 0l0 -13.265625l1.75 0l6.703125 10.265625l0 -10.265625l1.734375 0l0 13.265625z" fill-rule="nonzero"/><path fill="#000000" d="m252.26205 161.96007l0 1.578125l1.21875 0l0 0.875l-1.21875 0l0 4.078125q0 0.390625 0.15625 0.59375q0.171875 0.1875 0.5625 0.1875q0.203125 0 0.53125 -0.0625l0 0.90625q-0.4375 0.125 -0.859375 0.125q-0.75 0 -1.140625 -0.453125q-0.375 -0.46875 -0.375 -1.296875l0 -4.078125l-1.203125 0l0 -0.875l1.203125 0l0 -1.578125l1.125 0z" fill-rule="nonzero"/><path fill="#000000" d="m197.12614 185.51633l-1.765625 0l-6.671875 -10.21875l0 10.21875l-1.75 0l0 -13.265625l1.75 0l6.703125 10.265625l0 -10.265625l1.734375 0l0 13.265625zm15.168381 -7.421875l-7.59375 0l0 -1.453125l7.59375 0l0 1.453125zm0 3.78125l-7.59375 0l0 -1.453125l7.59375 0l0 1.453125z" fill-rule="nonzero"/><path fill="#000000" d="m222.62086 184.32883q0.875 0.015625 1.578125 -0.515625q0.71875 -0.53125 0.9375 -1.390625l1.5625 -0.015625q-0.140625 0.9375 -0.75 1.703125q-0.609375 0.765625 -1.53125 1.1875q-0.90625 0.421875 -1.875 0.40625q-1.234375 -0.03125 -2.09375 -0.640625q-0.84375 -0.625 -1.25 -1.734375q-0.390625 -1.125 -0.265625 -2.515625l0.046875 -0.46875q0.171875 -1.421875 0.828125 -2.53125q0.65625 -1.125 1.703125 -1.75q1.0625 -0.625 2.34375 -0.578125q1.546875 0.03125 2.46875 1.03125q0.9375 1.0 0.9375 2.546875l-1.546875 -0.015625q-0.015625 -0.96875 -0.53125 -1.5625q-0.515625 -0.59375 -1.40625 -0.625q-1.28125 -0.03125 -2.140625 0.953125q-0.84375 0.984375 -1.0625 2.75l-0.015625 0.234375q-0.0625 0.578125 -0.015625 1.203125q0.0625 1.0625 0.59375 1.6875q0.53125 0.609375 1.484375 0.640625zm10.861847 -8.84375q1.25 0.015625 2.125 0.671875q0.890625 0.65625 1.3125 1.8125q0.421875 1.140625 0.28125 2.515625l-0.015625 0.1875q-0.171875 1.453125 -0.859375 2.609375q-0.671875 1.15625 -1.765625 1.8125q-1.078125 0.640625 -2.375 0.609375q-1.234375 -0.03125 -2.125 -0.671875q-0.875 -0.65625 -1.296875 -1.78125q-0.40625 -1.140625 -0.28125 -2.5q0.140625 -1.53125 0.828125 -2.75q0.6875 -1.21875 1.78125 -1.890625q1.09375 -0.671875 2.390625 -0.625zm-3.34375 5.28125q-0.0625 0.5625 0 1.1875q0.09375 1.078125 0.640625 1.71875q0.546875 0.625 1.46875 0.65625q0.828125 0.03125 1.515625 -0.390625q0.6875 -0.4375 1.15625 -1.3125q0.484375 -0.875 0.625 -1.953125q0.0625 -0.828125 0.015625 -1.40625q-0.109375 -1.09375 -0.671875 -1.734375q-0.546875 -0.640625 -1.46875 -0.671875q-1.265625 -0.03125 -2.171875 1.0q-0.890625 1.03125 -1.09375 2.6875l-0.015625 0.21875zm11.55278 -5.109375l-0.234375 1.234375q1.328125 -1.453125 3.03125 -1.40625q1.390625 0.03125 2.046875 0.96875q0.671875 0.921875 0.5 2.609375l-1.078125 6.453125l-1.640625 0l1.078125 -6.484375q0.0625 -0.453125 0.015625 -0.828125q-0.15625 -1.28125 -1.515625 -1.3125q-1.484375 -0.015625 -2.59375 1.59375l-1.21875 7.03125l-1.65625 0l1.71875 -9.859375l1.546875 0zm12.918854 7.1875q0.125 -1.015625 -1.125 -1.4375l-1.71875 -0.5q-2.15625 -0.75 -2.09375 -2.484375q0.0625 -1.296875 1.1875 -2.125q1.125 -0.84375 2.65625 -0.8125q1.484375 0.015625 2.421875 0.875q0.9375 0.84375 0.90625 2.203125l-1.640625 0q0.015625 -0.75 -0.46875 -1.203125q-0.484375 -0.46875 -1.28125 -0.484375q-0.859375 -0.015625 -1.484375 0.421875q-0.578125 0.40625 -0.65625 1.0625q-0.125 0.859375 1.046875 1.25l0.828125 0.234375q1.6875 0.4375 2.390625 1.140625q0.71875 0.703125 0.671875 1.734375q-0.0625 0.921875 -0.609375 1.609375q-0.546875 0.671875 -1.453125 1.03125q-0.90625 0.359375 -1.9375 0.34375q-1.578125 -0.03125 -2.59375 -0.921875q-1.015625 -0.890625 -0.984375 -2.3125l1.65625 0.015625q0 0.828125 0.515625 1.328125q0.53125 0.5 1.453125 0.5q0.90625 0.015625 1.5625 -0.375q0.65625 -0.40625 0.75 -1.09375zm7.66922 -9.578125l-0.421875 2.390625l1.796875 0l-0.234375 1.3125l-1.78125 0l-1.03125 6.125q-0.03125 0.234375 -0.015625 0.4375q0.078125 0.703125 0.78125 0.703125q0.296875 0 0.796875 -0.078125l-0.125 1.375q-0.59375 0.15625 -1.203125 0.15625q-0.984375 -0.015625 -1.484375 -0.71875q-0.484375 -0.703125 -0.375 -1.90625l1.0 -6.09375l-1.734375 0l0.234375 -1.3125l1.734375 0l0.421875 -2.390625l1.640625 0z" fill-rule="nonzero"/></g></g></svg>