<svg version="1.1" viewBox="0.0 0.0 404.3595800524934 100.0" fill="none" stroke="none" stroke-linecap="square" stroke-miterlimit="10" xmlns:xlink="http://www.w3.org/1999/xlink" xmlns="http://www.w3.org/2000/svg"><clipPath id="p.0"><path d="m0 0l404.3596 0l0 100.0l-404.3596 0l0 -100.0z" clip-rule="nonzero"/></clipPath><g clip-path="url(#p.0)"><path fill="#000000" fill-opacity="0.0" d="m0 0l404.3596 0l0 100.0l-404.3596 0z" fill-rule="evenodd"/><path fill="#000000" fill-opacity="0.0" d="m247.31496 54.88714l136.91338 0" fill-rule="evenodd"/><path stroke="#000000" stroke-width="2.0" stroke-linejoin="round" stroke-linecap="butt" d="m247.31496 54.88714l136.91338 0" fill-rule="evenodd"/><path fill="#000000" fill-opacity="0.0" d="m21.937008 54.88714l136.91338 0" fill-rule="evenodd"/><path stroke="#000000" stroke-width="2.0" stroke-linejoin="round" stroke-linecap="butt" d="m21.937008 54.88714l136.91338 0" fill-rule="evenodd"/><path fill="#000000" d="m8.582677 54.88714l0 0c0 -3.6876945 2.9894686 -6.677166 6.677166 -6.677166l0 0c1.770894 0 3.4692564 0.7034874 4.721469 1.9556961c1.2522106 1.2522125 1.9556961 2.9505768 1.9556961 4.72147l0 0c0 3.6876984 -2.9894695 6.677166 -6.677165 6.677166l0 0c-3.6876974 0 -6.677166 -2.9894676 -6.677166 -6.677166z" fill-rule="evenodd"/><path stroke="#000000" stroke-width="1.0" stroke-linejoin="round" stroke-linecap="butt" d="m8.582677 54.88714l0 0c0 -3.6876945 2.9894686 -6.677166 6.677166 -6.677166l0 0c1.770894 0 3.4692564 0.7034874 4.721469 1.9556961c1.2522106 1.2522125 1.9556961 2.9505768 1.9556961 4.72147l0 0c0 3.6876984 -2.9894695 6.677166 -6.677165 6.677166l0 0c-3.6876974 0 -6.677166 -2.9894676 -6.677166 -6.677166z" fill-rule="evenodd"/><path fill="#000000" d="m83.708664 54.88714l0 0c0 -3.6876945 2.9894638 -6.677166 6.677162 -6.677166l0 0c1.7708969 0 3.4692612 0.7034874 4.721466 1.9556961c1.2522125 1.2522125 1.9557037 2.9505768 1.9557037 4.72147l0 0c0 3.6876984 -2.9894714 6.677166 -6.67717 6.677166l0 0c-3.6876984 0 -6.677162 -2.9894676 -6.677162 -6.677166z" fill-rule="evenodd"/><path stroke="#000000" stroke-width="1.0" stroke-linejoin="round" stroke-linecap="butt" d="m83.708664 54.88714l0 0c0 -3.6876945 2.9894638 -6.677166 6.677162 -6.677166l0 0c1.7708969 0 3.4692612 0.7034874 4.721466 1.9556961c1.2522125 1.2522125 1.9557037 2.9505768 1.9557037 4.72147l0 0c0 3.6876984 -2.9894714 6.677166 -6.67717 6.677166l0 0c-3.6876984 0 -6.677162 -2.9894676 -6.677162 -6.677166z" fill-rule="evenodd"/><path fill="#000000" d="m158.83464 54.88714l0 0c0 -3.6876945 2.9894714 -6.677166 6.67717 -6.677166l0 0c1.7708893 0 3.4692535 0.7034874 4.721466 1.9556961c1.2522125 1.2522125 1.9557037 2.9505768 1.9557037 4.72147l0 0c0 3.6876984 -2.9894714 6.677166 -6.67717 6.677166l0 0c-3.6876984 0 -6.67717 -2.9894676 -6.67717 -6.677166z" fill-rule="evenodd"/><path stroke="#000000" stroke-width="1.0" stroke-linejoin="round" stroke-linecap="butt" d="m158.83464 54.88714l0 0c0 -3.6876945 2.9894714 -6.677166 6.67717 -6.677166l0 0c1.7708893 0 3.4692535 0.7034874 4.721466 1.9556961c1.2522125 1.2522125 1.9557037 2.9505768 1.9557037 4.72147l0 0c0 3.6876984 -2.9894714 6.677166 -6.67717 6.677166l0 0c-3.6876984 0 -6.67717 -2.9894676 -6.67717 -6.677166z" fill-rule="evenodd"/><path fill="#000000" d="m233.96063 54.88714l0 0c0 -3.6876945 2.9894714 -6.677166 6.67717 -6.677166l0 0c1.7708893 0 3.4692535 0.7034874 4.721466 1.9556961c1.2522125 1.2522125 1.9556885 2.9505768 1.9556885 4.72147l0 0c0 3.6876984 -2.9894714 6.677166 -6.6771545 6.677166l0 0c-3.6876984 0 -6.67717 -2.9894676 -6.67717 -6.677166z" fill-rule="evenodd"/><path stroke="#000000" stroke-width="1.0" stroke-linejoin="round" stroke-linecap="butt" d="m233.96063 54.88714l0 0c0 -3.6876945 2.9894714 -6.677166 6.67717 -6.677166l0 0c1.7708893 0 3.4692535 0.7034874 4.721466 1.9556961c1.2522125 1.2522125 1.9556885 2.9505768 1.9556885 4.72147l0 0c0 3.6876984 -2.9894714 6.677166 -6.6771545 6.677166l0 0c-3.6876984 0 -6.67717 -2.9894676 -6.67717 -6.677166z" fill-rule="evenodd"/><path fill="#000000" d="m309.0866 54.88714l0 0c0 -3.6876945 2.9894714 -6.677166 6.677185 -6.677166l0 0c1.770874 0 3.4692383 0.7034874 4.721466 1.9556961c1.2521973 1.2522125 1.9556885 2.9505768 1.9556885 4.72147l0 0c0 3.6876984 -2.9894714 6.677166 -6.6771545 6.677166l0 0c-3.6877136 0 -6.677185 -2.9894676 -6.677185 -6.677166z" fill-rule="evenodd"/><path stroke="#000000" stroke-width="1.0" stroke-linejoin="round" stroke-linecap="butt" d="m309.0866 54.88714l0 0c0 -3.6876945 2.9894714 -6.677166 6.677185 -6.677166l0 0c1.770874 0 3.4692383 0.7034874 4.721466 1.9556961c1.2521973 1.2522125 1.9556885 2.9505768 1.9556885 4.72147l0 0c0 3.6876984 -2.9894714 6.677166 -6.6771545 6.677166l0 0c-3.6877136 0 -6.677185 -2.9894676 -6.677185 -6.677166z" fill-rule="evenodd"/><path fill="#000000" d="m384.2126 54.88714l0 0c0 -3.6876945 2.9894714 -6.677166 6.677185 -6.677166l0 0c1.770874 0 3.4692383 0.7034874 4.721466 1.9556961c1.2521973 1.2522125 1.9556885 2.9505768 1.9556885 4.72147l0 0c0 3.6876984 -2.9894714 6.677166 -6.6771545 6.677166l0 0c-3.6877136 0 -6.677185 -2.9894676 -6.677185 -6.677166z" fill-rule="evenodd"/><path stroke="#000000" stroke-width="1.0" stroke-linejoin="round" stroke-linecap="butt" d="m384.2126 54.88714l0 0c0 -3.6876945 2.9894714 -6.677166 6.677185 -6.677166l0 0c1.770874 0 3.4692383 0.7034874 4.721466 1.9556961c1.2521973 1.2522125 1.9556885 2.9505768 1.9556885 4.72147l0 0c0 3.6876984 -2.9894714 6.677166 -6.6771545 6.677166l0 0c-3.6877136 0 -6.677185 -2.9894676 -6.677185 -6.677166z" fill-rule="evenodd"/><path fill="#000000" fill-opacity="0.0" d="m172.19685 54.88714l61.76378 0" fill-rule="evenodd"/><path stroke="#000000" stroke-width="2.0" stroke-linejoin="round" stroke-linecap="butt" stroke-dasharray="8.0,6.0" d="m172.19685 54.88714l61.76378 0" fill-rule="evenodd"/><g filter="url(#shadowFilter-p.1)"><use xlink:href="#p.1" transform="matrix(1.0 0.0 0.0 1.0 0.0 2.0)"/></g><defs><filter id="shadowFilter-p.1" filterUnits="userSpaceOnUse"><feGaussianBlur in="SourceAlpha" stdDeviation="2.0" result="blur"/><feComponentTransfer in="blur" color-interpolation-filters="sRGB"><feFuncR type="linear" slope="0" intercept="0.0"/><feFuncG type="linear" slope="0" intercept="0.0"/><feFuncB type="linear" slope="0" intercept="0.0"/><feFuncA type="linear" slope="0.5" intercept="0"/></feComponentTransfer></filter></defs><g id="p.1"><path fill="#000000" fill-opacity="0.0" d="m0 61.564304l30.519686 0l0 42.01575l-30.519686 0z" fill-rule="evenodd"/><path fill="#000000" d="m16.662506 88.48431l-1.6875 0l0 -11.234375l-3.40625 1.25l0 -1.53125l4.828125 -1.8125l0.265625 0l0 13.328125z" fill-rule="nonzero"/></g><g filter="url(#shadowFilter-p.2)"><use xlink:href="#p.2" transform="matrix(1.0 0.0 0.0 1.0 0.0 2.0)"/></g><defs><filter id="shadowFilter-p.2" filterUnits="userSpaceOnUse"><feGaussianBlur in="SourceAlpha" stdDeviation="2.0" result="blur"/><feComponentTransfer in="blur" color-interpolation-filters="sRGB"><feFuncR type="linear" slope="0" intercept="0.0"/><feFuncG type="linear" slope="0" intercept="0.0"/><feFuncB type="linear" slope="0" intercept="0.0"/><feFuncA type="linear" slope="0.5" intercept="0"/></feComponentTransfer></filter></defs><g id="p.2"><path fill="#000000" fill-opacity="0.0" d="m75.125984 61.564304l30.519684 0l0 42.01575l-30.519684 0z" fill-rule="evenodd"/><path fill="#000000" d="m94.94474 88.48431l-8.6875 0l0 -1.21875l4.578125 -5.09375q1.03125 -1.15625 1.40625 -1.875q0.390625 -0.734375 0.390625 -1.5q0 -1.046875 -0.625 -1.703125q-0.625 -0.671875 -1.671875 -0.671875q-1.265625 0 -1.96875 0.71875q-0.6875 0.71875 -0.6875 1.984375l-1.6875 0q0 -1.828125 1.171875 -2.953125q1.1875 -1.140625 3.171875 -1.140625q1.84375 0 2.921875 0.984375q1.078125 0.96875 1.078125 2.578125q0 1.953125 -2.5 4.65625l-3.546875 3.859375l6.65625 0l0 1.375z" fill-rule="nonzero"/></g><g filter="url(#shadowFilter-p.3)"><use xlink:href="#p.3" transform="matrix(1.0 0.0 0.0 1.0 0.0 2.0)"/></g><defs><filter id="shadowFilter-p.3" filterUnits="userSpaceOnUse"><feGaussianBlur in="SourceAlpha" stdDeviation="2.0" result="blur"/><feComponentTransfer in="blur" color-interpolation-filters="sRGB"><feFuncR type="linear" slope="0" intercept="0.0"/><feFuncG type="linear" slope="0" intercept="0.0"/><feFuncB type="linear" slope="0" intercept="0.0"/><feFuncA type="linear" slope="0.5" intercept="0"/></feComponentTransfer></filter></defs><g id="p.3"><path fill="#000000" fill-opacity="0.0" d="m150.25197 61.564304l30.519684 0l0 42.01575l-30.519684 0z" fill-rule="evenodd"/><path fill="#000000" d="m163.82072 81.03118l1.265625 0q1.203125 -0.015625 1.875 -0.625q0.6875 -0.609375 0.6875 -1.65625q0 -2.328125 -2.3125 -2.328125q-1.09375 0 -1.75 0.625q-0.65625 0.625 -0.65625 1.65625l-1.6875 0q0 -1.578125 1.15625 -2.625q1.15625 -1.046875 2.9375 -1.046875q1.875 0 2.9375 1.0q1.0625 1.0 1.0625 2.765625q0 0.859375 -0.5625 1.671875q-0.5625 0.8125 -1.515625 1.203125q1.09375 0.359375 1.6875 1.15625q0.59375 0.796875 0.59375 1.953125q0 1.796875 -1.171875 2.84375q-1.15625 1.046875 -3.03125 1.046875q-1.859375 0 -3.03125 -1.015625q-1.171875 -1.015625 -1.171875 -2.671875l1.6875 0q0 1.046875 0.6875 1.6875q0.6875 0.625 1.828125 0.625q1.21875 0 1.859375 -0.640625q0.65625 -0.640625 0.65625 -1.828125q0 -1.15625 -0.71875 -1.78125q-0.703125 -0.625 -2.046875 -0.640625l-1.265625 0l0 -1.375z" fill-rule="nonzero"/></g><g filter="url(#shadowFilter-p.4)"><use xlink:href="#p.4" transform="matrix(1.0 0.0 0.0 1.0 0.0 2.0)"/></g><defs><filter id="shadowFilter-p.4" filterUnits="userSpaceOnUse"><feGaussianBlur in="SourceAlpha" stdDeviation="2.0" result="blur"/><feComponentTransfer in="blur" color-interpolation-filters="sRGB"><feFuncR type="linear" slope="0" intercept="0.0"/><feFuncG type="linear" slope="0" intercept="0.0"/><feFuncB type="linear" slope="0" intercept="0.0"/><feFuncA type="linear" slope="0.5" intercept="0"/></feComponentTransfer></filter></defs><g id="p.4"><path fill="#000000" fill-opacity="0.0" d="m375.6299 61.564304l30.519684 0l0 42.01575l-30.519684 0z" fill-rule="evenodd"/><path fill="#000000" d="m396.3643 88.48431l-1.765625 0l-6.671875 -10.21875l0 10.21875l-1.75 0l0 -13.265625l1.75 0l6.703125 10.265625l0 -10.265625l1.734375 0l0 13.265625z" fill-rule="nonzero"/></g><g filter="url(#shadowFilter-p.5)"><use xlink:href="#p.5" transform="matrix(1.0 0.0 0.0 1.0 0.0 2.000000000000005)"/></g><defs><filter id="shadowFilter-p.5" filterUnits="userSpaceOnUse"><feGaussianBlur in="SourceAlpha" stdDeviation="2.0" result="blur"/><feComponentTransfer in="blur" color-interpolation-filters="sRGB"><feFuncR type="linear" slope="0" intercept="0.0"/><feFuncG type="linear" slope="0" intercept="0.0"/><feFuncB type="linear" slope="0" intercept="0.0"/><feFuncA type="linear" slope="0.5" intercept="0"/></feComponentTransfer></filter></defs><g id="p.5"><path fill="#000000" fill-opacity="0.0" d="m30.519686 0l44.8189 0l0 42.015747l-44.8189 0z" fill-rule="evenodd"/><path fill="#000000" d="m51.384098 13.654373l1.765625 0l0 9.390625q0 1.90625 -1.15625 2.984375q-1.140625 1.078125 -3.03125 1.078125q-1.984375 0 -3.09375 -1.015625q-1.09375 -1.015625 -1.09375 -2.828125l1.75 0q0 1.140625 0.625 1.78125q0.625 0.625 1.8125 0.625q1.078125 0 1.75 -0.671875q0.671875 -0.6875 0.671875 -1.921875l0 -9.421875z" fill-rule="nonzero"/><path fill="#000000" d="m59.005955 33.92l-1.125 0l0 -7.484375l-2.265625 0.828125l0 -1.015625l3.21875 -1.21875l0.171875 0l0 8.890625z" fill-rule="nonzero"/></g><g filter="url(#shadowFilter-p.6)"><use xlink:href="#p.6" transform="matrix(1.0 0.0 0.0 1.0 0.0 2.000000000000005)"/></g><defs><filter id="shadowFilter-p.6" filterUnits="userSpaceOnUse"><feGaussianBlur in="SourceAlpha" stdDeviation="2.0" result="blur"/><feComponentTransfer in="blur" color-interpolation-filters="sRGB"><feFuncR type="linear" slope="0" intercept="0.0"/><feFuncG type="linear" slope="0" intercept="0.0"/><feFuncB type="linear" slope="0" intercept="0.0"/><feFuncA type="linear" slope="0.5" intercept="0"/></feComponentTransfer></filter></defs><g id="p.6"><path fill="#000000" fill-opacity="0.0" d="m105.543304 0l44.818893 0l0 42.015747l-44.818893 0z" fill-rule="evenodd"/><path fill="#000000" d="m126.40772 13.654373l1.7656174 0l0 9.390625q0 1.90625 -1.1562424 2.984375q-1.140625 1.078125 -3.03125 1.078125q-1.984375 0 -3.09375 -1.015625q-1.09375 -1.015625 -1.09375 -2.828125l1.75 0q0 1.140625 0.625 1.78125q0.625 0.625 1.8125 0.625q1.078125 0 1.75 -0.671875q0.671875 -0.6875 0.671875 -1.921875l0 -9.421875z" fill-rule="nonzero"/><path fill="#000000" d="m136.13895 33.92l-5.796875 0l0 -0.8125l3.0625 -3.390625q0.671875 -0.78125 0.921875 -1.265625q0.265625 -0.484375 0.265625 -1.0q0 -0.6875 -0.421875 -1.125q-0.40625 -0.453125 -1.109375 -0.453125q-0.828125 0 -1.296875 0.484375q-0.46875 0.46875 -0.46875 1.328125l-1.125 0q0 -1.21875 0.78125 -1.96875q0.796875 -0.765625 2.109375 -0.765625q1.234375 0 1.953125 0.65625q0.71875 0.640625 0.71875 1.71875q0 1.296875 -1.671875 3.109375l-2.359375 2.5625l4.4375 0l0 0.921875z" fill-rule="nonzero"/></g><g filter="url(#shadowFilter-p.7)"><use xlink:href="#p.7" transform="matrix(1.0 0.0 0.0 1.0 0.0 2.000000000000005)"/></g><defs><filter id="shadowFilter-p.7" filterUnits="userSpaceOnUse"><feGaussianBlur in="SourceAlpha" stdDeviation="2.0" result="blur"/><feComponentTransfer in="blur" color-interpolation-filters="sRGB"><feFuncR type="linear" slope="0" intercept="0.0"/><feFuncG type="linear" slope="0" intercept="0.0"/><feFuncB type="linear" slope="0" intercept="0.0"/><feFuncA type="linear" slope="0.5" intercept="0"/></feComponentTransfer></filter></defs><g id="p.7"><path fill="#000000" fill-opacity="0.0" d="m316.50656 0l75.33859 0l0 42.015747l-75.33859 0z" fill-rule="evenodd"/><path fill="#000000" d="m346.482 13.654373l1.765625 0l0 9.390625q0 1.90625 -1.15625 2.984375q-1.140625 1.078125 -3.03125 1.078125q-1.984375 0 -3.09375 -1.015625q-1.09375 -1.015625 -1.09375 -2.828125l1.75 0q0 1.140625 0.625 1.78125q0.625 0.625 1.8125 0.625q1.078125 0 1.75 -0.671875q0.671875 -0.6875 0.671875 -1.921875l0 -9.421875z" fill-rule="nonzero"/><path fill="#000000" d="m357.5101 33.92l-1.171875 0l-4.453125 -6.8125l0 6.8125l-1.171875 0l0 -8.84375l1.171875 0l4.453125 6.84375l0 -6.84375l1.171875 0l0 8.84375zm4.22583 -3.296875l-2.96875 0l0 -0.921875l2.96875 0l0 0.921875zm4.665558 3.296875l-1.125 0l0 -7.484375l-2.265625 0.828125l0 -1.015625l3.21875 -1.21875l0.171875 0l0 8.890625z" fill-rule="nonzero"/></g><g filter="url(#shadowFilter-p.8)"><use xlink:href="#p.8" transform="matrix(1.0 0.0 0.0 1.0 0.0 2.0)"/></g><defs><filter id="shadowFilter-p.8" filterUnits="userSpaceOnUse"><feGaussianBlur in="SourceAlpha" stdDeviation="2.0" result="blur"/><feComponentTransfer in="blur" color-interpolation-filters="sRGB"><feFuncR type="linear" slope="0" intercept="0.0"/><feFuncG type="linear" slope="0" intercept="0.0"/><feFuncB type="linear" slope="0" intercept="0.0"/><feFuncA type="linear" slope="0.5" intercept="0"/></feComponentTransfer></filter></defs><g id="p.8"><path fill="#000000" fill-opacity="0.0" d="m289.1181 61.564304l53.29135 0l0 42.01575l-53.29135 0z" fill-rule="evenodd"/><path fill="#000000" d="m313.03683 88.48431l-1.765625 0l-6.671875 -10.21875l0 10.21875l-1.75 0l0 -13.265625l1.75 0l6.703125 10.265625l0 -10.265625l1.734375 0l0 13.265625zm6.3467407 -4.953125l-4.4375 0l0 -1.375l4.4375 0l0 1.375zm7.0062256 4.953125l-1.6875 0l0 -11.234375l-3.40625 1.25l0 -1.53125l4.828125 -1.8125l0.265625 0l0 13.328125z" fill-rule="nonzero"/></g></g></svg>