<svg version="1.1" viewBox="0.0 0.0 343.00787401574803 142.0" fill="none" stroke="none" stroke-linecap="square" stroke-miterlimit="10" xmlns:xlink="http://www.w3.org/1999/xlink" xmlns="http://www.w3.org/2000/svg"><clipPath id="p.0"><path d="m0 0l343.00787 0l0 142.0l-343.00787 0l0 -142.0z" clip-rule="nonzero"/></clipPath><g clip-path="url(#p.0)"><path fill="#000000" fill-opacity="0.0" d="m0 0l343.00787 0l0 142.0l-343.00787 0z" fill-rule="evenodd"/><g filter="url(#shadowFilter-p.1)"><use xlink:href="#p.1" transform="matrix(1.0 0.0 0.0 1.0 0.0 2.000000000000005)"/></g><defs><filter id="shadowFilter-p.1" filterUnits="userSpaceOnUse"><feGaussianBlur in="SourceAlpha" stdDeviation="2.0" result="blur"/><feComponentTransfer in="blur" color-interpolation-filters="sRGB"><feFuncR type="linear" slope="0" intercept="0.0"/><feFuncG type="linear" slope="0" intercept="0.0"/><feFuncB type="linear" slope="0" intercept="0.0"/><feFuncA type="linear" slope="0.5" intercept="0"/></feComponentTransfer></filter></defs><g id="p.1"><path fill="#000000" fill-opacity="0.0" d="m21.54593 0l43.65355 0l0 42.015747l-43.65355 0z" fill-rule="evenodd"/><path fill="#000000" d="m38.65834 26.919998l-1.6875 0l0 -11.234375l-3.40625 1.25l0 -1.53125l4.828125 -1.8125l0.265625 0l0 13.328125zm5.3821716 0l0 -13.265625l3.734375 0q1.734375 0 3.0625 0.765625q1.328125 0.765625 2.046875 2.1875q0.734375 1.40625 0.734375 3.234375l0 0.84375q0 1.875 -0.71875 3.296875q-0.71875 1.40625 -2.0625 2.171875q-1.34375 0.75 -3.140625 0.765625l-3.65625 0zm1.734375 -11.828125l0 10.390625l1.84375 0q2.03125 0 3.15625 -1.25q1.125 -1.25 1.125 -3.578125l0 -0.78125q0 -2.25 -1.0625 -3.5q-1.0625 -1.265625 -3.015625 -1.28125l-2.046875 0z" fill-rule="nonzero"/></g><g filter="url(#shadowFilter-p.2)"><use xlink:href="#p.2" transform="matrix(1.0 0.0 0.0 1.0 0.0 2.000000000000005)"/></g><defs><filter id="shadowFilter-p.2" filterUnits="userSpaceOnUse"><feGaussianBlur in="SourceAlpha" stdDeviation="2.0" result="blur"/><feComponentTransfer in="blur" color-interpolation-filters="sRGB"><feFuncR type="linear" slope="0" intercept="0.0"/><feFuncG type="linear" slope="0" intercept="0.0"/><feFuncB type="linear" slope="0" intercept="0.0"/><feFuncA type="linear" slope="0.5" intercept="0"/></feComponentTransfer></filter></defs><g id="p.2"><path fill="#000000" fill-opacity="0.0" d="m150.12862 0l43.653534 0l0 42.015747l-43.653534 0z" fill-rule="evenodd"/><path fill="#000000" d="m170.39726 26.919998l-8.6875 0l0 -1.21875l4.578125 -5.09375q1.03125 -1.15625 1.40625 -1.875q0.390625 -0.734375 0.390625 -1.5q0 -1.046875 -0.625 -1.703125q-0.625 -0.671875 -1.671875 -0.671875q-1.265625 0 -1.96875 0.71875q-0.6875 0.71875 -0.6875 1.984375l-1.6875 0q0 -1.828125 1.171875 -2.953125q1.1875 -1.140625 3.171875 -1.140625q1.84375 0 2.921875 0.984375q1.078125 0.96875 1.078125 2.578125q0 1.953125 -2.5 4.65625l-3.546875 3.859375l6.65625 0l0 1.375zm2.2259216 0l0 -13.265625l3.734375 0q1.734375 0 3.0625 0.765625q1.328125 0.765625 2.046875 2.1875q0.734375 1.40625 0.734375 3.234375l0 0.84375q0 1.875 -0.71875 3.296875q-0.71875 1.40625 -2.0625 2.171875q-1.34375 0.75 -3.140625 0.765625l-3.65625 0zm1.734375 -11.828125l0 10.390625l1.84375 0q2.03125 0 3.15625 -1.25q1.125 -1.25 1.125 -3.578125l0 -0.78125q0 -2.25 -1.0625 -3.5q-1.0625 -1.265625 -3.015625 -1.28125l-2.046875 0z" fill-rule="nonzero"/></g><g filter="url(#shadowFilter-p.3)"><use xlink:href="#p.3" transform="matrix(1.0 0.0 0.0 1.0 0.0 2.000000000000005)"/></g><defs><filter id="shadowFilter-p.3" filterUnits="userSpaceOnUse"><feGaussianBlur in="SourceAlpha" stdDeviation="2.0" result="blur"/><feComponentTransfer in="blur" color-interpolation-filters="sRGB"><feFuncR type="linear" slope="0" intercept="0.0"/><feFuncG type="linear" slope="0" intercept="0.0"/><feFuncB type="linear" slope="0" intercept="0.0"/><feFuncA type="linear" slope="0.5" intercept="0"/></feComponentTransfer></filter></defs><g id="p.3"><path fill="#000000" fill-opacity="0.0" d="m278.71127 0l43.653564 0l0 42.015747l-43.653564 0z" fill-rule="evenodd"/><path fill="#000000" d="m292.72995 19.466873l1.265625 0q1.203125 -0.015625 1.875 -0.625q0.6875 -0.609375 0.6875 -1.65625q0 -2.328125 -2.3125 -2.328125q-1.09375 0 -1.75 0.625q-0.65625 0.625 -0.65625 1.65625l-1.6875 0q0 -1.578125 1.15625 -2.625q1.15625 -1.046875 2.9375 -1.046875q1.875 0 2.9375 1.0q1.0625 1.0 1.0625 2.765625q0 0.859375 -0.5625 1.671875q-0.5625 0.8125 -1.515625 1.203125q1.09375 0.359375 1.6875 1.15625q0.59375 0.796875 0.59375 1.953125q0 1.796875 -1.171875 2.84375q-1.15625 1.046875 -3.03125 1.046875q-1.859375 0 -3.03125 -1.015625q-1.171875 -1.015625 -1.171875 -2.671875l1.6875 0q0 1.046875 0.6875 1.6875q0.6875 0.625 1.828125 0.625q1.21875 0 1.859375 -0.640625q0.65625 -0.640625 0.65625 -1.828125q0 -1.15625 -0.71875 -1.78125q-0.703125 -0.625 -2.046875 -0.640625l-1.265625 0l0 -1.375zm8.475922 7.453125l0 -13.265625l3.734375 0q1.734375 0 3.0625 0.765625q1.328125 0.765625 2.046875 2.1875q0.734375 1.40625 0.734375 3.234375l0 0.84375q0 1.875 -0.71875 3.296875q-0.71875 1.40625 -2.0625 2.171875q-1.34375 0.75 -3.140625 0.765625l-3.65625 0zm1.734375 -11.828125l0 10.390625l1.84375 0q2.03125 0 3.15625 -1.25q1.125 -1.25 1.125 -3.578125l0 -0.78125q0 -2.25 -1.0625 -3.5q-1.0625 -1.265625 -3.015625 -1.28125l-2.046875 0z" fill-rule="nonzero"/></g><g filter="url(#shadowFilter-p.4)"><use xlink:href="#p.4" transform="matrix(1.0 0.0 0.0 1.0 0.0 2.0)"/></g><defs><filter id="shadowFilter-p.4" filterUnits="userSpaceOnUse"><feGaussianBlur in="SourceAlpha" stdDeviation="2.0" result="blur"/><feComponentTransfer in="blur" color-interpolation-filters="sRGB"><feFuncR type="linear" slope="0" intercept="0.0"/><feFuncG type="linear" slope="0" intercept="0.0"/><feFuncB type="linear" slope="0" intercept="0.0"/><feFuncA type="linear" slope="0.5" intercept="0"/></feComponentTransfer></filter></defs><g id="p.4"><path fill="#000000" fill-opacity="0.0" d="m9.120735 110.83202l68.50394 0l0 42.01574l-68.50394 0z" fill-rule="evenodd"/><path fill="#000000" d="m31.25151 136.37701l5.765625 0l0 1.375l-7.828125 0l0 -1.234375l5.4375 -7.234375l-5.34375 0l0 -1.3906174l7.46875 0l0 1.2031174l-5.5 7.28125zm15.37114 -6.046875l-7.59375 0l0 -1.453125l7.59375 0l0 1.453125zm0 3.78125l-7.59375 0l0 -1.453125l7.59375 0l0 1.453125zm11.051575 3.640625l-8.6875 0l0 -1.21875l4.578125 -5.09375q1.03125 -1.15625 1.40625 -1.875q0.390625 -0.734375 0.390625 -1.5q0 -1.0468674 -0.625 -1.7031174q-0.625 -0.671875 -1.671875 -0.671875q-1.265625 0 -1.96875 0.71875q-0.6875 0.71875 -0.6875 1.9843674l-1.6875 0q0 -1.8281174 1.171875 -2.9531174q1.1875 -1.140625 3.171875 -1.140625q1.84375 0 2.921875 0.984375q1.078125 0.96875 1.078125 2.578125q0 1.9531174 -2.5 4.6562424l-3.546875 3.859375l6.65625 0l0 1.375z" fill-rule="nonzero"/></g><g filter="url(#shadowFilter-p.5)"><use xlink:href="#p.5" transform="matrix(1.0 0.0 0.0 1.0 0.0 2.0)"/></g><defs><filter id="shadowFilter-p.5" filterUnits="userSpaceOnUse"><feGaussianBlur in="SourceAlpha" stdDeviation="2.0" result="blur"/><feComponentTransfer in="blur" color-interpolation-filters="sRGB"><feFuncR type="linear" slope="0" intercept="0.0"/><feFuncG type="linear" slope="0" intercept="0.0"/><feFuncB type="linear" slope="0" intercept="0.0"/><feFuncA type="linear" slope="0.5" intercept="0"/></feComponentTransfer></filter></defs><g id="p.5"><path fill="#000000" fill-opacity="0.0" d="m137.70341 110.83202l68.50394 0l0 42.01574l-68.50394 0z" fill-rule="evenodd"/><path fill="#000000" d="m159.83418 136.37701l5.765625 0l0 1.375l-7.828125 0l0 -1.234375l5.4375 -7.234375l-5.34375 0l0 -1.3906174l7.46875 0l0 1.2031174l-5.5 7.28125zm15.37114 -6.046875l-7.59375 0l0 -1.453125l7.59375 0l0 1.453125zm0 3.78125l-7.59375 0l0 -1.453125l7.59375 0l0 1.453125zm9.47345 -0.8125l1.84375 0l0 1.375l-1.84375 0l0 3.078125l-1.703125 0l0 -3.078125l-6.03125 0l0 -1.0l5.9375 -9.187492l1.796875 0l0 8.812492zm-5.828125 0l4.125 0l0 -6.4999924l-0.1875 0.359375l-3.9375 6.1406174z" fill-rule="nonzero"/></g><g filter="url(#shadowFilter-p.6)"><use xlink:href="#p.6" transform="matrix(1.0 0.0 0.0 1.0 0.0 2.0)"/></g><defs><filter id="shadowFilter-p.6" filterUnits="userSpaceOnUse"><feGaussianBlur in="SourceAlpha" stdDeviation="2.0" result="blur"/><feComponentTransfer in="blur" color-interpolation-filters="sRGB"><feFuncR type="linear" slope="0" intercept="0.0"/><feFuncG type="linear" slope="0" intercept="0.0"/><feFuncB type="linear" slope="0" intercept="0.0"/><feFuncA type="linear" slope="0.5" intercept="0"/></feComponentTransfer></filter></defs><g id="p.6"><path fill="#000000" fill-opacity="0.0" d="m266.2861 110.83202l68.50394 0l0 42.01574l-68.50394 0z" fill-rule="evenodd"/><path fill="#000000" d="m288.41687 136.37701l5.765625 0l0 1.375l-7.828125 0l0 -1.234375l5.4375 -7.234375l-5.34375 0l0 -1.3906174l7.46875 0l0 1.2031174l-5.5 7.28125zm15.371124 -6.046875l-7.59375 0l0 -1.453125l7.59375 0l0 1.453125zm0 3.78125l-7.59375 0l0 -1.453125l7.59375 0l0 1.453125zm8.97345 -9.624992l0 1.421875l-0.3125 0q-1.96875 0.03125 -3.140625 1.171875q-1.15625 1.1249924 -1.34375 3.1718674q1.046875 -1.203125 2.859375 -1.203125q1.734375 0 2.765625 1.21875q1.03125 1.21875 1.03125 3.15625q0 2.046875 -1.125 3.28125q-1.109375 1.234375 -2.984375 1.234375q-1.890625 0 -3.078125 -1.453125q-1.1875 -1.46875 -1.1875 -3.78125l0 -0.640625q0 -3.671875 1.5625 -5.6093674q1.5625 -1.9375 4.65625 -1.96875l0.296875 0zm-2.21875 5.9687424q-0.859375 0 -1.59375 0.515625q-0.734375 0.515625 -1.015625 1.3125l0 0.609375q0 1.640625 0.734375 2.640625q0.75 1.0 1.84375 1.0q1.140625 0 1.796875 -0.828125q0.65625 -0.84375 0.65625 -2.203125q0 -1.359375 -0.671875 -2.203125q-0.65625 -0.84375 -1.75 -0.84375z" fill-rule="nonzero"/></g><path fill="#efefef" d="m261.16797 56.740158l59.055115 0l0 59.055115l-59.055115 0z" fill-rule="evenodd"/><path fill="#bfbfbf" d="m320.22308 56.740158l19.685059 -19.68504l0 59.05512l-19.685059 19.685036z" fill-rule="evenodd"/><path fill="#f2f2f2" d="m261.16797 56.740158l19.685059 -19.68504l59.055115 0l-19.685059 19.68504z" fill-rule="evenodd"/><path fill="#000000" fill-opacity="0.0" d="m261.16797 56.740158l19.685059 -19.68504l59.055115 0l0 59.05512l-19.685059 19.685036l-59.055115 0zm0 0l59.055115 0l19.685059 -19.68504m-19.685059 19.68504l0 59.055115" fill-rule="evenodd"/><path stroke="#999999" stroke-width="1.0" stroke-linejoin="round" stroke-linecap="butt" d="m261.16797 56.740158l19.685059 -19.68504l59.055115 0l0 59.05512l-19.685059 19.685036l-59.055115 0zm0 0l59.055115 0l19.685059 -19.68504m-19.685059 19.68504l0 59.055115" fill-rule="evenodd"/><path fill="#000000" fill-opacity="0.0" d="m290.69553 115.79527l0 -59.055115" fill-rule="evenodd"/><path stroke="#000000" stroke-width="1.0" stroke-linejoin="round" stroke-linecap="butt" d="m290.69553 115.79527l0 -59.055115" fill-rule="evenodd"/><path fill="#000000" fill-opacity="0.0" d="m290.69553 56.740158l19.685059 -19.68504" fill-rule="evenodd"/><path stroke="#000000" stroke-width="1.0" stroke-linejoin="round" stroke-linecap="butt" d="m290.69553 56.740158l19.685059 -19.68504" fill-rule="evenodd"/><path fill="#000000" fill-opacity="0.0" d="m339.90814 66.58268l-19.685059 19.685036" fill-rule="evenodd"/><path stroke="#000000" stroke-width="1.0" stroke-linejoin="round" stroke-linecap="butt" d="m339.90814 66.58268l-19.685059 19.685036" fill-rule="evenodd"/><path fill="#000000" fill-opacity="0.0" d="m320.22308 86.267715l-59.055115 0" fill-rule="evenodd"/><path stroke="#000000" stroke-width="1.0" stroke-linejoin="round" stroke-linecap="butt" d="m320.22308 86.267715l-59.055115 0" fill-rule="evenodd"/><path fill="#000000" fill-opacity="0.0" d="m331.4462 104.54593l0 -59.055115" fill-rule="evenodd"/><path stroke="#000000" stroke-width="1.0" stroke-linejoin="round" stroke-linecap="butt" d="m331.4462 104.54593l0 -59.055115" fill-rule="evenodd"/><path fill="#000000" fill-opacity="0.0" d="m331.4462 45.490814l-59.055115 0" fill-rule="evenodd"/><path stroke="#000000" stroke-width="1.0" stroke-linejoin="round" stroke-linecap="butt" d="m331.4462 45.490814l-59.055115 0" fill-rule="evenodd"/><path fill="#000000" d="m299.79266 45.490814l0 0c0 -1.1741486 0.95181274 -2.1259842 2.1259766 -2.1259842l0 0c0.5638428 0 1.1045837 0.22398758 1.5032959 0.6226845c0.39868164 0.3987007 0.62268066 0.9394531 0.62268066 1.5032997l0 0c0 1.1741486 -0.95184326 2.1259842 -2.1259766 2.1259842l0 0c-1.1741638 0 -2.1259766 -0.95183563 -2.1259766 -2.1259842z" fill-rule="evenodd"/><path stroke="#000000" stroke-width="1.0" stroke-linejoin="round" stroke-linecap="butt" d="m299.79266 45.490814l0 0c0 -1.1741486 0.95181274 -2.1259842 2.1259766 -2.1259842l0 0c0.5638428 0 1.1045837 0.22398758 1.5032959 0.6226845c0.39868164 0.3987007 0.62268066 0.9394531 0.62268066 1.5032997l0 0c0 1.1741486 -0.95184326 2.1259842 -2.1259766 2.1259842l0 0c-1.1741638 0 -2.1259766 -0.95183563 -2.1259766 -2.1259842z" fill-rule="evenodd"/><path fill="#000000" d="m329.32022 75.01837l0 0c0 -1.1741486 0.95181274 -2.1259842 2.1259766 -2.1259842l0 0c0.5638428 0 1.1045837 0.2239914 1.5032959 0.6226883c0.39871216 0.3986969 0.62268066 0.9394531 0.62268066 1.5032959l0 0c0 1.1741486 -0.95184326 2.1259842 -2.1259766 2.1259842l0 0c-1.1741638 0 -2.1259766 -0.95183563 -2.1259766 -2.1259842z" fill-rule="evenodd"/><path stroke="#000000" stroke-width="1.0" stroke-linejoin="round" stroke-linecap="butt" d="m329.32022 75.01837l0 0c0 -1.1741486 0.95181274 -2.1259842 2.1259766 -2.1259842l0 0c0.5638428 0 1.1045837 0.2239914 1.5032959 0.6226883c0.39871216 0.3986969 0.62268066 0.9394531 0.62268066 1.5032959l0 0c0 1.1741486 -0.95184326 2.1259842 -2.1259766 2.1259842l0 0c-1.1741638 0 -2.1259766 -0.95183563 -2.1259766 -2.1259842z" fill-rule="evenodd"/><path fill="#000000" d="m288.56955 86.267715l0 0c0 -1.1741486 0.95184326 -2.1259842 2.1259766 -2.1259842l0 0c0.5638428 0 1.1046143 0.2239914 1.5032959 0.6226883c0.39871216 0.3986969 0.6227112 0.9394531 0.6227112 1.5032959l0 0c0 1.1741486 -0.95184326 2.1259842 -2.126007 2.1259842l0 0c-1.1741333 0 -2.1259766 -0.95183563 -2.1259766 -2.1259842z" fill-rule="evenodd"/><path stroke="#000000" stroke-width="1.0" stroke-linejoin="round" stroke-linecap="butt" d="m288.56955 86.267715l0 0c0 -1.1741486 0.95184326 -2.1259842 2.1259766 -2.1259842l0 0c0.5638428 0 1.1046143 0.2239914 1.5032959 0.6226883c0.39871216 0.3986969 0.6227112 0.9394531 0.6227112 1.5032959l0 0c0 1.1741486 -0.95184326 2.1259842 -2.126007 2.1259842l0 0c-1.1741333 0 -2.1259766 -0.95183563 -2.1259766 -2.1259842z" fill-rule="evenodd"/><path fill="#000000" fill-opacity="0.0" d="m168.82939 47.75853l0 57.95276" fill-rule="evenodd"/><path stroke="#000000" stroke-width="1.0" stroke-linejoin="round" stroke-linecap="butt" d="m168.82939 47.75853l0 57.95276" fill-rule="evenodd"/><path fill="#000000" fill-opacity="0.0" d="m139.85301 76.73491l57.95276 0" fill-rule="evenodd"/><path stroke="#000000" stroke-width="1.0" stroke-linejoin="round" stroke-linecap="butt" d="m139.85301 76.73491l57.95276 0" fill-rule="evenodd"/><path fill="#000000" d="m166.70341 76.73622l0 0c0 -1.1741486 0.951828 -2.1259842 2.1259766 -2.1259842l0 0c0.56385803 0 1.104599 0.22398376 1.5032959 0.6226883c0.39871216 0.3986969 0.6226959 0.9394455 0.6226959 1.5032959l0 0c0 1.1741486 -0.95184326 2.1259842 -2.1259918 2.1259842l0 0c-1.1741486 0 -2.1259766 -0.95183563 -2.1259766 -2.1259842z" fill-rule="evenodd"/><path stroke="#000000" stroke-width="1.0" stroke-linejoin="round" stroke-linecap="butt" d="m166.70341 76.73622l0 0c0 -1.1741486 0.951828 -2.1259842 2.1259766 -2.1259842l0 0c0.56385803 0 1.104599 0.22398376 1.5032959 0.6226883c0.39871216 0.3986969 0.6226959 0.9394455 0.6226959 1.5032959l0 0c0 1.1741486 -0.95184326 2.1259842 -2.1259918 2.1259842l0 0c-1.1741486 0 -2.1259766 -0.95183563 -2.1259766 -2.1259842z" fill-rule="evenodd"/><path fill="#000000" d="m166.70341 47.11155l0 0c0 -1.1741486 0.951828 -2.1259842 2.1259766 -2.1259842l0 0c0.56385803 0 1.104599 0.22398758 1.5032959 0.6226845c0.39871216 0.3987007 0.6226959 0.9394531 0.6226959 1.5032997l0 0c0 1.1741486 -0.95184326 2.1259842 -2.1259918 2.1259842l0 0c-1.1741486 0 -2.1259766 -0.95183563 -2.1259766 -2.1259842z" fill-rule="evenodd"/><path stroke="#000000" stroke-width="1.0" stroke-linejoin="round" stroke-linecap="butt" d="m166.70341 47.11155l0 0c0 -1.1741486 0.951828 -2.1259842 2.1259766 -2.1259842l0 0c0.56385803 0 1.104599 0.22398758 1.5032959 0.6226845c0.39871216 0.3987007 0.6226959 0.9394531 0.6226959 1.5032997l0 0c0 1.1741486 -0.95184326 2.1259842 -2.1259918 2.1259842l0 0c-1.1741486 0 -2.1259766 -0.95183563 -2.1259766 -2.1259842z" fill-rule="evenodd"/><path fill="#000000" d="m137.70341 76.7336l0 0c0 -1.1741486 0.951828 -2.1259842 2.1259766 -2.1259842l0 0c0.56385803 0 1.104599 0.22398376 1.5032959 0.6226883c0.39871216 0.3986969 0.6226959 0.9394455 0.6226959 1.5032959l0 0c0 1.1741486 -0.95184326 2.1259842 -2.1259918 2.1259842l0 0c-1.1741486 0 -2.1259766 -0.95183563 -2.1259766 -2.1259842z" fill-rule="evenodd"/><path stroke="#000000" stroke-width="1.0" stroke-linejoin="round" stroke-linecap="butt" d="m137.70341 76.7336l0 0c0 -1.1741486 0.951828 -2.1259842 2.1259766 -2.1259842l0 0c0.56385803 0 1.104599 0.22398376 1.5032959 0.6226883c0.39871216 0.3986969 0.6226959 0.9394455 0.6226959 1.5032959l0 0c0 1.1741486 -0.95184326 2.1259842 -2.1259918 2.1259842l0 0c-1.1741486 0 -2.1259766 -0.95183563 -2.1259766 -2.1259842z" fill-rule="evenodd"/><path fill="#000000" d="m195.70341 76.7336l0 0c0 -1.1741486 0.951828 -2.1259842 2.1259766 -2.1259842l0 0c0.56385803 0 1.104599 0.22398376 1.5032959 0.6226883c0.39871216 0.3986969 0.6226959 0.9394455 0.6226959 1.5032959l0 0c0 1.1741486 -0.95184326 2.1259842 -2.1259918 2.1259842l0 0c-1.1741486 0 -2.1259766 -0.95183563 -2.1259766 -2.1259842z" fill-rule="evenodd"/><path stroke="#000000" stroke-width="1.0" stroke-linejoin="round" stroke-linecap="butt" d="m195.70341 76.7336l0 0c0 -1.1741486 0.951828 -2.1259842 2.1259766 -2.1259842l0 0c0.56385803 0 1.104599 0.22398376 1.5032959 0.6226883c0.39871216 0.3986969 0.6226959 0.9394455 0.6226959 1.5032959l0 0c0 1.1741486 -0.95184326 2.1259842 -2.1259918 2.1259842l0 0c-1.1741486 0 -2.1259766 -0.95183563 -2.1259766 -2.1259842z" fill-rule="evenodd"/><path fill="#000000" d="m166.70341 105.73622l0 0c0 -1.1741486 0.951828 -2.1259842 2.1259766 -2.1259842l0 0c0.56385803 0 1.104599 0.22398376 1.5032959 0.6226883c0.39871216 0.3986969 0.6226959 0.9394455 0.6226959 1.5032959l0 0c0 1.1741486 -0.95184326 2.1259842 -2.1259918 2.1259842l0 0c-1.1741486 0 -2.1259766 -0.95183563 -2.1259766 -2.1259842z" fill-rule="evenodd"/><path stroke="#000000" stroke-width="1.0" stroke-linejoin="round" stroke-linecap="butt" d="m166.70341 105.73622l0 0c0 -1.1741486 0.951828 -2.1259842 2.1259766 -2.1259842l0 0c0.56385803 0 1.104599 0.22398376 1.5032959 0.6226883c0.39871216 0.3986969 0.6226959 0.9394455 0.6226959 1.5032959l0 0c0 1.1741486 -0.95184326 2.1259842 -2.1259918 2.1259842l0 0c-1.1741486 0 -2.1259766 -0.95183563 -2.1259766 -2.1259842z" fill-rule="evenodd"/><path fill="#000000" d="m9.120735 76.42388l0 0c0 -1.1741486 0.95183563 -2.1259842 2.1259842 -2.1259842l0 0c0.56384563 0 1.104598 0.2239914 1.5032978 0.6226883c0.3986988 0.3986969 0.6226864 0.9394531 0.6226864 1.5032959l0 0c0 1.1741486 -0.95183563 2.1259842 -2.1259842 2.1259842l0 0c-1.1741486 0 -2.1259842 -0.95183563 -2.1259842 -2.1259842z" fill-rule="evenodd"/><path stroke="#000000" stroke-width="1.0" stroke-linejoin="round" stroke-linecap="butt" d="m9.120735 76.42388l0 0c0 -1.1741486 0.95183563 -2.1259842 2.1259842 -2.1259842l0 0c0.56384563 0 1.104598 0.2239914 1.5032978 0.6226883c0.3986988 0.3986969 0.6226864 0.9394531 0.6226864 1.5032959l0 0c0 1.1741486 -0.95183563 2.1259842 -2.1259842 2.1259842l0 0c-1.1741486 0 -2.1259842 -0.95183563 -2.1259842 -2.1259842z" fill-rule="evenodd"/><path fill="#000000" d="m34.37008 76.42388l0 0c0 -1.1741486 0.95183563 -2.1259842 2.1259842 -2.1259842l0 0c0.5638466 0 1.104599 0.2239914 1.5032959 0.6226883c0.3987007 0.3986969 0.6226883 0.9394531 0.6226883 1.5032959l0 0c0 1.1741486 -0.95183563 2.1259842 -2.1259842 2.1259842l0 0c-1.1741486 0 -2.1259842 -0.95183563 -2.1259842 -2.1259842z" fill-rule="evenodd"/><path stroke="#000000" stroke-width="1.0" stroke-linejoin="round" stroke-linecap="butt" d="m34.37008 76.42388l0 0c0 -1.1741486 0.95183563 -2.1259842 2.1259842 -2.1259842l0 0c0.5638466 0 1.104599 0.2239914 1.5032959 0.6226883c0.3987007 0.3986969 0.6226883 0.9394531 0.6226883 1.5032959l0 0c0 1.1741486 -0.95183563 2.1259842 -2.1259842 2.1259842l0 0c-1.1741486 0 -2.1259842 -0.95183563 -2.1259842 -2.1259842z" fill-rule="evenodd"/><path fill="#000000" d="m59.619423 76.42388l0 0c0 -1.1741486 0.95183563 -2.1259842 2.1259842 -2.1259842l0 0c0.5638466 0 1.104599 0.2239914 1.5032959 0.6226883c0.3987007 0.3986969 0.6226883 0.9394531 0.6226883 1.5032959l0 0c0 1.1741486 -0.95183563 2.1259842 -2.1259842 2.1259842l0 0c-1.1741486 0 -2.1259842 -0.95183563 -2.1259842 -2.1259842z" fill-rule="evenodd"/><path stroke="#000000" stroke-width="1.0" stroke-linejoin="round" stroke-linecap="butt" d="m59.619423 76.42388l0 0c0 -1.1741486 0.95183563 -2.1259842 2.1259842 -2.1259842l0 0c0.5638466 0 1.104599 0.2239914 1.5032959 0.6226883c0.3987007 0.3986969 0.6226883 0.9394531 0.6226883 1.5032959l0 0c0 1.1741486 -0.95183563 2.1259842 -2.1259842 2.1259842l0 0c-1.1741486 0 -2.1259842 -0.95183563 -2.1259842 -2.1259842z" fill-rule="evenodd"/><path fill="#000000" d="m84.86877 76.42388l0 0c0 -1.1741486 0.95183563 -2.1259842 2.1259842 -2.1259842l0 0c0.5638428 0 1.104599 0.2239914 1.5032959 0.6226883c0.39870453 0.3986969 0.6226883 0.9394531 0.6226883 1.5032959l0 0c0 1.1741486 -0.95183563 2.1259842 -2.1259842 2.1259842l0 0c-1.1741486 0 -2.1259842 -0.95183563 -2.1259842 -2.1259842z" fill-rule="evenodd"/><path stroke="#000000" stroke-width="1.0" stroke-linejoin="round" stroke-linecap="butt" d="m84.86877 76.42388l0 0c0 -1.1741486 0.95183563 -2.1259842 2.1259842 -2.1259842l0 0c0.5638428 0 1.104599 0.2239914 1.5032959 0.6226883c0.39870453 0.3986969 0.6226883 0.9394531 0.6226883 1.5032959l0 0c0 1.1741486 -0.95183563 2.1259842 -2.1259842 2.1259842l0 0c-1.1741486 0 -2.1259842 -0.95183563 -2.1259842 -2.1259842z" fill-rule="evenodd"/><path fill="#000000" fill-opacity="0.0" d="m13.372704 76.42388l71.49606 0" fill-rule="evenodd"/><path stroke="#000000" stroke-width="1.0" stroke-linejoin="round" stroke-linecap="butt" d="m13.372704 76.42388l71.49606 0" fill-rule="evenodd"/></g></svg>