<svg version="1.1" viewBox="0.0 0.0 272.742782152231 179.28346456692913" fill="none" stroke="none" stroke-linecap="square" stroke-miterlimit="10" xmlns:xlink="http://www.w3.org/1999/xlink" xmlns="http://www.w3.org/2000/svg"><clipPath id="p.0"><path d="m0 0l272.74277 0l0 179.28346l-272.74277 0l0 -179.28346z" clip-rule="nonzero"/></clipPath><g clip-path="url(#p.0)"><path fill="#000000" fill-opacity="0.0" d="m0 0l272.74277 0l0 179.28346l-272.74277 0z" fill-rule="evenodd"/><g filter="url(#shadowFilter-p.1)"><use xlink:href="#p.1" transform="matrix(1.0 0.0 0.0 1.0 0.0 2.0)"/></g><defs><filter id="shadowFilter-p.1" filterUnits="userSpaceOnUse"><feGaussianBlur in="SourceAlpha" stdDeviation="2.0" result="blur"/><feComponentTransfer in="blur" color-interpolation-filters="sRGB"><feFuncR type="linear" slope="0" intercept="0.0"/><feFuncG type="linear" slope="0" intercept="0.0"/><feFuncB type="linear" slope="0" intercept="0.0"/><feFuncA type="linear" slope="0.5" intercept="0"/></feComponentTransfer></filter></defs><g id="p.1"><path fill="#cfe2f3" d="m11.073491 34.037262l0 0c0 -14.264017 11.56327 -25.82729 25.82729 -25.82729l190.58163 0c6.849823 0 13.419098 2.7210817 18.26265 7.564638c4.8435516 4.8435564 7.564636 11.4128275 7.564636 18.26265l0 103.30606c0 14.264008 -11.563263 25.827286 -25.827286 25.827286l-190.58163 0c-14.264019 0 -25.82729 -11.563278 -25.82729 -25.827286z" fill-rule="evenodd"/><path stroke="#000000" stroke-width="1.0" stroke-linejoin="round" stroke-linecap="butt" d="m11.073491 34.037262l0 0c0 -14.264017 11.56327 -25.82729 25.82729 -25.82729l190.58163 0c6.849823 0 13.419098 2.7210817 18.26265 7.564638c4.8435516 4.8435564 7.564636 11.4128275 7.564636 18.26265l0 103.30606c0 14.264008 -11.563263 25.827286 -25.827286 25.827286l-190.58163 0c-14.264019 0 -25.82729 -11.563278 -25.82729 -25.827286z" fill-rule="evenodd"/></g><g filter="url(#shadowFilter-p.2)"><use xlink:href="#p.2" transform="matrix(1.0 0.0 0.0 1.0 0.0 2.0)"/></g><defs><filter id="shadowFilter-p.2" filterUnits="userSpaceOnUse"><feGaussianBlur in="SourceAlpha" stdDeviation="2.0" result="blur"/><feComponentTransfer in="blur" color-interpolation-filters="sRGB"><feFuncR type="linear" slope="0" intercept="0.0"/><feFuncG type="linear" slope="0" intercept="0.0"/><feFuncB type="linear" slope="0" intercept="0.0"/><feFuncA type="linear" slope="0.5" intercept="0"/></feComponentTransfer></filter></defs><g id="p.2"><path fill="#9fc5e8" d="m31.577427 68.8376l0 0c0 -9.022285 7.314003 -16.336288 16.336285 -16.336288l168.55577 0c4.332657 0 8.487854 1.721138 11.551498 4.784786c3.0636597 3.0636482 4.78479 7.2188454 4.78479 11.551502l0 65.34317c0 9.022293 -7.3139954 16.336288 -16.336288 16.336288l-168.55577 0c-9.022282 0 -16.336285 -7.3139954 -16.336285 -16.336288z" fill-rule="evenodd"/><path stroke="#000000" stroke-width="1.0" stroke-linejoin="round" stroke-linecap="butt" d="m31.577427 68.8376l0 0c0 -9.022285 7.314003 -16.336288 16.336285 -16.336288l168.55577 0c4.332657 0 8.487854 1.721138 11.551498 4.784786c3.0636597 3.0636482 4.78479 7.2188454 4.78479 11.551502l0 65.34317c0 9.022293 -7.3139954 16.336288 -16.336288 16.336288l-168.55577 0c-9.022282 0 -16.336285 -7.3139954 -16.336285 -16.336288z" fill-rule="evenodd"/></g><g filter="url(#shadowFilter-p.3)"><use xlink:href="#p.3" transform="matrix(1.0 0.0 0.0 1.0 0.0 2.0)"/></g><defs><filter id="shadowFilter-p.3" filterUnits="userSpaceOnUse"><feGaussianBlur in="SourceAlpha" stdDeviation="2.0" result="blur"/><feComponentTransfer in="blur" color-interpolation-filters="sRGB"><feFuncR type="linear" slope="0" intercept="0.0"/><feFuncG type="linear" slope="0" intercept="0.0"/><feFuncB type="linear" slope="0" intercept="0.0"/><feFuncA type="linear" slope="0.5" intercept="0"/></feComponentTransfer></filter></defs><g id="p.3"><path fill="#000000" fill-opacity="0.0" d="m29.199474 8.209973l205.98425 0l0 42.01575l-205.98425 0z" fill-rule="evenodd"/><path fill="#000000" d="m52.11588 32.520596q0 -0.6874981 -0.515625 -1.0624981q-0.515625 -0.375 -1.796875 -0.640625q-1.28125 -0.28125 -2.03125 -0.65625q-0.75 -0.390625 -1.109375 -0.921875q-0.359375 -0.53125 -0.359375 -1.265625q0 -1.203125 1.015625 -2.03125q1.03125 -0.84375 2.625 -0.84375q1.671875 0 2.71875 0.859375q1.046875 0.859375 1.046875 2.21875l-1.6875 0q0 -0.703125 -0.59375 -1.203125q-0.59375 -0.5 -1.484375 -0.5q-0.921875 0 -1.4375 0.40625q-0.515625 0.390625 -0.515625 1.046875q0 0.609375 0.484375 0.921875q0.484375 0.3125 1.734375 0.59375q1.265625 0.28125 2.046875 0.671875q0.78125 0.390625 1.15625 0.9375q0.390625 0.546875 0.390625 1.3437481q0 1.328125 -1.0625 2.125q-1.046875 0.796875 -2.734375 0.796875q-1.1875 0 -2.109375 -0.421875q-0.90625 -0.421875 -1.421875 -1.171875q-0.515625 -0.75 -0.515625 -1.625l1.6875 0q0.046875 0.84375 0.671875 1.34375q0.640625 0.5 1.6875 0.5q0.953125 0 1.53125 -0.390625q0.578125 -0.390625 0.578125 -1.03125zm5.463379 1.234375l5.765625 0l0 1.375l-7.828125 0l0 -1.234375l5.4375 -7.234373l-5.34375 0l0 -1.390625l7.46875 0l0 1.203125l-5.5 7.281248zm9.949268 -10.874998l0 2.390625l1.84375 0l0 1.3125l-1.84375 0l0 6.109373q0 0.59375 0.234375 0.890625q0.25 0.296875 0.84375 0.296875q0.296875 0 0.8125 -0.109375l0 1.359375q-0.671875 0.1875 -1.296875 0.1875q-1.125 0 -1.703125 -0.6875q-0.578125 -0.6875 -0.578125 -1.9375l0 -6.109373l-1.796875 0l0 -1.3125l1.796875 0l0 -2.390625l1.6875 0zm9.891129 11.281248q-0.984375 1.15625 -2.890625 1.15625q-1.578125 0 -2.40625 -0.921875q-0.8125 -0.921875 -0.828125 -2.703123l0 -6.421875l1.6875 0l0 6.375q0 2.234373 1.828125 2.234373q1.921875 0 2.5625 -1.4375l0 -7.171873l1.6875 0l0 9.859373l-1.609375 0l-0.03125 -0.96875zm8.159622 -0.21875q0.890625 0 1.5625 -0.546875q0.6875 -0.546875 0.75 -1.375l1.59375 0q-0.046875 0.84375 -0.578125 1.609375q-0.53125 0.765625 -1.4375 1.234375q-0.890625 0.453125 -1.890625 0.453125q-2.015625 0 -3.203125 -1.34375q-1.1875 -1.34375 -1.1875 -3.687498l0 -0.28125q0 -1.4375 0.515625 -2.546875q0.53125 -1.125 1.515625 -1.734375q1.0 -0.625 2.34375 -0.625q1.65625 0 2.75 1.0q1.109375 0.984375 1.171875 2.5625l-1.59375 0q-0.0625 -0.953125 -0.71875 -1.5625q-0.65625 -0.625 -1.609375 -0.625q-1.28125 0 -2.0 0.921875q-0.703125 0.921875 -0.703125 2.671875l0 0.328125q0 1.7031231 0.703125 2.624998q0.703125 0.921875 2.015625 0.921875zm7.390381 -0.1875l5.765625 0l0 1.375l-7.828125 0l0 -1.234375l5.4375 -7.234373l-5.34375 0l0 -1.390625l7.46875 0l0 1.203125l-5.5 7.281248zm9.261765 -8.484373l0.046875 1.234375q1.125 -1.40625 2.953125 -1.40625q3.125 0 3.15625 3.515625l0 6.515623l-1.6875 0l0 -6.515623q-0.015625 -1.078125 -0.5 -1.578125q-0.46875 -0.515625 -1.484375 -0.515625q-0.8125 0 -1.4375 0.4375q-0.609375 0.4375 -0.96875 1.15625l0 7.015623l-1.671875 0l0 -9.859373l1.59375 0zm14.778107 9.859373q-0.140625 -0.296875 -0.234375 -1.03125q-1.171875 1.21875 -2.8125 1.21875q-1.453125 0 -2.390625 -0.828125q-0.921875 -0.828125 -0.921875 -2.09375q0 -1.5312481 1.15625 -2.374998q1.171875 -0.859375 3.296875 -0.859375l1.640625 0l0 -0.78125q0 -0.890625 -0.53125 -1.40625q-0.515625 -0.53125 -1.546875 -0.53125q-0.90625 0 -1.515625 0.46875q-0.609375 0.453125 -0.609375 1.09375l-1.703125 0q0 -0.734375 0.515625 -1.421875q0.53125 -0.6875 1.421875 -1.078125q0.90625 -0.40625 1.984375 -0.40625q1.703125 0 2.671875 0.859375q0.96875 0.84375 1.0 2.328125l0 4.531248q0 1.359375 0.34375 2.171875l0 0.140625l-1.765625 0zm-2.796875 -1.28125q0.796875 0 1.5 -0.40625q0.71875 -0.421875 1.03125 -1.078125l0 -2.015623l-1.3125 0q-3.109375 0 -3.109375 1.8124981q0 0.796875 0.53125 1.25q0.53125 0.4375 1.359375 0.4375zm13.31337 1.28125l-1.6875 0l0 -9.859373l1.6875 0l0 9.859373zm-1.828125 -12.468748q0 -0.40625 0.25 -0.6875q0.25 -0.296875 0.734375 -0.296875q0.5 0 0.75 0.296875q0.265625 0.28125 0.265625 0.6875q0 0.40625 -0.265625 0.6875q-0.25 0.265625 -0.75 0.265625q-0.484375 0 -0.734375 -0.265625q-0.25 -0.28125 -0.25 -0.6875zm6.1211624 2.609375l0.046875 1.234375q1.125 -1.40625 2.953125 -1.40625q3.125 0 3.15625 3.515625l0 6.515623l-1.6875 0l0 -6.515623q-0.015625 -1.078125 -0.5 -1.578125q-0.46875 -0.515625 -1.484375 -0.515625q-0.8125 0 -1.4375 0.4375q-0.609375 0.4375 -0.96875 1.15625l0 7.015623l-1.671875 0l0 -9.859373l1.59375 0zm10.981232 -2.390625l0 2.390625l1.84375 0l0 1.3125l-1.84375 0l0 6.109373q0 0.59375 0.234375 0.890625q0.25 0.296875 0.84375 0.296875q0.296875 0 0.8125 -0.109375l0 1.359375q-0.671875 0.1875 -1.296875 0.1875q-1.125 0 -1.703125 -0.6875q-0.578125 -0.6875 -0.578125 -1.9375l0 -6.109373l-1.796875 0l0 -1.3125l1.796875 0l0 -2.390625l1.6875 0zm7.8911285 12.437498q-2.0 0 -3.265625 -1.3125q-1.25 -1.328125 -1.25 -3.531248l0 -0.3125q0 -1.46875 0.5625 -2.609375q0.5625 -1.15625 1.5625 -1.796875q1.015625 -0.65625 2.1875 -0.65625q1.921875 0 2.984375 1.265625q1.0625 1.265625 1.0625 3.625l0 0.6875l-6.671875 0q0.03125 1.4687481 0.84375 2.374998q0.828125 0.890625 2.078125 0.890625q0.890625 0 1.515625 -0.359375q0.625 -0.375 1.078125 -0.96875l1.03125 0.796875q-1.234375 1.90625 -3.71875 1.90625zm-0.203125 -8.843748q-1.015625 0 -1.71875 0.75q-0.6875 0.734375 -0.84375 2.078125l4.9375 0l0 -0.125q-0.078125 -1.28125 -0.703125 -1.984375q-0.609375 -0.71875 -1.671875 -0.71875zm7.8369446 8.656248l-1.6875153 0l0 -13.999998l1.6875153 0l0 13.999998zm4.527405 0l-1.6875 0l0 -9.859373l1.6875 0l0 9.859373zm-1.828125 -12.468748q0 -0.40625 0.25 -0.6875q0.25 -0.296875 0.734375 -0.296875q0.5 0 0.75 0.296875q0.265625 0.28125 0.265625 0.6875q0 0.40625 -0.265625 0.6875q-0.25 0.265625 -0.75 0.265625q-0.484375 0 -0.734375 -0.265625q-0.25 -0.28125 -0.25 -0.6875zm4.1211853 7.453125q0 -2.296875 1.0625 -3.65625q1.0625 -1.359375 2.828125 -1.359375q1.796875 0 2.8125 1.265625l0.078125 -1.09375l1.546875 0l0 9.624998q0 1.90625 -1.140625 3.0q-1.125 1.109375 -3.046875 1.109375q-1.0625 0 -2.09375 -0.453125q-1.015625 -0.453125 -1.546875 -1.25l0.875 -1.0q1.078125 1.328125 2.65625 1.328125q1.21875 0 1.90625 -0.6875q0.6875 -0.6875 0.6875 -1.953125l0 -0.84375q-1.0 1.171875 -2.75 1.171875q-1.734375 0 -2.8125 -1.390625q-1.0625 -1.40625 -1.0625 -3.812498zm1.6875 0.203125q0 1.65625 0.6875 2.609373q0.6875 0.953125 1.921875 0.953125q1.59375 0 2.328125 -1.453125l0 -4.499998q-0.765625 -1.40625 -2.3125 -1.40625q-1.234375 0 -1.9375 0.953125q-0.6875 0.953125 -0.6875 2.84375zm13.263672 4.999998q-2.0 0 -3.265625 -1.3125q-1.25 -1.328125 -1.25 -3.531248l0 -0.3125q0 -1.46875 0.5625 -2.609375q0.5625 -1.15625 1.5625 -1.796875q1.015625 -0.65625 2.1875 -0.65625q1.921875 0 2.984375 1.265625q1.0625 1.265625 1.0625 3.625l0 0.6875l-6.671875 0q0.03125 1.4687481 0.84375 2.374998q0.828125 0.890625 2.078125 0.890625q0.890625 0 1.515625 -0.359375q0.625 -0.375 1.078125 -0.96875l1.03125 0.796875q-1.234375 1.90625 -3.71875 1.90625zm-0.203125 -8.843748q-1.015625 0 -1.71875 0.75q-0.6875 0.734375 -0.84375 2.078125l4.9375 0l0 -0.125q-0.078125 -1.28125 -0.703125 -1.984375q-0.609375 -0.71875 -1.671875 -0.71875zm7.6025696 -1.203125l0.046875 1.234375q1.125 -1.40625 2.953125 -1.40625q3.125 0 3.15625 3.515625l0 6.515623l-1.6875 0l0 -6.515623q-0.015625 -1.078125 -0.5 -1.578125q-0.46875 -0.515625 -1.484375 -0.515625q-0.8125 0 -1.4375 0.4375q-0.609375 0.4375 -0.96875 1.15625l0 7.015623l-1.671875 0l0 -9.859373l1.59375 0zm12.653107 8.671873q0.890625 0 1.5625 -0.546875q0.6875 -0.546875 0.75 -1.375l1.59375 0q-0.046875 0.84375 -0.578125 1.609375q-0.53125 0.765625 -1.4375 1.234375q-0.890625 0.453125 -1.890625 0.453125q-2.015625 0 -3.203125 -1.34375q-1.1875 -1.34375 -1.1875 -3.687498l0 -0.28125q0 -1.4375 0.515625 -2.546875q0.53125 -1.125 1.515625 -1.734375q1.0 -0.625 2.34375 -0.625q1.65625 0 2.75 1.0q1.109375 0.984375 1.171875 2.5625l-1.59375 0q-0.0625 -0.953125 -0.71875 -1.5625q-0.65625 -0.625 -1.609375 -0.625q-1.28125 0 -2.0 0.921875q-0.703125 0.921875 -0.703125 2.671875l0 0.328125q0 1.7031231 0.703125 2.624998q0.703125 0.921875 2.015625 0.921875zm7.546631 -8.671873l0 10.999998q0 2.84375 -2.578125 2.84375q-0.5625 0 -1.03125 -0.171875l0 -1.34375q0.296875 0.078125 0.765625 0.078125q0.5625 0 0.859375 -0.3125q0.296875 -0.296875 0.296875 -1.0625l0 -11.031248l1.6875 0zm-1.859375 -2.609375q0 -0.40625 0.25 -0.6875q0.25 -0.296875 0.734375 -0.296875q0.484375 0 0.734375 0.296875q0.265625 0.28125 0.265625 0.6875q0 0.40625 -0.265625 0.6875q-0.25 0.265625 -0.734375 0.265625q-0.484375 0 -0.734375 -0.265625q-0.25 -0.28125 -0.25 -0.6875zm10.657654 12.468748q-0.140625 -0.296875 -0.234375 -1.03125q-1.171875 1.21875 -2.8125 1.21875q-1.453125 0 -2.390625 -0.828125q-0.921875 -0.828125 -0.921875 -2.09375q0 -1.5312481 1.15625 -2.374998q1.171875 -0.859375 3.296875 -0.859375l1.640625 0l0 -0.78125q0 -0.890625 -0.53125 -1.40625q-0.515625 -0.53125 -1.546875 -0.53125q-0.90625 0 -1.515625 0.46875q-0.609375 0.453125 -0.609375 1.09375l-1.703125 0q0 -0.734375 0.515625 -1.421875q0.53125 -0.6875 1.421875 -1.078125q0.90625 -0.40625 1.984375 -0.40625q1.703125 0 2.671875 0.859375q0.96875 0.84375 1.0 2.328125l0 4.531248q0 1.359375 0.34375 2.171875l0 0.140625l-1.765625 0zm-2.796875 -1.28125q0.796875 0 1.5 -0.40625q0.71875 -0.421875 1.03125 -1.078125l0 -2.015623l-1.3125 0q-3.109375 0 -3.109375 1.8124981q0 0.796875 0.53125 1.25q0.53125 0.4375 1.359375 0.4375z" fill-rule="nonzero"/></g><g filter="url(#shadowFilter-p.4)"><use xlink:href="#p.4" transform="matrix(1.0 0.0 0.0 1.0 0.0 2.0)"/></g><defs><filter id="shadowFilter-p.4" filterUnits="userSpaceOnUse"><feGaussianBlur in="SourceAlpha" stdDeviation="2.0" result="blur"/><feComponentTransfer in="blur" color-interpolation-filters="sRGB"><feFuncR type="linear" slope="0" intercept="0.0"/><feFuncG type="linear" slope="0" intercept="0.0"/><feFuncB type="linear" slope="0" intercept="0.0"/><feFuncA type="linear" slope="0.5" intercept="0"/></feComponentTransfer></filter></defs><g id="p.4"><path fill="#000000" fill-opacity="0.0" d="m28.713911 52.501312l201.22835 0l0 42.015747l-201.22835 0z" fill-rule="evenodd"/><path fill="#000000" d="m52.99399 78.45256q-0.984375 1.15625 -2.890625 1.15625q-1.578125 0 -2.40625 -0.921875q-0.8125 -0.921875 -0.828125 -2.703125l0 -6.421875l1.6875 0l0 6.375q0 2.234375 1.828125 2.234375q1.921875 0 2.5625 -1.4375l0 -7.171875l1.6875 0l0 9.859375l-1.609375 0l-0.03125 -0.96875zm8.159622 -0.21875q0.890625 0 1.5625 -0.546875q0.6875 -0.546875 0.75 -1.375l1.5937538 0q-0.046875 0.84375 -0.578125 1.609375q-0.5312538 0.765625 -1.4375038 1.234375q-0.890625 0.453125 -1.890625 0.453125q-2.015625 0 -3.203125 -1.34375q-1.1875 -1.34375 -1.1875 -3.6875l0 -0.28125q0 -1.4375 0.515625 -2.546875q0.53125 -1.125 1.515625 -1.734375q1.0 -0.625 2.34375 -0.625q1.65625 0 2.75 1.0q1.1093788 0.984375 1.1718788 2.5625l-1.5937538 0q-0.0625 -0.953125 -0.71875 -1.5625q-0.65625 -0.625 -1.609375 -0.625q-1.28125 0 -2.0 0.921875q-0.703125 0.921875 -0.703125 2.671875l0 0.328125q0 1.703125 0.703125 2.625q0.703125 0.921875 2.015625 0.921875zm7.3903847 -0.1875l5.765625 0l0 1.375l-7.828125 0l0 -1.234375l5.4375 -7.234375l-5.34375 0l0 -1.390625l7.46875 0l0 1.203125l-5.5 7.28125zm11.600311 1.5625q-2.0 0 -3.265625 -1.3125q-1.25 -1.328125 -1.25 -3.53125l0 -0.3125q0 -1.46875 0.5625 -2.609375q0.5625 -1.15625 1.5625 -1.796875q1.015625 -0.65625 2.1875 -0.65625q1.921875 0 2.984375 1.265625q1.0625 1.265625 1.0625 3.625l0 0.6875l-6.671875 0q0.03125 1.46875 0.84375 2.375q0.828125 0.890625 2.078125 0.890625q0.890625 0 1.515625 -0.359375q0.625 -0.375 1.078125 -0.96875l1.03125 0.796875q-1.234375 1.90625 -3.71875 1.90625zm-0.203125 -8.84375q-1.015625 0 -1.71875 0.75q-0.6875 0.734375 -0.84375 2.078125l4.9375 0l0 -0.125q-0.078125 -1.28125 -0.703125 -1.984375q-0.609375 -0.71875 -1.671875 -0.71875zm7.6025543 -1.203125l0.046875 1.234375q1.125 -1.40625 2.953125 -1.40625q3.125 0 3.15625 3.515625l0 6.515625l-1.6875 0l0 -6.515625q-0.015625 -1.078125 -0.5 -1.578125q-0.46875 -0.515625 -1.484375 -0.515625q-0.8125 0 -1.4375 0.4375q-0.609375 0.4375 -0.96875 1.15625l0 7.015625l-1.671875 0l0 -9.859375l1.59375 0zm10.528107 9.859375l-1.6875 0l0 -9.859375l1.6875 0l0 9.859375zm-1.828125 -12.46875q0 -0.40625 0.25 -0.6875q0.25 -0.296875 0.734375 -0.296875q0.5 0 0.75 0.296875q0.265625 0.28125 0.265625 0.6875q0 0.40625 -0.265625 0.6875q-0.25 0.265625 -0.75 0.265625q-0.484375 0 -0.734375 -0.265625q-0.25 -0.28125 -0.25 -0.6875zm8.605545 12.65625q-2.0 0 -3.265625 -1.3125q-1.25 -1.328125 -1.25 -3.53125l0 -0.3125q0 -1.46875 0.5625 -2.609375q0.5625 -1.15625 1.5625 -1.796875q1.015625 -0.65625 2.1875 -0.65625q1.921875 0 2.984375 1.265625q1.0625 1.265625 1.0625 3.625l0 0.6875l-6.671875 0q0.03125 1.46875 0.84375 2.375q0.828125 0.890625 2.078125 0.890625q0.890625 0 1.515625 -0.359375q0.625 -0.375 1.078125 -0.96875l1.03125 0.796875q-1.234375 1.90625 -3.71875 1.90625zm-0.203125 -8.84375q-1.015625 0 -1.71875 0.75q-0.6875 0.734375 -0.84375 2.078125l4.9375 0l0 -0.125q-0.078125 -1.28125 -0.703125 -1.984375q-0.609375 -0.71875 -1.671875 -0.71875zm12.205444 -1.203125l0.046875 1.09375q1.078125 -1.265625 2.921875 -1.265625q2.0625 0 2.8125 1.578125q0.5 -0.71875 1.28125 -1.140625q0.796875 -0.4375 1.859375 -0.4375q3.2499924 0 3.2968674 3.421875l0 6.609375l-1.6718674 0l0 -6.5q0 -1.0625 -0.484375 -1.578125q-0.484375 -0.53125 -1.625 -0.53125q-0.9375 0 -1.5625 0.5625q-0.609375 0.5625 -0.71875 1.5l0 6.546875l-1.6875 0l0 -6.453125q0 -2.15625 -2.109375 -2.15625q-1.65625 0 -2.265625 1.40625l0 7.203125l-1.6875 0l0 -9.859375l1.59375 0zm20.85154 9.859375q-0.140625 -0.296875 -0.234375 -1.03125q-1.171875 1.21875 -2.8125 1.21875q-1.453125 0 -2.390625 -0.828125q-0.921875 -0.828125 -0.921875 -2.09375q0 -1.53125 1.15625 -2.375q1.171875 -0.859375 3.296875 -0.859375l1.640625 0l0 -0.78125q0 -0.890625 -0.53125 -1.40625q-0.515625 -0.53125 -1.546875 -0.53125q-0.90625 0 -1.515625 0.46875q-0.609375 0.453125 -0.609375 1.09375l-1.703125 0q0 -0.734375 0.515625 -1.421875q0.53125 -0.6875 1.421875 -1.078125q0.90625 -0.40625 1.984375 -0.40625q1.703125 0 2.671875 0.859375q0.96875 0.84375 1.0 2.328125l0 4.53125q0 1.359375 0.34375 2.171875l0 0.140625l-1.765625 0zm-2.796875 -1.28125q0.796875 0 1.5 -0.40625q0.71875 -0.421875 1.03125 -1.078125l0 -2.015625l-1.3125 0q-3.109375 0 -3.109375 1.8125q0 0.796875 0.53125 1.25q0.53125 0.4375 1.359375 0.4375zm12.601105 -1.328125q0 -0.6875 -0.515625 -1.0625q-0.515625 -0.375 -1.796875 -0.640625q-1.28125 -0.28125 -2.03125 -0.65625q-0.75 -0.390625 -1.109375 -0.921875q-0.359375 -0.53125 -0.359375 -1.265625q0 -1.203125 1.015625 -2.03125q1.03125 -0.84375 2.625 -0.84375q1.671875 0 2.71875 0.859375q1.046875 0.859375 1.046875 2.21875l-1.6875 0q0 -0.703125 -0.59375 -1.203125q-0.59375 -0.5 -1.484375 -0.5q-0.921875 0 -1.4375 0.40625q-0.515625 0.390625 -0.515625 1.046875q0 0.609375 0.484375 0.921875q0.484375 0.3125 1.734375 0.59375q1.265625 0.28125 2.046875 0.671875q0.78125 0.390625 1.15625 0.9375q0.390625 0.546875 0.390625 1.34375q0 1.328125 -1.0625 2.125q-1.046875 0.796875 -2.734375 0.796875q-1.1875 0 -2.109375 -0.421875q-0.90625 -0.421875 -1.421875 -1.171875q-0.515625 -0.75 -0.515625 -1.625l1.6875 0q0.046875 0.84375 0.671875 1.34375q0.640625 0.5 1.6875 0.5q0.953125 0 1.53125 -0.390625q0.578125 -0.390625 0.578125 -1.03125zm5.463379 1.234375l5.7656403 0l0 1.375l-7.8281403 0l0 -1.234375l5.4375 -7.234375l-5.34375 0l0 -1.390625l7.4687653 0l0 1.203125l-5.5000153 7.28125zm10.886765 -1.09375l2.296875 -7.390625l1.796875 0l-3.953125 11.375q-0.921875 2.46875 -2.921875 2.46875l-0.328125 -0.03125l-0.625 -0.125l0 -1.359375l0.453125 0.03125q0.859375 0 1.328125 -0.34375q0.484375 -0.34375 0.796875 -1.265625l0.375 -1.0l-3.515625 -9.75l1.84375 0l2.453125 7.390625zm7.202118 -7.390625l0.046875 1.234375q1.125 -1.40625 2.953125 -1.40625q3.125 0 3.15625 3.515625l0 6.515625l-1.6875 0l0 -6.515625q-0.015625 -1.078125 -0.5 -1.578125q-0.46875 -0.515625 -1.484375 -0.515625q-0.8125 0 -1.4375 0.4375q-0.609375 0.4375 -0.96875 1.15625l0 7.015625l-1.671875 0l0 -9.859375l1.59375 0zm8.246857 4.84375q0 -1.453125 0.5625 -2.609375q0.578125 -1.15625 1.59375 -1.78125q1.015625 -0.625 2.3125 -0.625q2.015625 0 3.25 1.390625q1.25 1.390625 1.25 3.703125l0 0.125q0 1.4375 -0.546875 2.578125q-0.546875 1.140625 -1.578125 1.78125q-1.015625 0.640625 -2.359375 0.640625q-2.0 0 -3.25 -1.390625q-1.234375 -1.40625 -1.234375 -3.703125l0 -0.109375zm1.6875 0.203125q0 1.640625 0.765625 2.640625q0.765625 0.984375 2.03125 0.984375q1.296875 0 2.046875 -1.0q0.75 -1.015625 0.75 -2.828125q0 -1.625 -0.765625 -2.625q-0.765625 -1.015625 -2.046875 -1.015625q-1.25 0 -2.015625 1.0q-0.765625 0.984375 -0.765625 2.84375zm18.124268 2.484375l1.890625 -7.53125l1.6875 0l-2.859375 9.859375l-1.375 0l-2.390625 -7.46875l-2.328125 7.46875l-1.375 0l-2.859375 -9.859375l1.671875 0l1.953125 7.375l2.28125 -7.375l1.359375 0l2.34375 7.53125zm9.378876 2.515625q-2.0 0 -3.265625 -1.3125q-1.25 -1.328125 -1.25 -3.53125l0 -0.3125q0 -1.46875 0.5625 -2.609375q0.5625 -1.15625 1.5625 -1.796875q1.015625 -0.65625 2.1875 -0.65625q1.921875 0 2.984375 1.265625q1.0625 1.265625 1.0625 3.625l0 0.6875l-6.671875 0q0.03125 1.46875 0.84375 2.375q0.828125 0.890625 2.078125 0.890625q0.890625 0 1.515625 -0.359375q0.625 -0.375 1.078125 -0.96875l1.03125 0.796875q-1.234375 1.90625 -3.71875 1.90625zm-0.203125 -8.84375q-1.015625 0 -1.71875 0.75q-0.6875 0.734375 -0.84375 2.078125l4.9375 0l0 -0.125q-0.078125 -1.28125 -0.703125 -1.984375q-0.609375 -0.71875 -1.671875 -0.71875z" fill-rule="nonzero"/></g><g filter="url(#shadowFilter-p.5)"><use xlink:href="#p.5" transform="matrix(1.0 0.0 0.0 1.0 0.0 2.0)"/></g><defs><filter id="shadowFilter-p.5" filterUnits="userSpaceOnUse"><feGaussianBlur in="SourceAlpha" stdDeviation="2.0" result="blur"/><feComponentTransfer in="blur" color-interpolation-filters="sRGB"><feFuncR type="linear" slope="0" intercept="0.0"/><feFuncG type="linear" slope="0" intercept="0.0"/><feFuncB type="linear" slope="0" intercept="0.0"/><feFuncA type="linear" slope="0.5" intercept="0"/></feComponentTransfer></filter></defs><g id="p.5"><path fill="#6fa8dc" d="m50.175854 100.987015l0 0c0 -3.8675156 3.1352425 -7.002762 7.0027657 -7.002762l150.02597 0c1.8572388 0 3.6384277 0.73778534 4.9516907 2.0510635c1.3132782 1.3132706 2.0510712 3.094452 2.0510712 4.9516983l0 28.010223c0 3.8675232 -3.135254 7.002762 -7.002762 7.002762l-150.02597 0c-3.8675232 0 -7.0027657 -3.1352386 -7.0027657 -7.002762z" fill-rule="evenodd"/><path stroke="#000000" stroke-width="1.0" stroke-linejoin="round" stroke-linecap="butt" d="m50.175854 100.987015l0 0c0 -3.8675156 3.1352425 -7.002762 7.0027657 -7.002762l150.02597 0c1.8572388 0 3.6384277 0.73778534 4.9516907 2.0510635c1.3132782 1.3132706 2.0510712 3.094452 2.0510712 4.9516983l0 28.010223c0 3.8675232 -3.135254 7.002762 -7.002762 7.002762l-150.02597 0c-3.8675232 0 -7.0027657 -3.1352386 -7.0027657 -7.002762z" fill-rule="evenodd"/></g><g filter="url(#shadowFilter-p.6)"><use xlink:href="#p.6" transform="matrix(1.0 0.0 0.0 1.0 0.0 2.0)"/></g><defs><filter id="shadowFilter-p.6" filterUnits="userSpaceOnUse"><feGaussianBlur in="SourceAlpha" stdDeviation="2.0" result="blur"/><feComponentTransfer in="blur" color-interpolation-filters="sRGB"><feFuncR type="linear" slope="0" intercept="0.0"/><feFuncG type="linear" slope="0" intercept="0.0"/><feFuncB type="linear" slope="0" intercept="0.0"/><feFuncA type="linear" slope="0.5" intercept="0"/></feComponentTransfer></filter></defs><g id="p.6"><path fill="#000000" fill-opacity="0.0" d="m49.21522 93.98425l165.95276 0l0 42.015747l-165.95276 0z" fill-rule="evenodd"/><path fill="#000000" d="m63.70693 115.888626q0 -2.296875 1.0625038 -3.65625q1.0625 -1.359375 2.828125 -1.359375q1.796875 0 2.8125 1.265625l0.078125 -1.09375l1.546875 0l0 9.625q0 1.90625 -1.140625 3.0q-1.125 1.109375 -3.046875 1.109375q-1.0625 0 -2.09375 -0.453125q-1.015625 -0.453125 -1.546875 -1.25l0.875 -1.0q1.078125 1.328125 2.65625 1.328125q1.21875 0 1.90625 -0.6875q0.6875 -0.6875 0.6875 -1.953125l0 -0.84375q-1.0 1.171875 -2.75 1.171875q-1.734375 0 -2.8125 -1.390625q-1.0625038 -1.40625 -1.0625038 -3.8125zm1.6875038 0.203125q0 1.65625 0.6875 2.609375q0.6875 0.953125 1.921875 0.953125q1.59375 0 2.328125 -1.453125l0 -4.5q-0.765625 -1.40625 -2.3125 -1.40625q-1.234375 0 -1.9375 0.953125q-0.6875 0.953125 -0.6875 2.84375zm11.216812 -3.109375l1.4375 -0.546875l0 1.125l-1.4375 0.546875l0 6.796875l-1.6875 0l0 -6.15625l-1.3125 0.515625l0 -1.125l1.3125 -0.5l0 -6.734375l1.6875 0l0 6.078125zm10.803177 6.203125q-0.640625 1.0 -1.6875 1.484375l0 0l-0.515625 0.421875q-1.03125 0.828125 -1.03125 1.609375q0 0.65625 0.703125 0.65625q0.4375 0 0.90625 -0.234375l0.125 1.09375q-0.640625 0.40625 -1.453125 0.40625q-0.8125 0 -1.28125 -0.484375q-0.46875 -0.46875 -0.46875 -1.25q0 -0.984375 0.890625 -1.796875q-1.984375 -0.046875 -3.203125 -1.359375q-1.21875 -1.3125 -1.21875 -3.5l0 -0.296875q0 -1.46875 0.5625 -2.609375q0.5625 -1.15625 1.5625 -1.796875q1.015625 -0.65625 2.1875 -0.65625q1.921875 0 2.984375 1.265625q1.0625 1.265625 1.0625 3.625l0 0.6875l-6.671875 0q0.03125 1.46875 0.84375 2.375q0.828125 0.890625 2.078125 0.890625q0.890625 0 1.515625 -0.359375q0.625 -0.375 1.078125 -0.96875l1.03125 0.796875zm-3.921875 -6.9375q-1.015625 0 -1.71875 0.75q-0.6875 0.734375 -0.84375 2.078125l4.9375 0l0 -0.125q-0.078125 -1.28125 -0.703125 -1.984375q-0.609375 -0.71875 -1.671875 -0.71875zm14.352554 3.84375q0 2.25 -1.046875 3.625q-1.03125 1.375 -2.78125 1.375q-1.875 0 -2.890625 -1.328125l-0.078125 1.140625l-1.546875 0l0 -14.0l1.671875 0l0 5.234375q1.03125 -1.265625 2.8125 -1.265625q1.796875 0 2.828125 1.359375q1.03125 1.34375 1.03125 3.703125l0 0.15625zm-1.6875 -0.203125q0 -1.71875 -0.671875 -2.65625q-0.65625 -0.9375 -1.90625 -0.9375q-1.671875 0 -2.40625 1.546875l0 4.265625q0.78125 1.546875 2.421875 1.546875q1.21875 0 1.890625 -0.9375q0.671875 -0.9375 0.671875 -2.828125zm3.3574371 0q0 -1.453125 0.5625 -2.609375q0.578125 -1.15625 1.59375 -1.78125q1.015625 -0.625 2.3125 -0.625q2.015625 0 3.25 1.390625q1.25 1.390625 1.25 3.703125l0 0.125q0 1.4375 -0.546875 2.578125q-0.546875 1.140625 -1.578125 1.78125q-1.015625 0.640625 -2.359375 0.640625q-2.0 0 -3.25 -1.390625q-1.234375 -1.40625 -1.234375 -3.703125l0 -0.109375zm1.6875 0.203125q0 1.640625 0.765625 2.640625q0.765625 0.984375 2.03125 0.984375q1.296875 0 2.046875 -1.0q0.75 -1.015625 0.75 -2.828125q0 -1.625 -0.765625 -2.625q-0.765625 -1.015625 -2.046875 -1.015625q-1.25 0 -2.015625 1.0q-0.765625 0.984375 -0.765625 2.84375zm12.155518 0.25l-1.0625 1.09375l0 3.46875l-1.6875 0l0 -14.0l1.6875 0l0 8.46875l0.90625 -1.078125l3.0625 -3.25l2.046875 0l-3.828125 4.125l4.28125 5.734375l-1.984375 0l-3.421875 -4.5625zm8.533783 4.5625l-1.6875 0l0 -9.859375l1.6875 0l0 9.859375zm-1.828125 -12.46875q0 -0.40625 0.25 -0.6875q0.25 -0.296875 0.734375 -0.296875q0.5 0 0.75 0.296875q0.265625 0.28125 0.265625 0.6875q0 0.40625 -0.265625 0.6875q-0.25 0.265625 -0.75 0.265625q-0.484375 0 -0.734375 -0.265625q-0.25 -0.28125 -0.25 -0.6875zm8.605537 12.65625q-1.9999924 0 -3.2656174 -1.3125q-1.25 -1.328125 -1.25 -3.53125l0 -0.3125q0 -1.46875 0.5625 -2.609375q0.5625 -1.15625 1.5625 -1.796875q1.015625 -0.65625 2.1874924 -0.65625q1.921875 0 2.984375 1.265625q1.0625 1.265625 1.0625 3.625l0 0.6875l-6.6718674 0q0.03125 1.46875 0.84375 2.375q0.828125 0.890625 2.0781174 0.890625q0.890625 0 1.515625 -0.359375q0.625 -0.375 1.078125 -0.96875l1.03125 0.796875q-1.234375 1.90625 -3.71875 1.90625zm-0.203125 -8.84375q-1.0156174 0 -1.7187424 0.75q-0.6875 0.734375 -0.84375 2.078125l4.9374924 0l0 -0.125q-0.078125 -1.28125 -0.703125 -1.984375q-0.609375 -0.71875 -1.671875 -0.71875zm16.705444 7.6875q-0.984375 1.15625 -2.890625 1.15625q-1.578125 0 -2.40625 -0.921875q-0.8125 -0.921875 -0.828125 -2.703125l0 -6.421875l1.6875 0l0 6.375q0 2.234375 1.828125 2.234375q1.921875 0 2.5625 -1.4375l0 -7.171875l1.6875 0l0 9.859375l-1.609375 0l-0.03125 -0.96875zm8.159622 -0.21875q0.890625 0 1.5625 -0.546875q0.6875 -0.546875 0.75 -1.375l1.59375 0q-0.046875 0.84375 -0.578125 1.609375q-0.53125 0.765625 -1.4375 1.234375q-0.890625 0.453125 -1.890625 0.453125q-2.015625 0 -3.203125 -1.34375q-1.1875 -1.34375 -1.1875 -3.6875l0 -0.28125q0 -1.4375 0.515625 -2.546875q0.53125 -1.125 1.515625 -1.734375q1.0 -0.625 2.34375 -0.625q1.65625 0 2.75 1.0q1.109375 0.984375 1.171875 2.5625l-1.59375 0q-0.0625 -0.953125 -0.71875 -1.5625q-0.65625 -0.625 -1.609375 -0.625q-1.28125 0 -2.0 0.921875q-0.703125 0.921875 -0.703125 2.671875l0 0.328125q0 1.703125 0.703125 2.625q0.703125 0.921875 2.015625 0.921875zm7.390381 -0.1875l5.765625 0l0 1.375l-7.828125 0l0 -1.234375l5.4375 -7.234375l-5.34375 0l0 -1.390625l7.46875 0l0 1.203125l-5.5 7.28125zm11.600311 1.5625q-2.0 0 -3.265625 -1.3125q-1.25 -1.328125 -1.25 -3.53125l0 -0.3125q0 -1.46875 0.5625 -2.609375q0.5625 -1.15625 1.5625 -1.796875q1.015625 -0.65625 2.1875 -0.65625q1.921875 0 2.984375 1.265625q1.0625 1.265625 1.0625 3.625l0 0.6875l-6.671875 0q0.03125 1.46875 0.84375 2.375q0.828125 0.890625 2.078125 0.890625q0.890625 0 1.515625 -0.359375q0.625 -0.375 1.078125 -0.96875l1.03125 0.796875q-1.234375 1.90625 -3.71875 1.90625zm-0.203125 -8.84375q-1.015625 0 -1.71875 0.75q-0.6875 0.734375 -0.84375 2.078125l4.9375 0l0 -0.125q-0.078125 -1.28125 -0.703125 -1.984375q-0.609375 -0.71875 -1.671875 -0.71875zm7.6025696 -1.203125l0.046875 1.234375q1.125 -1.40625 2.953125 -1.40625q3.125 0 3.15625 3.515625l0 6.515625l-1.6875 0l0 -6.515625q-0.015625 -1.078125 -0.5 -1.578125q-0.46875 -0.515625 -1.484375 -0.515625q-0.8125 0 -1.4375 0.4375q-0.609375 0.4375 -0.96875 1.15625l0 7.015625l-1.671875 0l0 -9.859375l1.59375 0zm10.528107 9.859375l-1.6875 0l0 -9.859375l1.6875 0l0 9.859375zm-1.828125 -12.46875q0 -0.40625 0.25 -0.6875q0.25 -0.296875 0.734375 -0.296875q0.5 0 0.75 0.296875q0.265625 0.28125 0.265625 0.6875q0 0.40625 -0.265625 0.6875q-0.25 0.265625 -0.75 0.265625q-0.484375 0 -0.734375 -0.265625q-0.25 -0.28125 -0.25 -0.6875zm8.60553 12.65625q-2.0 0 -3.265625 -1.3125q-1.25 -1.328125 -1.25 -3.53125l0 -0.3125q0 -1.46875 0.5625 -2.609375q0.5625 -1.15625 1.5625 -1.796875q1.015625 -0.65625 2.1875 -0.65625q1.921875 0 2.984375 1.265625q1.0625 1.265625 1.0625 3.625l0 0.6875l-6.671875 0q0.03125 1.46875 0.84375 2.375q0.828125 0.890625 2.078125 0.890625q0.890625 0 1.515625 -0.359375q0.625 -0.375 1.078125 -0.96875l1.03125 0.796875q-1.234375 1.90625 -3.71875 1.90625zm-0.203125 -8.84375q-1.015625 0 -1.71875 0.75q-0.6875 0.734375 -0.84375 2.078125l4.9375 0l0 -0.125q-0.078125 -1.28125 -0.703125 -1.984375q-0.609375 -0.71875 -1.671875 -0.71875z" fill-rule="nonzero"/></g></g></svg>