<svg version="1.1" viewBox="0.0 0.0 255.46456692913387 304.4671916010499" fill="none" stroke="none" stroke-linecap="square" stroke-miterlimit="10" xmlns:xlink="http://www.w3.org/1999/xlink" xmlns="http://www.w3.org/2000/svg"><clipPath id="p.0"><path d="m0 0l255.46457 0l0 304.4672l-255.46457 0l0 -304.4672z" clip-rule="nonzero"/></clipPath><g clip-path="url(#p.0)"><path fill="#000000" fill-opacity="0.0" d="m0 0l255.46457 0l0 304.4672l-255.46457 0z" fill-rule="evenodd"/><g filter="url(#shadowFilter-p.1)"><use xlink:href="#p.1" transform="matrix(1.0 0.0 0.0 1.0 0.0 2.0)"/></g><defs><filter id="shadowFilter-p.1" filterUnits="userSpaceOnUse"><feGaussianBlur in="SourceAlpha" stdDeviation="2.0" result="blur"/><feComponentTransfer in="blur" color-interpolation-filters="sRGB"><feFuncR type="linear" slope="0" intercept="0.0"/><feFuncG type="linear" slope="0" intercept="0.0"/><feFuncB type="linear" slope="0" intercept="0.0"/><feFuncA type="linear" slope="0.5" intercept="0"/></feComponentTransfer></filter></defs><g id="p.1"><path fill="#cfe2f3" d="m4.7874017 170.15224l0 0c0 -16.99472 13.776939 -30.771652 30.771654 -30.771652l0 0c8.161148 0 15.988041 3.2420044 21.758846 9.012802c5.7708015 5.7707977 9.01281 13.597687 9.01281 21.75885l0 0c0 16.994705 -13.776939 30.771652 -30.771656 30.771652l0 0c-16.994715 0 -30.771654 -13.776947 -30.771654 -30.771652z" fill-rule="evenodd"/><path stroke="#000000" stroke-width="1.0" stroke-linejoin="round" stroke-linecap="butt" d="m4.7874017 170.15224l0 0c0 -16.99472 13.776939 -30.771652 30.771654 -30.771652l0 0c8.161148 0 15.988041 3.2420044 21.758846 9.012802c5.7708015 5.7707977 9.01281 13.597687 9.01281 21.75885l0 0c0 16.994705 -13.776939 30.771652 -30.771656 30.771652l0 0c-16.994715 0 -30.771654 -13.776947 -30.771654 -30.771652z" fill-rule="evenodd"/></g><g filter="url(#shadowFilter-p.2)"><use xlink:href="#p.2" transform="matrix(1.0 0.0 0.0 1.0 0.0 2.0)"/></g><defs><filter id="shadowFilter-p.2" filterUnits="userSpaceOnUse"><feGaussianBlur in="SourceAlpha" stdDeviation="2.0" result="blur"/><feComponentTransfer in="blur" color-interpolation-filters="sRGB"><feFuncR type="linear" slope="0" intercept="0.0"/><feFuncG type="linear" slope="0" intercept="0.0"/><feFuncB type="linear" slope="0" intercept="0.0"/><feFuncA type="linear" slope="0.5" intercept="0"/></feComponentTransfer></filter></defs><g id="p.2"><path fill="#cfe2f3" d="m4.7874017 79.997375l0 0c0 -16.994717 13.776939 -30.771652 30.771654 -30.771652l0 0c8.161148 0 15.988041 3.2420044 21.758846 9.012806c5.7708015 5.770809 9.01281 13.597698 9.01281 21.758846l0 0c0 16.994713 -13.776939 30.771652 -30.771656 30.771652l0 0c-16.994715 0 -30.771654 -13.776939 -30.771654 -30.771652z" fill-rule="evenodd"/><path stroke="#000000" stroke-width="1.0" stroke-linejoin="round" stroke-linecap="butt" d="m4.7874017 79.997375l0 0c0 -16.994717 13.776939 -30.771652 30.771654 -30.771652l0 0c8.161148 0 15.988041 3.2420044 21.758846 9.012806c5.7708015 5.770809 9.01281 13.597698 9.01281 21.758846l0 0c0 16.994713 -13.776939 30.771652 -30.771656 30.771652l0 0c-16.994715 0 -30.771654 -13.776939 -30.771654 -30.771652z" fill-rule="evenodd"/></g><g filter="url(#shadowFilter-p.3)"><use xlink:href="#p.3" transform="matrix(1.0 0.0 0.0 1.0 0.0 2.0)"/></g><defs><filter id="shadowFilter-p.3" filterUnits="userSpaceOnUse"><feGaussianBlur in="SourceAlpha" stdDeviation="2.0" result="blur"/><feComponentTransfer in="blur" color-interpolation-filters="sRGB"><feFuncR type="linear" slope="0" intercept="0.0"/><feFuncG type="linear" slope="0" intercept="0.0"/><feFuncB type="linear" slope="0" intercept="0.0"/><feFuncA type="linear" slope="0.5" intercept="0"/></feComponentTransfer></filter></defs><g id="p.3"><path fill="#cfe2f3" d="m4.7874017 265.53543l0 0c0 -16.994705 13.776939 -30.771652 30.771654 -30.771652l0 0c8.161148 0 15.988041 3.2420044 21.758846 9.012802c5.7708015 5.770813 9.01281 13.597717 9.01281 21.75885l0 0c0 16.99472 -13.776939 30.771667 -30.771656 30.771667l0 0c-16.994715 0 -30.771654 -13.776947 -30.771654 -30.771667z" fill-rule="evenodd"/><path stroke="#000000" stroke-width="1.0" stroke-linejoin="round" stroke-linecap="butt" d="m4.7874017 265.53543l0 0c0 -16.994705 13.776939 -30.771652 30.771654 -30.771652l0 0c8.161148 0 15.988041 3.2420044 21.758846 9.012802c5.7708015 5.770813 9.01281 13.597717 9.01281 21.75885l0 0c0 16.99472 -13.776939 30.771667 -30.771656 30.771667l0 0c-16.994715 0 -30.771654 -13.776947 -30.771654 -30.771667z" fill-rule="evenodd"/></g><g filter="url(#shadowFilter-p.4)"><use xlink:href="#p.4" transform="matrix(1.0 0.0 0.0 1.0 0.0 2.0)"/></g><defs><filter id="shadowFilter-p.4" filterUnits="userSpaceOnUse"><feGaussianBlur in="SourceAlpha" stdDeviation="2.0" result="blur"/><feComponentTransfer in="blur" color-interpolation-filters="sRGB"><feFuncR type="linear" slope="0" intercept="0.0"/><feFuncG type="linear" slope="0" intercept="0.0"/><feFuncB type="linear" slope="0" intercept="0.0"/><feFuncA type="linear" slope="0.5" intercept="0"/></feComponentTransfer></filter></defs><g id="p.4"><path fill="#cfe2f3" d="m185.40158 215.22966l0 0c0 -16.99472 13.776932 -30.771652 30.771652 -30.771652l0 0c8.161148 0 15.988037 3.2420044 21.758835 9.012802c5.770813 5.770813 9.012817 13.597702 9.012817 21.75885l0 0c0 16.99472 -13.776947 30.771652 -30.771652 30.771652l0 0c-16.99472 0 -30.771652 -13.776932 -30.771652 -30.771652z" fill-rule="evenodd"/><path stroke="#000000" stroke-width="1.0" stroke-linejoin="round" stroke-linecap="butt" d="m185.40158 215.22966l0 0c0 -16.99472 13.776932 -30.771652 30.771652 -30.771652l0 0c8.161148 0 15.988037 3.2420044 21.758835 9.012802c5.770813 5.770813 9.012817 13.597702 9.012817 21.75885l0 0c0 16.99472 -13.776947 30.771652 -30.771652 30.771652l0 0c-16.99472 0 -30.771652 -13.776932 -30.771652 -30.771652z" fill-rule="evenodd"/></g><g filter="url(#shadowFilter-p.5)"><use xlink:href="#p.5" transform="matrix(1.0 0.0 0.0 1.0 0.0 2.0)"/></g><defs><filter id="shadowFilter-p.5" filterUnits="userSpaceOnUse"><feGaussianBlur in="SourceAlpha" stdDeviation="2.0" result="blur"/><feComponentTransfer in="blur" color-interpolation-filters="sRGB"><feFuncR type="linear" slope="0" intercept="0.0"/><feFuncG type="linear" slope="0" intercept="0.0"/><feFuncB type="linear" slope="0" intercept="0.0"/><feFuncA type="linear" slope="0.5" intercept="0"/></feComponentTransfer></filter></defs><g id="p.5"><path fill="#cfe2f3" d="m185.40158 125.07481l0 0c0 -16.99472 13.776932 -30.77166 30.771652 -30.77166l0 0c8.161148 0 15.988037 3.2420044 21.758835 9.01281c5.770813 5.7708054 9.012817 13.597694 9.012817 21.75885l0 0c0 16.994713 -13.776947 30.771645 -30.771652 30.771645l0 0c-16.99472 0 -30.771652 -13.776932 -30.771652 -30.771645z" fill-rule="evenodd"/><path stroke="#000000" stroke-width="1.0" stroke-linejoin="round" stroke-linecap="butt" d="m185.40158 125.07481l0 0c0 -16.99472 13.776932 -30.77166 30.771652 -30.77166l0 0c8.161148 0 15.988037 3.2420044 21.758835 9.01281c5.770813 5.7708054 9.012817 13.597694 9.012817 21.75885l0 0c0 16.994713 -13.776947 30.771645 -30.771652 30.771645l0 0c-16.99472 0 -30.771652 -13.776932 -30.771652 -30.771645z" fill-rule="evenodd"/></g><g filter="url(#shadowFilter-p.6)"><use xlink:href="#p.6" transform="matrix(1.0 0.0 0.0 1.0 0.0 2.0)"/></g><defs><filter id="shadowFilter-p.6" filterUnits="userSpaceOnUse"><feGaussianBlur in="SourceAlpha" stdDeviation="2.0" result="blur"/><feComponentTransfer in="blur" color-interpolation-filters="sRGB"><feFuncR type="linear" slope="0" intercept="0.0"/><feFuncG type="linear" slope="0" intercept="0.0"/><feFuncB type="linear" slope="0" intercept="0.0"/><feFuncA type="linear" slope="0.5" intercept="0"/></feComponentTransfer></filter></defs><g id="p.6"><path fill="#000000" fill-opacity="0.0" d="m66.33071 79.997375l128.09448 23.307083" fill-rule="evenodd"/><path stroke="#666666" stroke-width="4.0" stroke-linejoin="round" stroke-linecap="butt" d="m66.33071 79.997375l114.60757 20.853111" fill-rule="evenodd"/><path fill="#666666" stroke="#666666" stroke-width="4.0" stroke-linecap="butt" d="m180.9383 100.85049l-5.230942 3.6204147l12.964691 -2.2132416l-11.354172 -6.6381073z" fill-rule="evenodd"/></g><g filter="url(#shadowFilter-p.7)"><use xlink:href="#p.7" transform="matrix(1.0 0.0 0.0 1.0 0.0 2.0)"/></g><defs><filter id="shadowFilter-p.7" filterUnits="userSpaceOnUse"><feGaussianBlur in="SourceAlpha" stdDeviation="2.0" result="blur"/><feComponentTransfer in="blur" color-interpolation-filters="sRGB"><feFuncR type="linear" slope="0" intercept="0.0"/><feFuncG type="linear" slope="0" intercept="0.0"/><feFuncB type="linear" slope="0" intercept="0.0"/><feFuncA type="linear" slope="0.5" intercept="0"/></feComponentTransfer></filter></defs><g id="p.7"><path fill="#000000" fill-opacity="0.0" d="m57.3179 148.39339l128.09448 -23.30709" fill-rule="evenodd"/><path stroke="#666666" stroke-width="4.0" stroke-linejoin="round" stroke-linecap="butt" d="m57.317898 148.39339l114.607574 -20.853111" fill-rule="evenodd"/><path fill="#666666" stroke="#666666" stroke-width="4.0" stroke-linecap="butt" d="m171.92548 127.54027l-3.6204224 5.230942l11.354172 -6.638115l-12.964691 -2.213234z" fill-rule="evenodd"/></g><g filter="url(#shadowFilter-p.8)"><use xlink:href="#p.8" transform="matrix(1.0 0.0 0.0 1.0 0.0 2.0)"/></g><defs><filter id="shadowFilter-p.8" filterUnits="userSpaceOnUse"><feGaussianBlur in="SourceAlpha" stdDeviation="2.0" result="blur"/><feComponentTransfer in="blur" color-interpolation-filters="sRGB"><feFuncR type="linear" slope="0" intercept="0.0"/><feFuncG type="linear" slope="0" intercept="0.0"/><feFuncB type="linear" slope="0" intercept="0.0"/><feFuncA type="linear" slope="0.5" intercept="0"/></feComponentTransfer></filter></defs><g id="p.8"><path fill="#000000" fill-opacity="0.0" d="m57.3179 243.77658l137.10236 -96.94487" fill-rule="evenodd"/><path stroke="#666666" stroke-width="4.0" stroke-linejoin="round" stroke-linecap="butt" d="m57.317898 243.7766l125.9095 -89.03044" fill-rule="evenodd"/><path fill="#666666" stroke="#666666" stroke-width="4.0" stroke-linecap="butt" d="m183.2274 154.74615l-1.0758057 6.269989l7.494095 -10.80835l-12.688278 3.4625702z" fill-rule="evenodd"/></g><g filter="url(#shadowFilter-p.9)"><use xlink:href="#p.9" transform="matrix(1.0 0.0 0.0 1.0 0.0 2.0)"/></g><defs><filter id="shadowFilter-p.9" filterUnits="userSpaceOnUse"><feGaussianBlur in="SourceAlpha" stdDeviation="2.0" result="blur"/><feComponentTransfer in="blur" color-interpolation-filters="sRGB"><feFuncR type="linear" slope="0" intercept="0.0"/><feFuncG type="linear" slope="0" intercept="0.0"/><feFuncB type="linear" slope="0" intercept="0.0"/><feFuncA type="linear" slope="0.5" intercept="0"/></feComponentTransfer></filter></defs><g id="p.9"><path fill="#000000" fill-opacity="0.0" d="m57.3179 101.75622l137.10236 91.716545" fill-rule="evenodd"/><path stroke="#666666" stroke-width="4.0" stroke-linejoin="round" stroke-linecap="butt" d="m57.317898 101.756226l125.708405 84.09439" fill-rule="evenodd"/><path fill="#666666" stroke="#666666" stroke-width="4.0" stroke-linecap="butt" d="m183.02632 185.85062l-6.2400513 1.2377014l12.773636 3.1330414l-7.771286 -10.610779z" fill-rule="evenodd"/></g><g filter="url(#shadowFilter-p.10)"><use xlink:href="#p.10" transform="matrix(1.0 0.0 0.0 1.0 0.0 2.0)"/></g><defs><filter id="shadowFilter-p.10" filterUnits="userSpaceOnUse"><feGaussianBlur in="SourceAlpha" stdDeviation="2.0" result="blur"/><feComponentTransfer in="blur" color-interpolation-filters="sRGB"><feFuncR type="linear" slope="0" intercept="0.0"/><feFuncG type="linear" slope="0" intercept="0.0"/><feFuncB type="linear" slope="0" intercept="0.0"/><feFuncA type="linear" slope="0.5" intercept="0"/></feComponentTransfer></filter></defs><g id="p.10"><path fill="#000000" fill-opacity="0.0" d="m57.3179 191.91107l128.09448 23.307083" fill-rule="evenodd"/><path stroke="#666666" stroke-width="4.0" stroke-linejoin="round" stroke-linecap="butt" d="m57.317898 191.91107l114.607574 20.853119" fill-rule="evenodd"/><path fill="#666666" stroke="#666666" stroke-width="4.0" stroke-linecap="butt" d="m171.92548 212.76418l-5.230942 3.6204224l12.964691 -2.2132416l-11.354172 -6.6381073z" fill-rule="evenodd"/></g><g filter="url(#shadowFilter-p.11)"><use xlink:href="#p.11" transform="matrix(1.0 0.0 0.0 1.0 0.0 2.0)"/></g><defs><filter id="shadowFilter-p.11" filterUnits="userSpaceOnUse"><feGaussianBlur in="SourceAlpha" stdDeviation="2.0" result="blur"/><feComponentTransfer in="blur" color-interpolation-filters="sRGB"><feFuncR type="linear" slope="0" intercept="0.0"/><feFuncG type="linear" slope="0" intercept="0.0"/><feFuncB type="linear" slope="0" intercept="0.0"/><feFuncA type="linear" slope="0.5" intercept="0"/></feComponentTransfer></filter></defs><g id="p.11"><path fill="#000000" fill-opacity="0.0" d="m66.33071 265.53543l128.09448 -28.53543" fill-rule="evenodd"/><path stroke="#666666" stroke-width="4.0" stroke-linejoin="round" stroke-linecap="butt" d="m66.33071 265.53543l114.714134 -25.554703" fill-rule="evenodd"/><path fill="#666666" stroke="#666666" stroke-width="4.0" stroke-linecap="butt" d="m181.04483 239.98073l-3.4125824 5.36882l11.085251 -7.0780487l-13.041473 -1.7033691z" fill-rule="evenodd"/></g><path fill="#000000" fill-opacity="0.0" d="m10.944881 -16.80315l49.228348 0l0 61.417324l-49.228348 0z" fill-rule="evenodd"/><path fill="#000000" d="m35.656788 12.211225l2.65625 -5.0468755l5.921875 0l-4.8125 8.921875l5.046875 9.390625l-5.953125 0l-2.875 -5.421875l-2.828125 5.421875l-5.984375 0l5.078125 -9.390625l-4.8125 -8.921875l6.0 0l2.5625 5.0468755z" fill-rule="nonzero"/><path fill="#000000" fill-opacity="0.0" d="m191.55905 -16.80315l49.228348 0l0 61.417324l-49.228348 0z" fill-rule="evenodd"/><path fill="#000000" d="m216.11798 17.492474l3.046875 -10.328125l6.109375 0l-7.46875 21.375l-0.328125 0.78125q-1.578125 3.546875 -5.609375 3.546875q-1.125 0 -2.359375 -0.328125l0 -4.078125l0.75 0q1.203125 0 1.828125 -0.359375q0.640625 -0.34375 0.953125 -1.234375l0.453125 -1.21875l-6.359375 -18.484375l6.09375 0l2.890625 10.328125z" fill-rule="nonzero"/><path fill="#000000" fill-opacity="0.0" d="m95.09449 -16.80315l61.543312 0l0 61.417324l-61.543312 0z" fill-rule="evenodd"/><path fill="#000000" d="m118.66438 17.711224l0.46875 3.25l0.703125 -2.9375l4.875 -17.1875l2.734375 0l4.75 17.1875l0.6875 2.984375l0.515625 -3.3125l3.828125 -16.859375l3.265625 0l-5.96875 24.640625l-2.96875 0l-5.078125 -17.953125l-0.375 -1.875l-0.390625 1.875l-5.265625 17.953125l-2.96875 0l-5.953125 -24.640625l3.25 0l3.890625 16.875z" fill-rule="nonzero"/></g></svg>