<svg version="1.1" viewBox="0.0 0.0 960.01312335958 351.70866141732284" fill="none" stroke="none" stroke-linecap="square" stroke-miterlimit="10" xmlns:xlink="http://www.w3.org/1999/xlink" xmlns="http://www.w3.org/2000/svg"><clipPath id="p.0"><path d="m0 0l960.0131 0l0 351.70865l-960.0131 0l0 -351.70865z" clip-rule="nonzero"/></clipPath><g clip-path="url(#p.0)"><path fill="#000000" fill-opacity="0.0" d="m0 0l960.0131 0l0 351.70865l-960.0131 0z" fill-rule="evenodd"/><g filter="url(#shadowFilter-p.1)"><use xlink:href="#p.1" transform="matrix(1.0 0.0 0.0 1.0 0.0 2.0)"/></g><defs><filter id="shadowFilter-p.1" filterUnits="userSpaceOnUse"><feGaussianBlur in="SourceAlpha" stdDeviation="2.0" result="blur"/><feComponentTransfer in="blur" color-interpolation-filters="sRGB"><feFuncR type="linear" slope="0" intercept="0.0"/><feFuncG type="linear" slope="0" intercept="0.0"/><feFuncB type="linear" slope="0" intercept="0.0"/><feFuncA type="linear" slope="0.5" intercept="0"/></feComponentTransfer></filter></defs><g id="p.1"><path fill="#f3f3f3" d="m300.47855 26.585802l359.04294 0l0 93.08165l-359.04294 0z" fill-rule="evenodd"/><path stroke="#000000" stroke-width="1.0" stroke-linejoin="round" stroke-linecap="butt" d="m300.47855 26.585802l359.04294 0l0 93.08165l-359.04294 0z" fill-rule="evenodd"/><path fill="#000000" d="m427.26562 65.84663q-0.3125 -0.609375 -0.453125 -1.515625q-1.640625 1.828125 -4.265625 1.828125q-2.484375 0 -4.125 -1.4375q-1.625 -1.4375038 -1.625 -3.6250038q0 -2.6875 1.984375 -4.125q2.0 -1.4375 5.765625 -1.453125l2.078125 0l0 -0.96875q0 -1.171875 -0.609375 -1.875q-0.59375 -0.703125 -1.890625 -0.703125q-1.140625 0 -1.796875 0.546875q-0.640625 0.546875 -0.640625 1.5l-4.515625 0q0 -1.46875 0.90625 -2.71875q0.90625 -1.25 2.5625 -1.953125q1.65625 -0.71875 3.71875 -0.71875q3.125 0 4.953125 1.578125q1.84375 1.5625 1.84375 4.40625l0 7.328125q0.015625 2.4062538 0.671875 3.6406288l0 0.265625l-4.5625 0zm-3.734375 -3.1406288q1.0 0 1.84375 -0.4375q0.84375 -0.453125 1.25 -1.203125l0 -2.90625l-1.6875 0q-3.390625 0 -3.609375 2.34375l-0.015625 0.265625q0 0.84375 0.59375 1.390625q0.59375 0.546875 1.625 0.546875zm15.859375 3.1406288l-4.53125 0l0 -24.000004l4.53125 0l0 24.000004zm3.0625 -8.578129q0 -3.890625 1.84375 -6.265625q1.859375 -2.375 5.0 -2.375q2.78125 0 4.328125 1.90625l0.1875 -1.59375l4.09375 0l0 16.343754q0 2.21875 -1.015625 3.859375q-1.0 1.640625 -2.828125 2.5q-1.828125 0.859375 -4.28125 0.859375q-1.859375 0 -3.625 -0.75q-1.765625 -0.734375 -2.671875 -1.90625l2.0 -2.75q1.6875 1.890625 4.09375 1.890625q1.796875 0 2.796875 -0.96875q1.0 -0.953125 1.0 -2.71875l0 -0.90625q-1.5625 1.765625 -4.109375 1.765625q-3.046875 0 -4.9375 -2.3750038q-1.875 -2.390625 -1.875 -6.328125l0 -0.1875zm4.515625 0.328125q0 2.296875 0.921875 3.609375q0.921875 1.296875 2.53125 1.296875q2.0625 0 2.953125 -1.546875l0 -7.109375q-0.90625 -1.546875 -2.921875 -1.546875q-1.625 0 -2.5625 1.328125q-0.921875 1.328125 -0.921875 3.96875zm13.703125 -0.359375q0 -2.515625 0.96875 -4.484375q0.96875 -1.96875 2.78125 -3.046875q1.828125 -1.078125 4.234375 -1.078125q3.421875 0 5.578125 2.09375q2.171875 2.09375 2.421875 5.6875l0.03125 1.15625q0 3.890625 -2.171875 6.25q-2.171875 2.3437538 -5.828125 2.3437538q-3.65625 0 -5.84375 -2.3437538q-2.171875 -2.34375 -2.171875 -6.375l0 -0.203125zm4.515625 0.328125q0 2.40625 0.90625 3.6875q0.90625 1.265625 2.59375 1.265625q1.640625 0 2.5625 -1.25q0.921875 -1.265625 0.921875 -4.03125q0 -2.359375 -0.921875 -3.65625q-0.921875 -1.296875 -2.59375 -1.296875q-1.65625 0 -2.5625 1.296875q-0.90625 1.28125 -0.90625 3.984375zm23.78125 -4.390625q-0.921875 -0.125 -1.625 -0.125q-2.5625 0 -3.359375 1.734375l0 11.062504l-4.515625 0l0 -16.906254l4.265625 0l0.125 2.015625q1.359375 -2.328125 3.765625 -2.328125q0.75 0 1.40625 0.203125l-0.0625 4.34375zm8.765625 6.28125l3.125 -10.515625l4.84375 0l-6.796875 19.531254l-0.375 0.890625q-1.515625 3.3125 -5.0 3.3125q-0.984375 0 -2.0 -0.296875l0 -3.421875l0.6875 0.015625q1.28125 0 1.90625 -0.390625q0.640625 -0.390625 1.0 -1.296875l0.53125 -1.390625l-5.921875 -16.953129l4.859375 0l3.140625 10.515625zm15.15625 -14.671875l0 4.15625l2.890625 0l0 3.3125l-2.890625 0l0 8.4375q0 0.9375 0.359375 1.34375q0.359375 0.40625 1.375 0.40625q0.75 0 1.328125 -0.109375l0 3.4218788q-1.328125 0.40625 -2.734375 0.40625q-4.75 0 -4.84375 -4.796879l0 -9.109375l-2.46875 0l0 -3.3125l2.46875 0l0 -4.15625l4.515625 0zm9.640625 4.15625l0.140625 1.890625q1.796875 -2.203125 4.859375 -2.203125q3.265625 0 4.484375 2.578125q1.78125 -2.578125 5.078125 -2.578125q2.75 0 4.09375 1.609375q1.34375 1.59375 1.34375 4.8125l0 10.796879l-4.53125 0l0 -10.781254q0 -1.4375 -0.5625 -2.09375q-0.5625 -0.671875 -1.984375 -0.671875q-2.03125 0 -2.8125 1.9375l0.015625 11.609379l-4.515625 0l0 -10.765629q0 -1.46875 -0.578125 -2.125q-0.578125 -0.65625 -1.96875 -0.65625q-1.921875 0 -2.78125 1.59375l0 11.953129l-4.515625 0l0 -16.906254l4.234375 0z" fill-rule="nonzero"/><path fill="#000000" d="m416.875 97.06538l-1.625 1.625l0 5.15625l-4.515625 0l0 -24.0l4.515625 0l0 13.296875l0.875 -1.125l4.328125 -5.078125l5.421875 0l-6.109375 7.046875l6.640625 9.859375l-5.1875 0l-4.34375 -6.78125zm15.71875 6.78125l-4.53125 0l0 -24.0l4.53125 0l0 24.0zm13.515625 0q-0.3125 -0.609375 -0.453125 -1.515625q-1.640625 1.828125 -4.265625 1.828125q-2.484375 0 -4.125 -1.4375q-1.625 -1.4375 -1.625 -3.625q0 -2.6875 1.984375 -4.125q2.0 -1.4375 5.765625 -1.453125l2.078125 0l0 -0.96875q0 -1.171875 -0.609375 -1.875q-0.59375 -0.703125 -1.890625 -0.703125q-1.140625 0 -1.796875 0.546875q-0.640625 0.546875 -0.640625 1.5l-4.515625 0q0 -1.46875 0.90625 -2.71875q0.90625 -1.25 2.5625 -1.953125q1.65625 -0.71875 3.71875 -0.71875q3.125 0 4.953125 1.578125q1.84375 1.5625 1.84375 4.40625l0 7.328125q0.015625 2.40625 0.671875 3.640625l0 0.265625l-4.5625 0zm-3.734375 -3.140625q1.0 0 1.84375 -0.4375q0.84375 -0.453125 1.25 -1.203125l0 -2.90625l-1.6875 0q-3.390625 0 -3.609375 2.34375l-0.015625 0.265625q0 0.84375 0.59375 1.390625q0.59375 0.546875 1.625 0.546875zm20.25 -1.53125q0 -0.828125 -0.828125 -1.296875q-0.8125 -0.484375 -2.625 -0.859375q-6.03125 -1.265625 -6.03125 -5.125q0 -2.25 1.859375 -3.75q1.875 -1.515625 4.890625 -1.515625q3.21875 0 5.140625 1.515625q1.9375 1.515625 1.9375 3.9375l-4.515625 0q0 -0.96875 -0.625 -1.59375q-0.625 -0.640625 -1.953125 -0.640625q-1.140625 0 -1.765625 0.515625q-0.625 0.515625 -0.625 1.3125q0 0.75 0.703125 1.21875q0.71875 0.453125 2.40625 0.796875q1.6875 0.328125 2.84375 0.75q3.578125 1.3125 3.578125 4.546875q0 2.3125 -1.984375 3.75q-1.984375 1.421875 -5.125 1.421875q-2.125 0 -3.78125 -0.75q-1.640625 -0.765625 -2.578125 -2.078125q-0.9375 -1.328125 -0.9375 -2.859375l4.28125 0q0.0625 1.203125 0.890625 1.84375q0.828125 0.640625 2.21875 0.640625q1.296875 0 1.953125 -0.484375q0.671875 -0.5 0.671875 -1.296875zm13.609375 -1.71875l3.125 -10.515625l4.84375 0l-6.796875 19.53125l-0.375 0.890625q-1.515625 3.3125 -5.0 3.3125q-0.984375 0 -2.0 -0.296875l0 -3.421875l0.6875 0.015625q1.28125 0 1.90625 -0.390625q0.640625 -0.390625 1.0 -1.296875l0.53125 -1.390625l-5.921875 -16.953125l4.859375 0l3.140625 10.515625zm16.578125 3.0625q1.25 0 2.03125 -0.6875q0.78125 -0.6875 0.8125 -1.828125l4.234375 0q-0.015625 1.71875 -0.9375 3.15625q-0.921875 1.421875 -2.53125 2.21875q-1.59375 0.78125 -3.53125 0.78125q-3.625 0 -5.71875 -2.296875q-2.09375 -2.3125 -2.09375 -6.375l0 -0.296875q0 -3.90625 2.078125 -6.234375q2.078125 -2.328125 5.703125 -2.328125q3.171875 0 5.078125 1.8125q1.921875 1.796875 1.953125 4.796875l-4.234375 0q-0.03125 -1.3125 -0.8125 -2.125q-0.78125 -0.828125 -2.0625 -0.828125q-1.578125 0 -2.390625 1.15625q-0.796875 1.140625 -0.796875 3.71875l0 0.46875q0 2.609375 0.796875 3.75q0.796875 1.140625 2.421875 1.140625zm14.84375 -0.3125l8.265625 0l0 3.640625l-14.03125 0l0 -2.75l7.953125 -10.5l-7.71875 0l0 -3.65625l13.546875 0l0 2.671875l-8.015625 10.59375zm15.25 -13.265625l0.140625 1.953125q1.8125 -2.265625 4.859375 -2.265625q2.6875 0 4.0 1.578125q1.3125 1.578125 1.34375 4.71875l0 10.921875l-4.515625 0l0 -10.8125q0 -1.4375 -0.625 -2.078125q-0.625 -0.65625 -2.078125 -0.65625q-1.90625 0 -2.859375 1.625l0 11.921875l-4.515625 0l0 -16.90625l4.25 0zm20.078125 10.515625l3.125 -10.515625l4.84375 0l-6.796875 19.53125l-0.375 0.890625q-1.515625 3.3125 -5.0 3.3125q-0.984375 0 -2.0 -0.296875l0 -3.421875l0.6875 0.015625q1.28125 0 1.90625 -0.390625q0.640625 -0.390625 1.0 -1.296875l0.53125 -1.390625l-5.921875 -16.953125l4.859375 0l3.140625 10.515625z" fill-rule="nonzero"/></g><g filter="url(#shadowFilter-p.2)"><use xlink:href="#p.2" transform="matrix(1.0 0.0 0.0 1.0 0.0 2.0)"/></g><defs><filter id="shadowFilter-p.2" filterUnits="userSpaceOnUse"><feGaussianBlur in="SourceAlpha" stdDeviation="2.0" result="blur"/><feComponentTransfer in="blur" color-interpolation-filters="sRGB"><feFuncR type="linear" slope="0" intercept="0.0"/><feFuncG type="linear" slope="0" intercept="0.0"/><feFuncB type="linear" slope="0" intercept="0.0"/><feFuncA type="linear" slope="0.5" intercept="0"/></feComponentTransfer></filter></defs><g id="p.2"><path fill="#cfe2f3" d="m7.9356956 6.2231007l199.46103 0l0 53.189514l-199.46103 0z" fill-rule="evenodd"/><path stroke="#000000" stroke-width="1.0" stroke-linejoin="round" stroke-linecap="butt" d="m7.9356956 6.2231007l199.46103 0l0 53.189514l-199.46103 0z" fill-rule="evenodd"/><path fill="#000000" d="m74.595894 30.225355q-0.65625 -0.109375 -1.421875 -0.109375q-2.84375 0 -3.859375 2.421877l0 12.0l-2.890625 0l0 -16.906252l2.8125 0l0.046875 1.953125q1.421875 -2.265625 4.03125 -2.265625q0.84375 0 1.28125 0.21875l0 2.6875zm9.375 14.625002q-3.4375 0 -5.59375 -2.25q-2.15625 -2.265625 -2.15625 -6.046875l0 -0.53125q0 -2.515625 0.953125 -4.484377q0.96875 -1.984375 2.6875 -3.09375q1.734375 -1.125 3.75 -1.125q3.296875 0 5.125 2.171875q1.828125 2.171875 1.828125 6.218752l0 1.203125l-11.453125 0q0.0625 2.5 1.453125 4.046875q1.40625 1.53125 3.5625 1.53125q1.53125 0 2.59375 -0.625q1.0625 -0.625 1.859375 -1.65625l1.765625 1.375q-2.125 3.265625 -6.375 3.265625zm-0.359375 -15.156252q-1.75 0 -2.9375 1.28125q-1.1875 1.2656269 -1.46875 3.562502l8.46875 0l0 -0.21875q-0.125 -2.203125 -1.1875 -3.406252q-1.0625 -1.21875 -2.875 -1.21875zm9.609375 6.250002q0 -3.953127 1.828125 -6.281252q1.828125 -2.34375 4.84375 -2.34375q3.09375 0 4.828125 2.1875l0.140625 -1.875l2.640625 0l0 16.500002q0 3.28125 -1.953125 5.171875q-1.9375 1.890625 -5.21875 1.890625q-1.828125 0 -3.578125 -0.78125q-1.75 -0.78125 -2.671875 -2.140625l1.5 -1.734375q1.859375 2.296875 4.546875 2.296875q2.109375 0 3.28125 -1.1875q1.1875 -1.1875 1.1875 -3.34375l0 -1.453125q-1.734375 2.0 -4.734375 2.0q-2.96875 0 -4.8125 -2.390625q-1.828125 -2.390625 -1.828125 -6.515625zm2.90625 0.328125q0 2.859375 1.171875 4.5q1.171875 1.625 3.28125 1.625q2.734375 0 4.015625 -2.484375l0 -7.71875q-1.328125 -2.421877 -3.984375 -2.421877q-2.109375 0 -3.296875 1.640625q-1.1875 1.6406269 -1.1875 4.859377zm26.171875 6.59375q-1.6875 1.984375 -4.953125 1.984375q-2.703125 0 -4.125 -1.5625q-1.40625 -1.578125 -1.421875 -4.65625l0 -11.000002l2.890625 0l0 10.921877q0 3.84375 3.125 3.84375q3.3125 0 4.40625 -2.46875l0 -12.296877l2.890625 0l0 16.906252l-2.75 0l-0.0625 -1.671875zm10.703133 -11.906252l2.46875 -0.953125l0 1.921875l-2.46875 0.9531269l0 11.65625l-2.90625 0l0 -10.546875l-2.2500076 0.859375l0 -1.921875l2.2500076 -0.859375l0 -11.531252l2.90625 0l0 10.421875zm10.671875 9.343752l3.9375 -12.671877l3.09375 0l-6.796875 19.515627q-1.578125 4.21875 -5.015625 4.21875l-0.546875 -0.046875l-1.078125 -0.203125l0 -2.34375l0.78125 0.0625q1.46875 0 2.28125 -0.59375q0.828125 -0.59375 1.359375 -2.171875l0.640625 -1.71875l-6.03125 -16.718752l3.15625 0l4.21875 12.671877z" fill-rule="nonzero"/></g><g filter="url(#shadowFilter-p.3)"><use xlink:href="#p.3" transform="matrix(1.0 0.0 0.0 1.0 0.0 2.0)"/></g><defs><filter id="shadowFilter-p.3" filterUnits="userSpaceOnUse"><feGaussianBlur in="SourceAlpha" stdDeviation="2.0" result="blur"/><feComponentTransfer in="blur" color-interpolation-filters="sRGB"><feFuncR type="linear" slope="0" intercept="0.0"/><feFuncG type="linear" slope="0" intercept="0.0"/><feFuncB type="linear" slope="0" intercept="0.0"/><feFuncA type="linear" slope="0.5" intercept="0"/></feComponentTransfer></filter></defs><g id="p.3"><path fill="#cfe2f3" d="m7.9356956 86.84064l199.46103 0l0 53.189514l-199.46103 0z" fill-rule="evenodd"/><path stroke="#000000" stroke-width="1.0" stroke-linejoin="round" stroke-linecap="butt" d="m7.9356956 86.84064l199.46103 0l0 53.189514l-199.46103 0z" fill-rule="evenodd"/><path fill="#000000" d="m74.11933 116.56164q0 -3.890625 1.84375 -6.25q1.84375 -2.375 4.828125 -2.375q2.96875 0 4.703125 2.03125l0 -8.8125l2.890625 0l0 24.0l-2.65625 0l-0.140625 -1.8125q-1.734375 2.125 -4.828125 2.125q-2.9375 0 -4.796875 -2.40625q-1.84375 -2.40625 -1.84375 -6.28125l0 -0.21875zm2.890625 0.328125q0 2.875 1.1875 4.5q1.1875 1.625 3.28125 1.625q2.75 0 4.015625 -2.46875l0 -7.765625q-1.296875 -2.390625 -3.984375 -2.390625q-2.125 0 -3.3125 1.640625q-1.1875 1.640625 -1.1875 4.859375zm26.296875 8.265625q-0.25 -0.5 -0.40625 -1.78125q-2.015625 2.09375 -4.8125 2.09375q-2.5 0 -4.109375 -1.40625q-1.59375 -1.421875 -1.59375 -3.59375q0 -2.640625 2.0 -4.09375q2.015625 -1.46875 5.65625 -1.46875l2.8125 0l0 -1.328125q0 -1.515625 -0.90625 -2.40625q-0.90625 -0.90625 -2.671875 -0.90625q-1.546875 0 -2.59375 0.78125q-1.046875 0.78125 -1.046875 1.890625l-2.90625 0q0 -1.265625 0.890625 -2.4375q0.90625 -1.1875 2.4375 -1.875q1.546875 -0.6875 3.390625 -0.6875q2.921875 0 4.578125 1.46875q1.65625 1.453125 1.71875 4.015625l0 7.78125q0 2.328125 0.59375 3.703125l0 0.25l-3.03125 0zm-4.796875 -2.203125q1.359375 0 2.578125 -0.703125q1.21875 -0.703125 1.765625 -1.828125l0 -3.46875l-2.265625 0q-5.3125 0 -5.3125 3.109375q0 1.359375 0.90625 2.125q0.90625 0.765625 2.328125 0.765625zm14.5 -14.703125l0.09375 2.125q1.9375 -2.4375 5.0625 -2.4375q5.359375 0 5.40625 6.046875l0 11.171875l-2.890625 0l0 -11.1875q-0.015625 -1.828125 -0.84375 -2.703125q-0.8125 -0.875 -2.546875 -0.875q-1.40625 0 -2.46875 0.75q-1.0625 0.75 -1.65625 1.96875l0 12.046875l-2.890625 0l0 -16.90625l2.734375 0zm21.937508 17.21875q-3.4375 0 -5.59375 -2.25q-2.1562576 -2.265625 -2.1562576 -6.046875l0 -0.53125q0 -2.515625 0.9531326 -4.484375q0.96875 -1.984375 2.6875 -3.09375q1.734375 -1.125 3.75 -1.125q3.296875 0 5.125 2.171875q1.828125 2.171875 1.828125 6.21875l0 1.203125l-11.453125 0q0.0625 2.5 1.453125 4.046875q1.40625 1.53125 3.5625 1.53125q1.53125 0 2.59375 -0.625q1.0625 -0.625 1.859375 -1.65625l1.765625 1.375q-2.125 3.265625 -6.375 3.265625zm-0.359375 -15.15625q-1.75 0 -2.9375 1.28125q-1.1875 1.265625 -1.46875 3.5625l8.46875 0l0 -0.21875q-0.125 -2.203125 -1.1875 -3.40625q-1.0625 -1.21875 -2.875 -1.21875z" fill-rule="nonzero"/></g><g filter="url(#shadowFilter-p.4)"><use xlink:href="#p.4" transform="matrix(1.0 0.0 0.0 1.0 0.0 2.0)"/></g><defs><filter id="shadowFilter-p.4" filterUnits="userSpaceOnUse"><feGaussianBlur in="SourceAlpha" stdDeviation="2.0" result="blur"/><feComponentTransfer in="blur" color-interpolation-filters="sRGB"><feFuncR type="linear" slope="0" intercept="0.0"/><feFuncG type="linear" slope="0" intercept="0.0"/><feFuncB type="linear" slope="0" intercept="0.0"/><feFuncA type="linear" slope="0.5" intercept="0"/></feComponentTransfer></filter></defs><g id="p.4"><path fill="#cfe2f3" d="m752.6033 46.531868l199.46106 0l0 53.189514l-199.46106 0z" fill-rule="evenodd"/><path stroke="#000000" stroke-width="1.0" stroke-linejoin="round" stroke-linecap="butt" d="m752.6033 46.531868l199.46106 0l0 53.189514l-199.46106 0z" fill-rule="evenodd"/><path fill="#000000" d="m772.2869 76.23725q0 -2.484375 0.96875 -4.46875q0.984375 -1.984375 2.71875 -3.0625q1.75 -1.078125 3.984375 -1.078125q3.453125 0 5.578125 2.390625q2.140625 2.390625 2.140625 6.359375l0 0.203125q0 2.46875 -0.953125 4.4375q-0.9375 1.953125 -2.703125 3.046875q-1.75 1.09375 -4.03125 1.09375q-3.4375 0 -5.578125 -2.390625q-2.125 -2.390625 -2.125 -6.328125l0 -0.203125zm2.90625 0.34375q0 2.8125 1.296875 4.515625q1.3125 1.703125 3.5 1.703125q2.203125 0 3.5 -1.71875q1.296875 -1.734375 1.296875 -4.84375q0 -2.78125 -1.328125 -4.5q-1.3125 -1.734375 -3.5 -1.734375q-2.140625 0 -3.453125 1.703125q-1.3125 1.703125 -1.3125 4.875zm15.40625 -0.328125q0 -3.890625 1.84375 -6.25q1.84375 -2.375 4.828125 -2.375q2.96875 0 4.703125 2.03125l0 -8.812504l2.890625 0l0 24.000004l-2.65625 0l-0.140625 -1.8125q-1.734375 2.125 -4.828125 2.125q-2.9375 0 -4.796875 -2.40625q-1.84375 -2.40625 -1.84375 -6.28125l0 -0.21875zm2.890625 0.328125q0 2.875 1.1875 4.5q1.1875 1.625 3.28125 1.625q2.75 0 4.015625 -2.46875l0 -7.765625q-1.296875 -2.390625 -3.984375 -2.390625q-2.125 0 -3.3125 1.640625q-1.1875 1.640625 -1.1875 4.859375zm30.140625 0q0 3.859375 -1.765625 6.21875q-1.765625 2.359375 -4.78125 2.359375q-3.078125 0 -4.84375 -1.953125l0 8.140625l-2.890625 0l0 -23.40625l2.640625 0l0.140625 1.875q1.765625 -2.1875 4.90625 -2.1875q3.046875 0 4.8125 2.296875q1.78125 2.296875 1.78125 6.390625l0 0.265625zm-2.890625 -0.328125q0 -2.859375 -1.21875 -4.515625q-1.21875 -1.65625 -3.34375 -1.65625q-2.625 0 -3.9375 2.328125l0 8.078125q1.296875 2.3125 3.96875 2.3125q2.078125 0 3.296875 -1.640625q1.234375 -1.65625 1.234375 -4.90625zm5.796875 -0.015625q0 -2.484375 0.96875 -4.46875q0.984375 -1.984375 2.71875 -3.0625q1.75 -1.078125 3.984375 -1.078125q3.453125 0 5.578125 2.390625q2.140625 2.390625 2.140625 6.359375l0 0.203125q0 2.46875 -0.953125 4.4375q-0.9375 1.953125 -2.703125 3.046875q-1.75 1.09375 -4.03125 1.09375q-3.4375 0 -5.578125 -2.390625q-2.125 -2.390625 -2.125 -6.328125l0 -0.203125zm2.90625 0.34375q0 2.8125 1.296875 4.515625q1.3125 1.703125 3.5 1.703125q2.203125 0 3.5 -1.71875q1.296875 -1.734375 1.296875 -4.84375q0 -2.78125 -1.328125 -4.5q-1.3125 -1.734375 -3.5 -1.734375q-2.140625 0 -3.453125 1.703125q-1.3125 1.703125 -1.3125 4.875zm31.078125 4.28125l3.25 -12.921875l2.890625 0l-4.921875 16.90625l-2.34375 0l-4.109375 -12.8125l-4.0 12.8125l-2.34375 0l-4.90625 -16.90625l2.875 0l3.328125 12.65625l3.9375 -12.65625l2.328125 0l4.015625 12.921875zm12.21875 3.984375l-2.890625 0l0 -16.90625l2.890625 0l0 16.90625zm-3.125 -21.390629q0 -0.703125 0.421875 -1.1875q0.4375 -0.484375 1.28125 -0.484375q0.84375 0 1.28125 0.484375q0.4375 0.484375 0.4375 1.1875q0 0.7031288 -0.4375 1.1718788q-0.4375 0.46875 -1.28125 0.46875q-0.84375 0 -1.28125 -0.46875q-0.421875 -0.46875 -0.421875 -1.1718788zm14.765625 21.703129q-3.4375 0 -5.59375 -2.25q-2.15625 -2.265625 -2.15625 -6.046875l0 -0.53125q0 -2.515625 0.953125 -4.484375q0.96875 -1.984375 2.6875 -3.09375q1.734375 -1.125 3.75 -1.125q3.296875 0 5.125 2.171875q1.828125 2.171875 1.828125 6.21875l0 1.203125l-11.453125 0q0.0625 2.5 1.453125 4.046875q1.40625 1.53125 3.5625 1.53125q1.53125 0 2.59375 -0.625q1.0625 -0.625 1.859375 -1.65625l1.765625 1.375q-2.125 3.265625 -6.375 3.265625zm-0.359375 -15.15625q-1.75 0 -2.9375 1.28125q-1.1875 1.265625 -1.46875 3.5625l8.46875 0l0 -0.21875q-0.125 -2.203125 -1.1875 -3.40625q-1.0625 -1.21875 -2.875 -1.21875zm9.59375 6.25q0 -3.890625 1.84375 -6.25q1.84375 -2.375 4.828125 -2.375q2.96875 0 4.703125 2.03125l0 -8.812504l2.890625 0l0 24.000004l-2.65625 0l-0.140625 -1.8125q-1.734375 2.125 -4.828125 2.125q-2.9375 0 -4.796875 -2.40625q-1.84375 -2.40625 -1.84375 -6.28125l0 -0.21875zm2.890625 0.328125q0 2.875 1.1875 4.5q1.1875 1.625 3.28125 1.625q2.75 0 4.015625 -2.46875l0 -7.765625q-1.296875 -2.390625 -3.984375 -2.390625q-2.125 0 -3.3125 1.640625q-1.1875 1.640625 -1.1875 4.859375zm18.578125 5.90625l9.890625 0l0 2.359375l-13.421875 0l0 -2.125l9.328125 -12.390625l-9.1875 0l0 -2.390625l12.8125 0l0 2.046875l-9.421875 12.5zm16.28125 2.359375l-2.890625 0l0 -16.90625l2.890625 0l0 16.90625zm-3.125 -21.390629q0 -0.703125 0.421875 -1.1875q0.4375 -0.484375 1.28125 -0.484375q0.84375 0 1.28125 0.484375q0.4375 0.484375 0.4375 1.1875q0 0.7031288 -0.4375 1.1718788q-0.4375 0.46875 -1.28125 0.46875q-0.84375 0 -1.28125 -0.46875q-0.421875 -0.46875 -0.421875 -1.1718788z" fill-rule="nonzero"/></g><g filter="url(#shadowFilter-p.5)"><use xlink:href="#p.5" transform="matrix(1.0 0.0 0.0 1.0 0.0 2.0)"/></g><defs><filter id="shadowFilter-p.5" filterUnits="userSpaceOnUse"><feGaussianBlur in="SourceAlpha" stdDeviation="2.0" result="blur"/><feComponentTransfer in="blur" color-interpolation-filters="sRGB"><feFuncR type="linear" slope="0" intercept="0.0"/><feFuncG type="linear" slope="0" intercept="0.0"/><feFuncB type="linear" slope="0" intercept="0.0"/><feFuncA type="linear" slope="0.5" intercept="0"/></feComponentTransfer></filter></defs><g id="p.5"><path fill="#f3f3f3" d="m300.47855 226.04648l359.04294 0l0 93.081635l-359.04294 0z" fill-rule="evenodd"/><path stroke="#000000" stroke-width="1.0" stroke-linejoin="round" stroke-linecap="butt" d="m300.47855 226.04648l359.04294 0l0 93.081635l-359.04294 0z" fill-rule="evenodd"/><path fill="#000000" d="m427.26562 265.30728q-0.3125 -0.609375 -0.453125 -1.515625q-1.640625 1.828125 -4.265625 1.828125q-2.484375 0 -4.125 -1.4375q-1.625 -1.4375 -1.625 -3.625q0 -2.6875 1.984375 -4.125q2.0 -1.4374847 5.765625 -1.4531097l2.078125 0l0 -0.96875q0 -1.171875 -0.609375 -1.875q-0.59375 -0.703125 -1.890625 -0.703125q-1.140625 0 -1.796875 0.546875q-0.640625 0.546875 -0.640625 1.5l-4.515625 0q0 -1.46875 0.90625 -2.71875q0.90625 -1.25 2.5625 -1.953125q1.65625 -0.71875 3.71875 -0.71875q3.125 0 4.953125 1.578125q1.84375 1.5625 1.84375 4.40625l0 7.3281097q0.015625 2.40625 0.671875 3.640625l0 0.265625l-4.5625 0zm-3.734375 -3.140625q1.0 0 1.84375 -0.4375q0.84375 -0.453125 1.25 -1.203125l0 -2.90625l-1.6875 0q-3.390625 0 -3.609375 2.34375l-0.015625 0.265625q0 0.84375 0.59375 1.390625q0.59375 0.546875 1.625 0.546875zm15.859375 3.140625l-4.53125 0l0 -23.999985l4.53125 0l0 23.999985zm3.0625 -8.578125q0 -3.8906097 1.84375 -6.2656097q1.859375 -2.375 5.0 -2.375q2.78125 0 4.328125 1.90625l0.1875 -1.59375l4.09375 0l0 16.343735q0 2.21875 -1.015625 3.859375q-1.0 1.640625 -2.828125 2.5q-1.828125 0.859375 -4.28125 0.859375q-1.859375 0 -3.625 -0.75q-1.765625 -0.734375 -2.671875 -1.90625l2.0 -2.75q1.6875 1.890625 4.09375 1.890625q1.796875 0 2.796875 -0.96875q1.0 -0.953125 1.0 -2.71875l0 -0.90625q-1.5625 1.765625 -4.109375 1.765625q-3.046875 0 -4.9375 -2.375q-1.875 -2.390625 -1.875 -6.328125l0 -0.1875zm4.515625 0.328125q0 2.296875 0.921875 3.609375q0.921875 1.296875 2.53125 1.296875q2.0625 0 2.953125 -1.546875l0 -7.1093597q-0.90625 -1.546875 -2.921875 -1.546875q-1.625 0 -2.5625 1.328125q-0.921875 1.328125 -0.921875 3.9687347zm13.703125 -0.359375q0 -2.5156097 0.96875 -4.4843597q0.96875 -1.96875 2.78125 -3.046875q1.828125 -1.078125 4.234375 -1.078125q3.421875 0 5.578125 2.09375q2.171875 2.09375 2.421875 5.6875l0.03125 1.1562347q0 3.890625 -2.171875 6.25q-2.171875 2.34375 -5.828125 2.34375q-3.65625 0 -5.84375 -2.34375q-2.171875 -2.34375 -2.171875 -6.375l0 -0.203125zm4.515625 0.328125q0 2.40625 0.90625 3.6875q0.90625 1.265625 2.59375 1.265625q1.640625 0 2.5625 -1.25q0.921875 -1.265625 0.921875 -4.03125q0 -2.3593597 -0.921875 -3.6562347q-0.921875 -1.296875 -2.59375 -1.296875q-1.65625 0 -2.5625 1.296875q-0.90625 1.28125 -0.90625 3.9843597zm23.78125 -4.3906097q-0.921875 -0.125 -1.625 -0.125q-2.5625 0 -3.359375 1.734375l0 11.062485l-4.515625 0l0 -16.906235l4.265625 0l0.125 2.015625q1.359375 -2.328125 3.765625 -2.328125q0.75 0 1.40625 0.203125l-0.0625 4.34375zm8.765625 6.2812347l3.125 -10.51561l4.84375 0l-6.796875 19.531235l-0.375 0.890625q-1.515625 3.3125 -5.0 3.3125q-0.984375 0 -2.0 -0.296875l0 -3.421875l0.6875 0.015625q1.28125 0 1.90625 -0.390625q0.640625 -0.390625 1.0 -1.296875l0.53125 -1.390625l-5.921875 -16.95311l4.859375 0l3.140625 10.51561zm15.15625 -14.67186l0 4.15625l2.890625 0l0 3.3125l-2.890625 0l0 8.437485q0 0.9375 0.359375 1.34375q0.359375 0.40625 1.375 0.40625q0.75 0 1.328125 -0.109375l0 3.421875q-1.328125 0.40625 -2.734375 0.40625q-4.75 0 -4.84375 -4.796875l0 -9.10936l-2.46875 0l0 -3.3125l2.46875 0l0 -4.15625l4.515625 0zm9.640625 4.15625l0.140625 1.890625q1.796875 -2.203125 4.859375 -2.203125q3.265625 0 4.484375 2.578125q1.78125 -2.578125 5.078125 -2.578125q2.75 0 4.09375 1.609375q1.34375 1.59375 1.34375 4.8125l0 10.79686l-4.53125 0l0 -10.781235q0 -1.4375 -0.5625 -2.09375q-0.5625 -0.671875 -1.984375 -0.671875q-2.03125 0 -2.8125 1.9375l0.015625 11.60936l-4.515625 0l0 -10.76561q0 -1.46875 -0.578125 -2.125q-0.578125 -0.65625 -1.96875 -0.65625q-1.921875 0 -2.78125 1.59375l0 11.95311l-4.515625 0l0 -16.906235l4.234375 0z" fill-rule="nonzero"/><path fill="#000000" d="m328.71094 301.58856q-1.671875 2.03125 -4.625 2.03125q-2.71875 0 -4.15625 -1.5625q-1.421875 -1.5625 -1.453125 -4.578125l0 -11.078125l4.515625 0l0 10.921875q0 2.640625 2.40625 2.640625q2.296875 0 3.15625 -1.59375l0 -11.96875l4.53125 0l0 16.90625l-4.25 0l-0.125 -1.71875zm14.8125 -1.609375q1.25 0 2.03125 -0.6875q0.78125 -0.6875 0.8125 -1.828125l4.234375 0q-0.015625 1.71875 -0.9375 3.15625q-0.921875 1.421875 -2.53125 2.21875q-1.59375 0.78125 -3.53125 0.78125q-3.625 0 -5.71875 -2.296875q-2.09375 -2.3125 -2.09375 -6.375l0 -0.296875q0 -3.90625 2.078125 -6.234375q2.078125 -2.328125 5.703125 -2.328125q3.171875 0 5.078125 1.8125q1.921875 1.796875 1.953125 4.796875l-4.234375 0q-0.03125 -1.3125 -0.8125 -2.125q-0.78125 -0.828125 -2.0625 -0.828125q-1.578125 0 -2.390625 1.15625q-0.796875 1.140625 -0.796875 3.71875l0 0.46875q0 2.609375 0.796875 3.75q0.796875 1.140625 2.421875 1.140625zm14.84375 -0.3125l8.265625 0l0 3.640625l-14.03125 0l0 -2.75l7.953125 -10.5l-7.71875 0l0 -3.65625l13.546875 0l0 2.671875l-8.015625 10.59375zm18.625 3.953125q-3.71875 0 -6.0625 -2.28125q-2.328125 -2.28125 -2.328125 -6.078125l0 -0.4375q0 -2.546875 0.984375 -4.546875q0.984375 -2.015625 2.78125 -3.09375q1.8125 -1.09375 4.125 -1.09375q3.46875 0 5.453125 2.1875q2.0 2.1875 2.0 6.203125l0 1.84375l-10.765625 0q0.21875 1.65625 1.3125 2.65625q1.109375 1.0 2.796875 1.0q2.609375 0 4.078125 -1.890625l2.21875 2.484375q-1.015625 1.4375 -2.75 2.25q-1.734375 0.796875 -3.84375 0.796875zm-0.515625 -13.875q-1.34375 0 -2.1875 0.90625q-0.828125 0.90625 -1.0625 2.59375l6.28125 0l0 -0.359375q-0.03125 -1.5 -0.8125 -2.3125q-0.78125 -0.828125 -2.21875 -0.828125zm14.1875 -3.34375l0.140625 1.953125q1.8125 -2.265625 4.859375 -2.265625q2.6875 0 4.0 1.578125q1.3125 1.578125 1.34375 4.71875l0 10.921875l-4.515625 0l0 -10.8125q0 -1.4375 -0.625 -2.078125q-0.625 -0.65625 -2.078125 -0.65625q-1.90625 0 -2.859375 1.625l0 11.921875l-4.515625 0l0 -16.90625l4.25 0zm18.53125 16.90625l-4.53125 0l0 -16.90625l4.53125 0l0 16.90625zm-4.796875 -21.28125q0 -1.015625 0.671875 -1.671875q0.6875 -0.65625 1.859375 -0.65625q1.15625 0 1.84375 0.65625q0.6875 0.65625 0.6875 1.671875q0 1.03125 -0.703125 1.6875q-0.6875 0.65625 -1.828125 0.65625q-1.140625 0 -1.84375 -0.65625q-0.6875 -0.65625 -0.6875 -1.6875zm18.3125 21.28125q-0.3125 -0.609375 -0.453125 -1.515625q-1.640625 1.828125 -4.265625 1.828125q-2.484375 0 -4.125 -1.4375q-1.625 -1.4375 -1.625 -3.625q0 -2.6875 1.984375 -4.125q2.0 -1.4375 5.765625 -1.453125l2.078125 0l0 -0.96875q0 -1.171875 -0.609375 -1.875q-0.59375 -0.703125 -1.890625 -0.703125q-1.140625 0 -1.796875 0.546875q-0.640625 0.546875 -0.640625 1.5l-4.515625 0q0 -1.46875 0.90625 -2.71875q0.90625 -1.25 2.5625 -1.953125q1.65625 -0.71875 3.71875 -0.71875q3.125 0 4.953125 1.578125q1.84375 1.5625 1.84375 4.40625l0 7.328125q0.015625 2.40625 0.671875 3.640625l0 0.265625l-4.5625 0zm-3.734375 -3.140625q1.0 0 1.84375 -0.4375q0.84375 -0.453125 1.25 -1.203125l0 -2.90625l-1.6875 0q-3.390625 0 -3.609375 2.34375l-0.015625 0.265625q0 0.84375 0.59375 1.390625q0.59375 0.546875 1.625 0.546875zm23.296875 -13.765625l0.140625 1.890625q1.796875 -2.203125 4.859375 -2.203125q3.265625 0 4.484375 2.578125q1.78125 -2.578125 5.078125 -2.578125q2.75 0 4.09375 1.609375q1.34375 1.59375 1.34375 4.8125l0 10.796875l-4.53125 0l0 -10.78125q0 -1.4375 -0.5625 -2.09375q-0.5625 -0.671875 -1.984375 -0.671875q-2.03125 0 -2.8125 1.9375l0.015625 11.609375l-4.515625 0l0 -10.765625q0 -1.46875 -0.578125 -2.125q-0.578125 -0.65625 -1.96875 -0.65625q-1.921875 0 -2.78125 1.59375l0 11.953125l-4.515625 0l0 -16.90625l4.234375 0zm33.265625 16.90625q-0.3125 -0.609375 -0.453125 -1.515625q-1.640625 1.828125 -4.265625 1.828125q-2.484375 0 -4.125 -1.4375q-1.625 -1.4375 -1.625 -3.625q0 -2.6875 1.984375 -4.125q2.0 -1.4375 5.765625 -1.453125l2.078125 0l0 -0.96875q0 -1.171875 -0.609375 -1.875q-0.59375 -0.703125 -1.890625 -0.703125q-1.140625 0 -1.796875 0.546875q-0.640625 0.546875 -0.640625 1.5l-4.515625 0q0 -1.46875 0.90625 -2.71875q0.90625 -1.25 2.5625 -1.953125q1.65625 -0.71875 3.71875 -0.71875q3.125 0 4.953125 1.578125q1.84375 1.5625 1.84375 4.40625l0 7.328125q0.015625 2.40625 0.671875 3.640625l0 0.265625l-4.5625 0zm-3.734375 -3.140625q1.0 0 1.84375 -0.4375q0.84375 -0.453125 1.25 -1.203125l0 -2.90625l-1.6875 0q-3.390625 0 -3.609375 2.34375l-0.015625 0.265625q0 0.84375 0.59375 1.390625q0.59375 0.546875 1.625 0.546875zm20.25 -1.53125q0 -0.828125 -0.828125 -1.296875q-0.8125 -0.484375 -2.625 -0.859375q-6.03125 -1.265625 -6.03125 -5.125q0 -2.25 1.859375 -3.75q1.875 -1.515625 4.890625 -1.515625q3.21875 0 5.140625 1.515625q1.9375 1.515625 1.9375 3.9375l-4.515625 0q0 -0.96875 -0.625 -1.59375q-0.625 -0.640625 -1.953125 -0.640625q-1.140625 0 -1.765625 0.515625q-0.625 0.515625 -0.625 1.3125q0 0.75 0.703125 1.21875q0.71875 0.453125 2.40625 0.796875q1.6875 0.328125 2.84375 0.75q3.578125 1.3125 3.578125 4.546875q0 2.3125 -1.984375 3.75q-1.984375 1.421875 -5.125 1.421875q-2.125 0 -3.78125 -0.75q-1.640625 -0.765625 -2.578125 -2.078125q-0.9375 -1.328125 -0.9375 -2.859375l4.28125 0q0.0625 1.203125 0.890625 1.84375q0.828125 0.640625 2.21875 0.640625q1.296875 0 1.953125 -0.484375q0.671875 -0.5 0.671875 -1.296875zm12.484375 1.03125l8.265625 0l0 3.640625l-14.03125 0l0 -2.75l7.953125 -10.5l-7.71875 0l0 -3.65625l13.546875 0l0 2.671875l-8.015625 10.59375zm17.40625 -2.75l3.125 -10.515625l4.84375 0l-6.796875 19.53125l-0.375 0.890625q-1.515625 3.3125 -5.0 3.3125q-0.984375 0 -2.0 -0.296875l0 -3.421875l0.6875 0.015625q1.28125 0 1.90625 -0.390625q0.640625 -0.390625 1.0 -1.296875l0.53125 -1.390625l-5.921875 -16.953125l4.859375 0l3.140625 10.515625zm13.90625 -10.515625l0.140625 1.953125q1.8125 -2.265625 4.859375 -2.265625q2.6875 0 4.0 1.578125q1.3125 1.578125 1.34375 4.71875l0 10.921875l-4.515625 0l0 -10.8125q0 -1.4375 -0.625 -2.078125q-0.625 -0.65625 -2.078125 -0.65625q-1.90625 0 -2.859375 1.625l0 11.921875l-4.515625 0l0 -16.90625l4.25 0zm13.0625 8.296875q0 -2.515625 0.96875 -4.484375q0.96875 -1.96875 2.78125 -3.046875q1.828125 -1.078125 4.234375 -1.078125q3.421875 0 5.578125 2.09375q2.171875 2.09375 2.421875 5.6875l0.03125 1.15625q0 3.890625 -2.171875 6.25q-2.171875 2.34375 -5.828125 2.34375q-3.65625 0 -5.84375 -2.34375q-2.171875 -2.34375 -2.171875 -6.375l0 -0.203125zm4.515625 0.328125q0 2.40625 0.90625 3.6875q0.90625 1.265625 2.59375 1.265625q1.640625 0 2.5625 -1.25q0.921875 -1.265625 0.921875 -4.03125q0 -2.359375 -0.921875 -3.65625q-0.921875 -1.296875 -2.59375 -1.296875q-1.65625 0 -2.5625 1.296875q-0.90625 1.28125 -0.90625 3.984375zm28.984375 2.140625l2.21875 -10.765625l4.359375 0l-4.3125 16.90625l-3.78125 0l-3.203125 -10.640625l-3.203125 10.640625l-3.765625 0l-4.3125 -16.90625l4.359375 0l2.203125 10.75l3.09375 -10.75l3.265625 0l3.078125 10.765625zm16.59375 6.453125q-3.71875 0 -6.0625 -2.28125q-2.328125 -2.28125 -2.328125 -6.078125l0 -0.4375q0 -2.546875 0.984375 -4.546875q0.984375 -2.015625 2.78125 -3.09375q1.8125 -1.09375 4.125 -1.09375q3.46875 0 5.453125 2.1875q2.0 2.1875 2.0 6.203125l0 1.84375l-10.765625 0q0.21875 1.65625 1.3125 2.65625q1.109375 1.0 2.796875 1.0q2.609375 0 4.078125 -1.890625l2.21875 2.484375q-1.015625 1.4375 -2.75 2.25q-1.734375 0.796875 -3.84375 0.796875zm-0.515625 -13.875q-1.34375 0 -2.1875 0.90625q-0.828125 0.90625 -1.0625 2.59375l6.28125 0l0 -0.359375q-0.03125 -1.5 -0.8125 -2.3125q-0.78125 -0.828125 -2.21875 -0.828125zm9.375 4.984375q0 -3.890625 1.84375 -6.265625q1.859375 -2.375 5.0 -2.375q2.78125 0 4.328125 1.90625l0.1875 -1.59375l4.09375 0l0 16.34375q0 2.21875 -1.015625 3.859375q-1.0 1.640625 -2.828125 2.5q-1.828125 0.859375 -4.28125 0.859375q-1.859375 0 -3.625 -0.75q-1.765625 -0.734375 -2.671875 -1.90625l2.0 -2.75q1.6875 1.890625 4.09375 1.890625q1.796875 0 2.796875 -0.96875q1.0 -0.953125 1.0 -2.71875l0 -0.90625q-1.5625 1.765625 -4.109375 1.765625q-3.046875 0 -4.9375 -2.375q-1.875 -2.390625 -1.875 -6.328125l0 -0.1875zm4.515625 0.328125q0 2.296875 0.921875 3.609375q0.921875 1.296875 2.53125 1.296875q2.0625 0 2.953125 -1.546875l0 -7.109375q-0.90625 -1.546875 -2.921875 -1.546875q-1.625 0 -2.5625 1.328125q-0.921875 1.328125 -0.921875 3.96875zm13.703125 -0.359375q0 -2.515625 0.96875 -4.484375q0.96875 -1.96875 2.78125 -3.046875q1.828125 -1.078125 4.234375 -1.078125q3.421875 0 5.578125 2.09375q2.171875 2.09375 2.421875 5.6875l0.03125 1.15625q0 3.890625 -2.171875 6.25q-2.171875 2.34375 -5.828125 2.34375q-3.65625 0 -5.84375 -2.34375q-2.171875 -2.34375 -2.171875 -6.375l0 -0.203125zm4.515625 0.328125q0 2.40625 0.90625 3.6875q0.90625 1.265625 2.59375 1.265625q1.640625 0 2.5625 -1.25q0.921875 -1.265625 0.921875 -4.03125q0 -2.359375 -0.921875 -3.65625q-0.921875 -1.296875 -2.59375 -1.296875q-1.65625 0 -2.5625 1.296875q-0.90625 1.28125 -0.90625 3.984375z" fill-rule="nonzero"/></g><g filter="url(#shadowFilter-p.6)"><use xlink:href="#p.6" transform="matrix(1.0 0.0 0.0 1.0 0.0 2.0)"/></g><defs><filter id="shadowFilter-p.6" filterUnits="userSpaceOnUse"><feGaussianBlur in="SourceAlpha" stdDeviation="2.0" result="blur"/><feComponentTransfer in="blur" color-interpolation-filters="sRGB"><feFuncR type="linear" slope="0" intercept="0.0"/><feFuncG type="linear" slope="0" intercept="0.0"/><feFuncB type="linear" slope="0" intercept="0.0"/><feFuncA type="linear" slope="0.5" intercept="0"/></feComponentTransfer></filter></defs><g id="p.6"><path fill="#cfe2f3" d="m752.6033 245.99254l199.46106 0l0 53.1895l-199.46106 0z" fill-rule="evenodd"/><path stroke="#000000" stroke-width="1.0" stroke-linejoin="round" stroke-linecap="butt" d="m752.6033 245.99254l199.46106 0l0 53.1895l-199.46106 0z" fill-rule="evenodd"/><path fill="#000000" d="m819.2635 269.99478q-0.65625 -0.109375 -1.421875 -0.109375q-2.84375 0 -3.859375 2.421875l0 12.0l-2.890625 0l0 -16.90625l2.8125 0l0.046875 1.953125q1.421875 -2.265625 4.03125 -2.265625q0.84375 0 1.28125 0.21875l0 2.6875zm9.375 14.625q-3.4375 0 -5.59375 -2.25q-2.15625 -2.265625 -2.15625 -6.046875l0 -0.53125q0 -2.515625 0.953125 -4.484375q0.96875 -1.984375 2.6875 -3.09375q1.734375 -1.125 3.75 -1.125q3.296875 0 5.125 2.171875q1.828125 2.171875 1.828125 6.21875l0 1.203125l-11.453125 0q0.0625 2.5 1.453125 4.046875q1.40625 1.53125 3.5625 1.53125q1.53125 0 2.59375 -0.625q1.0625 -0.625 1.859375 -1.65625l1.765625 1.375q-2.125 3.265625 -6.375 3.265625zm-0.359375 -15.15625q-1.75 0 -2.9375 1.28125q-1.1875 1.265625 -1.46875 3.5625l8.46875 0l0 -0.21875q-0.125 -2.203125 -1.1875 -3.40625q-1.0625 -1.21875 -2.875 -1.21875zm9.609375 6.25q0 -3.953125 1.828125 -6.28125q1.828125 -2.34375 4.84375 -2.34375q3.09375 0 4.828125 2.1875l0.140625 -1.875l2.640625 0l0 16.5q0 3.28125 -1.953125 5.171875q-1.9375 1.890625 -5.21875 1.890625q-1.828125 0 -3.578125 -0.78125q-1.75 -0.78125 -2.671875 -2.140625l1.5 -1.734375q1.859375 2.296875 4.546875 2.296875q2.109375 0 3.28125 -1.1875q1.1875 -1.1875 1.1875 -3.34375l0 -1.453125q-1.734375 2.0 -4.734375 2.0q-2.96875 0 -4.8125 -2.390625q-1.828125 -2.390625 -1.828125 -6.515625zm2.90625 0.328125q0 2.859375 1.171875 4.5q1.171875 1.625 3.28125 1.625q2.734375 0 4.015625 -2.484375l0 -7.71875q-1.328125 -2.421875 -3.984375 -2.421875q-2.109375 0 -3.296875 1.640625q-1.1875 1.640625 -1.1875 4.859375zm26.171875 6.59375q-1.6875 1.984375 -4.953125 1.984375q-2.703125 0 -4.125 -1.5625q-1.40625 -1.578125 -1.421875 -4.65625l0 -11.0l2.890625 0l0 10.921875q0 3.84375 3.125 3.84375q3.3125 0 4.40625 -2.46875l0 -12.296875l2.890625 0l0 16.90625l-2.75 0l-0.0625 -1.671875zm10.703125 -11.90625l2.46875 -0.953125l0 1.921875l-2.46875 0.953125l0 11.65625l-2.90625 0l0 -10.546875l-2.25 0.859375l0 -1.921875l2.25 -0.859375l0 -11.53125l2.90625 0l0 10.421875zm10.671875 9.34375l3.9375 -12.671875l3.09375 0l-6.796875 19.515625q-1.578125 4.21875 -5.015625 4.21875l-0.546875 -0.046875l-1.078125 -0.203125l0 -2.34375l0.78125 0.0625q1.46875 0 2.28125 -0.59375q0.828125 -0.59375 1.359375 -2.171875l0.640625 -1.71875l-6.03125 -16.71875l3.15625 0l4.21875 12.671875z" fill-rule="nonzero"/></g><g filter="url(#shadowFilter-p.7)"><use xlink:href="#p.7" transform="matrix(1.0 0.0 0.0 1.0 0.0 2.0)"/></g><defs><filter id="shadowFilter-p.7" filterUnits="userSpaceOnUse"><feGaussianBlur in="SourceAlpha" stdDeviation="2.0" result="blur"/><feComponentTransfer in="blur" color-interpolation-filters="sRGB"><feFuncR type="linear" slope="0" intercept="0.0"/><feFuncG type="linear" slope="0" intercept="0.0"/><feFuncB type="linear" slope="0" intercept="0.0"/><feFuncA type="linear" slope="0.5" intercept="0"/></feComponentTransfer></filter></defs><g id="p.7"><path fill="#cfe2f3" d="m7.9356956 205.68378l199.46103 0l0 53.189514l-199.46103 0z" fill-rule="evenodd"/><path stroke="#000000" stroke-width="1.0" stroke-linejoin="round" stroke-linecap="butt" d="m7.9356956 205.68378l199.46103 0l0 53.189514l-199.46103 0z" fill-rule="evenodd"/><path fill="#000000" d="m74.11933 235.40477q0 -3.890625 1.84375 -6.25q1.84375 -2.375 4.828125 -2.375q2.96875 0 4.703125 2.03125l0 -8.8125l2.890625 0l0 24.0l-2.65625 0l-0.140625 -1.8125q-1.734375 2.125 -4.828125 2.125q-2.9375 0 -4.796875 -2.40625q-1.84375 -2.40625 -1.84375 -6.28125l0 -0.21875zm2.890625 0.328125q0 2.875 1.1875 4.5q1.1875 1.625 3.28125 1.625q2.75 0 4.015625 -2.46875l0 -7.765625q-1.296875 -2.390625 -3.984375 -2.390625q-2.125 0 -3.3125 1.640625q-1.1875 1.640625 -1.1875 4.859375zm26.296875 8.265625q-0.25 -0.5 -0.40625 -1.78125q-2.015625 2.09375 -4.8125 2.09375q-2.5 0 -4.109375 -1.40625q-1.59375 -1.421875 -1.59375 -3.59375q0 -2.640625 2.0 -4.09375q2.015625 -1.46875 5.65625 -1.46875l2.8125 0l0 -1.328125q0 -1.515625 -0.90625 -2.40625q-0.90625 -0.90625 -2.671875 -0.90625q-1.546875 0 -2.59375 0.78125q-1.046875 0.78125 -1.046875 1.890625l-2.90625 0q0 -1.265625 0.890625 -2.4375q0.90625 -1.1875 2.4375 -1.875q1.546875 -0.6875 3.390625 -0.6875q2.921875 0 4.578125 1.46875q1.65625 1.453125 1.71875 4.015625l0 7.78125q0 2.328125 0.59375 3.703125l0 0.25l-3.03125 0zm-4.796875 -2.203125q1.359375 0 2.578125 -0.703125q1.21875 -0.703125 1.765625 -1.828125l0 -3.46875l-2.265625 0q-5.3125 0 -5.3125 3.109375q0 1.359375 0.90625 2.125q0.90625 0.765625 2.328125 0.765625zm14.5 -14.703125l0.09375 2.125q1.9375 -2.4375 5.0625 -2.4375q5.359375 0 5.40625 6.046875l0 11.171875l-2.890625 0l0 -11.1875q-0.015625 -1.828125 -0.84375 -2.703125q-0.8125 -0.875 -2.546875 -0.875q-1.40625 0 -2.46875 0.75q-1.0625 0.75 -1.65625 1.96875l0 12.046875l-2.890625 0l0 -16.90625l2.734375 0zm21.937508 17.21875q-3.4375 0 -5.59375 -2.25q-2.1562576 -2.265625 -2.1562576 -6.046875l0 -0.53125q0 -2.515625 0.9531326 -4.484375q0.96875 -1.984375 2.6875 -3.09375q1.734375 -1.125 3.75 -1.125q3.296875 0 5.125 2.171875q1.828125 2.171875 1.828125 6.21875l0 1.203125l-11.453125 0q0.0625 2.5 1.453125 4.046875q1.40625 1.53125 3.5625 1.53125q1.53125 0 2.59375 -0.625q1.0625 -0.625 1.859375 -1.65625l1.765625 1.375q-2.125 3.265625 -6.375 3.265625zm-0.359375 -15.15625q-1.75 0 -2.9375 1.28125q-1.1875 1.265625 -1.46875 3.5625l8.46875 0l0 -0.21875q-0.125 -2.203125 -1.1875 -3.40625q-1.0625 -1.21875 -2.875 -1.21875z" fill-rule="nonzero"/></g><g filter="url(#shadowFilter-p.8)"><use xlink:href="#p.8" transform="matrix(1.0 0.0 0.0 1.0 0.0 2.0)"/></g><defs><filter id="shadowFilter-p.8" filterUnits="userSpaceOnUse"><feGaussianBlur in="SourceAlpha" stdDeviation="2.0" result="blur"/><feComponentTransfer in="blur" color-interpolation-filters="sRGB"><feFuncR type="linear" slope="0" intercept="0.0"/><feFuncG type="linear" slope="0" intercept="0.0"/><feFuncB type="linear" slope="0" intercept="0.0"/><feFuncA type="linear" slope="0.5" intercept="0"/></feComponentTransfer></filter></defs><g id="p.8"><path fill="#cfe2f3" d="m7.9356956 286.3013l199.46103 0l0 53.189514l-199.46103 0z" fill-rule="evenodd"/><path stroke="#000000" stroke-width="1.0" stroke-linejoin="round" stroke-linecap="butt" d="m7.9356956 286.3013l199.46103 0l0 53.189514l-199.46103 0z" fill-rule="evenodd"/><path fill="#000000" d="m27.619335 316.00668q0 -2.484375 0.96875 -4.46875q0.984375 -1.984375 2.71875 -3.0625q1.75 -1.078125 3.984375 -1.078125q3.453125 0 5.578125 2.390625q2.140625 2.390625 2.140625 6.359375l0 0.203125q0 2.46875 -0.953125 4.4375q-0.9375 1.953125 -2.703125 3.046875q-1.75 1.09375 -4.03125 1.09375q-3.4375 0 -5.578125 -2.390625q-2.125 -2.390625 -2.125 -6.328125l0 -0.203125zm2.90625 0.34375q0 2.8125 1.296875 4.515625q1.3125 1.703125 3.5 1.703125q2.203125 0 3.5 -1.71875q1.296875 -1.734375 1.296875 -4.84375q0 -2.78125 -1.328125 -4.5q-1.3125 -1.734375 -3.5 -1.734375q-2.140625 0 -3.453125 1.703125q-1.3125 1.703125 -1.3125 4.875zm15.40625 -0.328125q0 -3.890625 1.84375 -6.25q1.84375 -2.375 4.828125 -2.375q2.96875 0 4.703125 2.03125l0 -8.8125l2.890625 0l0 24.0l-2.65625 0l-0.140625 -1.8125q-1.734375 2.125 -4.828125 2.125q-2.9375 0 -4.796875 -2.40625q-1.84375 -2.40625 -1.84375 -6.28125l0 -0.21875zm2.890625 0.328125q0 2.875 1.1875 4.5q1.1875 1.625 3.28125 1.625q2.75 0 4.015625 -2.46875l0 -7.765625q-1.296875 -2.390625 -3.984375 -2.390625q-2.125 0 -3.3125 1.640625q-1.1875 1.640625 -1.1875 4.859375zm30.140621 0q0 3.859375 -1.765625 6.21875q-1.765625 2.359375 -4.78125 2.359375q-3.078125 0 -4.84375 -1.953125l0 8.140625l-2.890625 0l0 -23.40625l2.640625 0l0.140625 1.875q1.765625 -2.1875 4.90625 -2.1875q3.046875 0 4.8125 2.296875q1.78125 2.296875 1.78125 6.390625l0 0.265625zm-2.890625 -0.328125q0 -2.859375 -1.21875 -4.515625q-1.21875 -1.65625 -3.34375 -1.65625q-2.625 0 -3.9375 2.328125l0 8.078125q1.296875 2.3125 3.96875 2.3125q2.078125 0 3.296875 -1.640625q1.234375 -1.65625 1.234375 -4.90625zm5.796875 -0.015625q0 -2.484375 0.96875 -4.46875q0.984375 -1.984375 2.71875 -3.0625q1.75 -1.078125 3.984375 -1.078125q3.453125 0 5.578125 2.390625q2.140625 2.390625 2.140625 6.359375l0 0.203125q0 2.46875 -0.953125 4.4375q-0.9375 1.953125 -2.703125 3.046875q-1.75 1.09375 -4.03125 1.09375q-3.4375 0 -5.578125 -2.390625q-2.125 -2.390625 -2.125 -6.328125l0 -0.203125zm2.90625 0.34375q0 2.8125 1.296875 4.515625q1.3125 1.703125 3.5 1.703125q2.203125 0 3.5 -1.71875q1.296875 -1.734375 1.296875 -4.84375q0 -2.78125 -1.328125 -4.5q-1.3125 -1.734375 -3.5 -1.734375q-2.140625 0 -3.453125 1.703125q-1.3125 1.703125 -1.3125 4.875zm31.078125 4.28125l3.25 -12.921875l2.890625 0l-4.921875 16.90625l-2.34375 0l-4.109375 -12.8125l-4.0 12.8125l-2.34375 0l-4.90625 -16.90625l2.875 0l3.328125 12.65625l3.9375 -12.65625l2.328125 0l4.015625 12.921875zm12.218758 3.984375l-2.8906326 0l0 -16.90625l2.8906326 0l0 16.90625zm-3.1250076 -21.390625q0 -0.703125 0.421875 -1.1875q0.4375 -0.484375 1.28125 -0.484375q0.84375 0 1.28125 0.484375q0.43750763 0.484375 0.43750763 1.1875q0 0.703125 -0.43750763 1.171875q-0.4375 0.46875 -1.28125 0.46875q-0.84375 0 -1.28125 -0.46875q-0.421875 -0.46875 -0.421875 -1.171875zm14.765633 21.703125q-3.4375 0 -5.59375 -2.25q-2.15625 -2.265625 -2.15625 -6.046875l0 -0.53125q0 -2.515625 0.953125 -4.484375q0.96875 -1.984375 2.6875 -3.09375q1.734375 -1.125 3.75 -1.125q3.296875 0 5.125 2.171875q1.828125 2.171875 1.828125 6.21875l0 1.203125l-11.453125 0q0.0625 2.5 1.453125 4.046875q1.40625 1.53125 3.5625 1.53125q1.53125 0 2.59375 -0.625q1.0625 -0.625 1.859375 -1.65625l1.765625 1.375q-2.125 3.265625 -6.375 3.265625zm-0.359375 -15.15625q-1.75 0 -2.9375 1.28125q-1.1875 1.265625 -1.46875 3.5625l8.46875 0l0 -0.21875q-0.125 -2.203125 -1.1875 -3.40625q-1.0625 -1.21875 -2.875 -1.21875zm9.59375 6.25q0 -3.890625 1.84375 -6.25q1.84375 -2.375 4.828125 -2.375q2.96875 0 4.703125 2.03125l0 -8.8125l2.890625 0l0 24.0l-2.65625 0l-0.140625 -1.8125q-1.734375 2.125 -4.828125 2.125q-2.9375 0 -4.796875 -2.40625q-1.84375 -2.40625 -1.84375 -6.28125l0 -0.21875zm2.890625 0.328125q0 2.875 1.1875 4.5q1.1875 1.625 3.28125 1.625q2.75 0 4.015625 -2.46875l0 -7.765625q-1.296875 -2.390625 -3.984375 -2.390625q-2.125 0 -3.3125 1.640625q-1.1875 1.640625 -1.1875 4.859375zm18.578125 5.90625l9.890625 0l0 2.359375l-13.421875 0l0 -2.125l9.328125 -12.390625l-9.1875 0l0 -2.390625l12.8125 0l0 2.046875l-9.421875 12.5zm16.28125 2.359375l-2.890625 0l0 -16.90625l2.890625 0l0 16.90625zm-3.125 -21.390625q0 -0.703125 0.421875 -1.1875q0.4375 -0.484375 1.28125 -0.484375q0.84375 0 1.28125 0.484375q0.4375 0.484375 0.4375 1.1875q0 0.703125 -0.4375 1.171875q-0.4375 0.46875 -1.28125 0.46875q-0.84375 0 -1.28125 -0.46875q-0.421875 -0.46875 -0.421875 -1.171875z" fill-rule="nonzero"/></g><g filter="url(#shadowFilter-p.9)"><use xlink:href="#p.9" transform="matrix(1.0 0.0 0.0 1.0 0.0 2.0)"/></g><defs><filter id="shadowFilter-p.9" filterUnits="userSpaceOnUse"><feGaussianBlur in="SourceAlpha" stdDeviation="2.0" result="blur"/><feComponentTransfer in="blur" color-interpolation-filters="sRGB"><feFuncR type="linear" slope="0" intercept="0.0"/><feFuncG type="linear" slope="0" intercept="0.0"/><feFuncB type="linear" slope="0" intercept="0.0"/><feFuncA type="linear" slope="0.5" intercept="0"/></feComponentTransfer></filter></defs><g id="p.9"><path fill="#000000" fill-opacity="0.0" d="m207.39673 32.817856l46.53543 0l0 40.314964l46.53543 0" fill-rule="evenodd"/><path stroke="#000000" stroke-width="1.0" stroke-linejoin="round" stroke-linecap="butt" d="m207.39673 32.817856l46.53543 0l0 40.314964l46.53543 0" fill-rule="evenodd"/></g><g filter="url(#shadowFilter-p.10)"><use xlink:href="#p.10" transform="matrix(1.0 0.0 0.0 1.0 0.0 2.0)"/></g><defs><filter id="shadowFilter-p.10" filterUnits="userSpaceOnUse"><feGaussianBlur in="SourceAlpha" stdDeviation="2.0" result="blur"/><feComponentTransfer in="blur" color-interpolation-filters="sRGB"><feFuncR type="linear" slope="0" intercept="0.0"/><feFuncG type="linear" slope="0" intercept="0.0"/><feFuncB type="linear" slope="0" intercept="0.0"/><feFuncA type="linear" slope="0.5" intercept="0"/></feComponentTransfer></filter></defs><g id="p.10"><path fill="#000000" fill-opacity="0.0" d="m207.39673 113.435394l46.53543 0l0 -40.314964l46.53543 0" fill-rule="evenodd"/><path stroke="#000000" stroke-width="1.0" stroke-linejoin="round" stroke-linecap="butt" d="m207.39671 113.43539l46.53543 0l0 -40.314957l43.108353 0" fill-rule="evenodd"/><path fill="#000000" stroke="#000000" stroke-width="1.0" stroke-linecap="butt" d="m297.0405 73.12043l-1.1245728 1.124588l3.0897522 -1.124588l-3.0897522 -1.1245804z" fill-rule="evenodd"/></g><g filter="url(#shadowFilter-p.11)"><use xlink:href="#p.11" transform="matrix(1.0 0.0 0.0 1.0 0.0 2.0)"/></g><defs><filter id="shadowFilter-p.11" filterUnits="userSpaceOnUse"><feGaussianBlur in="SourceAlpha" stdDeviation="2.0" result="blur"/><feComponentTransfer in="blur" color-interpolation-filters="sRGB"><feFuncR type="linear" slope="0" intercept="0.0"/><feFuncG type="linear" slope="0" intercept="0.0"/><feFuncB type="linear" slope="0" intercept="0.0"/><feFuncA type="linear" slope="0.5" intercept="0"/></feComponentTransfer></filter></defs><g id="p.11"><path fill="#000000" fill-opacity="0.0" d="m659.5215 73.126625l46.5354 0l0 0.06298828l46.53546 0" fill-rule="evenodd"/><path stroke="#000000" stroke-width="1.0" stroke-linejoin="round" stroke-linecap="butt" d="m659.5214 73.126625l46.535522 0l0 0.06299591l43.108337 0" fill-rule="evenodd"/><path fill="#000000" stroke="#000000" stroke-width="1.0" stroke-linecap="butt" d="m749.1653 73.18962l-1.1245728 1.1245804l3.0897217 -1.1245804l-3.0897217 -1.124588z" fill-rule="evenodd"/></g><g filter="url(#shadowFilter-p.12)"><use xlink:href="#p.12" transform="matrix(1.0 0.0 0.0 1.0 0.0 2.0)"/></g><defs><filter id="shadowFilter-p.12" filterUnits="userSpaceOnUse"><feGaussianBlur in="SourceAlpha" stdDeviation="2.0" result="blur"/><feComponentTransfer in="blur" color-interpolation-filters="sRGB"><feFuncR type="linear" slope="0" intercept="0.0"/><feFuncG type="linear" slope="0" intercept="0.0"/><feFuncB type="linear" slope="0" intercept="0.0"/><feFuncA type="linear" slope="0.5" intercept="0"/></feComponentTransfer></filter></defs><g id="p.12"><path fill="#000000" fill-opacity="0.0" d="m207.39673 232.27852l46.53543 0l0 40.314957l46.53543 0" fill-rule="evenodd"/><path stroke="#000000" stroke-width="1.0" stroke-linejoin="round" stroke-linecap="butt" d="m207.39673 232.27852l46.53543 0l0 40.314957l46.53543 0" fill-rule="evenodd"/></g><g filter="url(#shadowFilter-p.13)"><use xlink:href="#p.13" transform="matrix(1.0 0.0 0.0 1.0 0.0 2.0)"/></g><defs><filter id="shadowFilter-p.13" filterUnits="userSpaceOnUse"><feGaussianBlur in="SourceAlpha" stdDeviation="2.0" result="blur"/><feComponentTransfer in="blur" color-interpolation-filters="sRGB"><feFuncR type="linear" slope="0" intercept="0.0"/><feFuncG type="linear" slope="0" intercept="0.0"/><feFuncB type="linear" slope="0" intercept="0.0"/><feFuncA type="linear" slope="0.5" intercept="0"/></feComponentTransfer></filter></defs><g id="p.13"><path fill="#000000" fill-opacity="0.0" d="m207.39673 312.89606l46.53543 0l0 -40.31494l46.53543 0" fill-rule="evenodd"/><path stroke="#000000" stroke-width="1.0" stroke-linejoin="round" stroke-linecap="butt" d="m207.39671 312.89606l46.53543 0l0 -40.314972l43.108353 0" fill-rule="evenodd"/><path fill="#000000" stroke="#000000" stroke-width="1.0" stroke-linecap="butt" d="m297.0405 272.5811l-1.1245728 1.1246033l3.0897522 -1.1246033l-3.0897522 -1.1245728z" fill-rule="evenodd"/></g><g filter="url(#shadowFilter-p.14)"><use xlink:href="#p.14" transform="matrix(1.0 0.0 0.0 1.0 0.0 2.0)"/></g><defs><filter id="shadowFilter-p.14" filterUnits="userSpaceOnUse"><feGaussianBlur in="SourceAlpha" stdDeviation="2.0" result="blur"/><feComponentTransfer in="blur" color-interpolation-filters="sRGB"><feFuncR type="linear" slope="0" intercept="0.0"/><feFuncG type="linear" slope="0" intercept="0.0"/><feFuncB type="linear" slope="0" intercept="0.0"/><feFuncA type="linear" slope="0.5" intercept="0"/></feComponentTransfer></filter></defs><g id="p.14"><path fill="#000000" fill-opacity="0.0" d="m659.5215 272.58728l46.5354 0l0 0.0630188l46.53546 0" fill-rule="evenodd"/><path stroke="#000000" stroke-width="1.0" stroke-linejoin="round" stroke-linecap="butt" d="m659.5214 272.58728l46.535522 0l0 0.06298828l43.108337 0" fill-rule="evenodd"/><path fill="#000000" stroke="#000000" stroke-width="1.0" stroke-linecap="butt" d="m749.1653 272.65027l-1.1245728 1.1246033l3.0897217 -1.1246033l-3.0897217 -1.1245728z" fill-rule="evenodd"/></g></g></svg>